<svg xmlns="http://www.w3.org/2000/svg" xmlns:xlink="http://www.w3.org/1999/xlink" version="1.1" width="256" height="256" viewBox="0 0 256 256" xml:space="preserve">

<defs>
</defs>
<g style="stroke: none; stroke-width: 0; stroke-dasharray: none; stroke-linecap: butt; stroke-linejoin: miter; stroke-miterlimit: 10; fill: none; fill-rule: nonzero; opacity: 1;" transform="translate(1.4065934065934016 1.4065934065934016) scale(2.81 2.81)" >
	<path d="M 73.903 63.178 H 28.899 c -4.566 0 -8.377 -3.276 -9.063 -7.79 l -5.662 -37.261 c -0.087 -0.576 0.081 -1.162 0.461 -1.604 s 0.934 -0.696 1.517 -0.696 h 67.893 c 1.805 0 3.491 0.805 4.628 2.208 c 1.135 1.403 1.571 3.22 1.195 4.985 l -6.999 32.899 C 81.975 60.125 78.203 63.178 73.903 63.178 z M 18.479 19.827 l 5.313 34.96 c 0.386 2.544 2.534 4.391 5.107 4.391 h 45.004 c 2.424 0 4.549 -1.721 5.054 -4.091 l 6.999 -32.9 c 0.123 -0.58 -0.02 -1.176 -0.393 -1.636 c -0.373 -0.46 -0.926 -0.725 -1.519 -0.725 H 18.479 z" style="stroke: none; stroke-width: 1; stroke-dasharray: none; stroke-linecap: butt; stroke-linejoin: miter; stroke-miterlimit: 10; fill: rgb(0,0,0); fill-rule: nonzero; opacity: 1;" transform=" matrix(1 0 0 1 0 0) " stroke-linecap="round" />
	<path d="M 16.15 19.827 c -0.988 0 -1.848 -0.732 -1.98 -1.738 l -0.598 -4.531 c -0.279 -2.116 -2.099 -3.712 -4.233 -3.712 H 2 c -1.104 0 -2 -0.896 -2 -2 s 0.896 -2 2 -2 h 7.339 c 4.133 0 7.658 3.09 8.199 7.188 l 0.598 4.531 c 0.145 1.095 -0.626 2.1 -1.721 2.245 C 16.325 19.821 16.237 19.827 16.15 19.827 z" style="stroke: none; stroke-width: 1; stroke-dasharray: none; stroke-linecap: butt; stroke-linejoin: miter; stroke-miterlimit: 10; fill: rgb(0,0,0); fill-rule: nonzero; opacity: 1;" transform=" matrix(1 0 0 1 0 0) " stroke-linecap="round" />
	<path d="M 29.18 84.154 c -4.76 0 -8.632 -3.873 -8.632 -8.633 s 3.873 -8.632 8.632 -8.632 c 4.76 0 8.633 3.872 8.633 8.632 S 33.94 84.154 29.18 84.154 z M 29.18 70.89 c -2.554 0 -4.632 2.078 -4.632 4.632 c 0 2.555 2.078 4.633 4.632 4.633 c 2.555 0 4.633 -2.078 4.633 -4.633 C 33.813 72.968 31.734 70.89 29.18 70.89 z" style="stroke: none; stroke-width: 1; stroke-dasharray: none; stroke-linecap: butt; stroke-linejoin: miter; stroke-miterlimit: 10; fill: rgb(0,0,0); fill-rule: nonzero; opacity: 1;" transform=" matrix(1 0 0 1 0 0) " stroke-linecap="round" />
	<path d="M 71.339 84.154 c -4.76 0 -8.633 -3.873 -8.633 -8.633 s 3.873 -8.632 8.633 -8.632 s 8.632 3.872 8.632 8.632 S 76.099 84.154 71.339 84.154 z M 71.339 70.89 c -2.555 0 -4.633 2.078 -4.633 4.632 c 0 2.555 2.078 4.633 4.633 4.633 c 2.554 0 4.632 -2.078 4.632 -4.633 C 75.971 72.968 73.893 70.89 71.339 70.89 z" style="stroke: none; stroke-width: 1; stroke-dasharray: none; stroke-linecap: butt; stroke-linejoin: miter; stroke-miterlimit: 10; fill: rgb(0,0,0); fill-rule: nonzero; opacity: 1;" transform=" matrix(1 0 0 1 0 0) " stroke-linecap="round" />
</g>
</svg>