<svg width="188" height="48" viewBox="0 0 188 48" fill="none" xmlns="http://www.w3.org/2000/svg">
<circle cx="24.0525" cy="24.0525" r="22.4209" stroke="#064C58" stroke-width="2.73682"/>
<mask id="mask0_468_75" style="mask-type:alpha" maskUnits="userSpaceOnUse" x="4" y="4" width="40" height="40">
<circle cx="24.1052" cy="24.1049" r="19.2104" fill="#77DE8D"/>
</mask>
<g mask="url(#mask0_468_75)">
<rect x="-0.894775" y="-3.21045" width="25.0525" height="49.3681" fill="#77DE8D"/>
</g>
<mask id="mask1_468_75" style="mask-type:alpha" maskUnits="userSpaceOnUse" x="4" y="4" width="40" height="40">
<circle cx="24.105" cy="24.105" r="19.2104" transform="rotate(-180 24.105 24.105)" fill="#86CCEA"/>
</mask>
<g mask="url(#mask1_468_75)">
<rect x="49.105" y="51.4209" width="25.0525" height="49.3681" transform="rotate(-180 49.105 51.4209)" fill="#86CCEA"/>
</g>
<mask id="path-6-outside-1_468_75" maskUnits="userSpaceOnUse" x="8.99976" y="8.99951" width="30" height="30" fill="black">
<rect fill="white" x="8.99976" y="8.99951" width="30" height="30"/>
<path fill-rule="evenodd" clip-rule="evenodd" d="M24.0524 36.9995C26.4359 36.9995 28.3682 35.0673 28.3682 32.6838L28.3682 27.8419L32.6314 27.8419C35.044 27.8419 36.9998 25.8861 36.9998 23.4735C36.9998 21.0609 35.044 19.1051 32.6314 19.1051L28.3682 19.1051L28.3682 15.526C28.3682 13.1424 26.4359 11.2102 24.0524 11.2102C21.6689 11.2102 19.7367 13.1424 19.7367 15.526L19.7367 19.1051L15.5788 19.1051C13.1663 19.1051 11.2105 21.0609 11.2105 23.4735C11.2105 25.8861 13.1663 27.8419 15.5788 27.8419L19.7367 27.8419L19.7367 32.6838C19.7367 35.0673 21.6689 36.9995 24.0524 36.9995Z"/>
</mask>
<path fill-rule="evenodd" clip-rule="evenodd" d="M24.0524 36.9995C26.4359 36.9995 28.3682 35.0673 28.3682 32.6838L28.3682 27.8419L32.6314 27.8419C35.044 27.8419 36.9998 25.8861 36.9998 23.4735C36.9998 21.0609 35.044 19.1051 32.6314 19.1051L28.3682 19.1051L28.3682 15.526C28.3682 13.1424 26.4359 11.2102 24.0524 11.2102C21.6689 11.2102 19.7367 13.1424 19.7367 15.526L19.7367 19.1051L15.5788 19.1051C13.1663 19.1051 11.2105 21.0609 11.2105 23.4735C11.2105 25.8861 13.1663 27.8419 15.5788 27.8419L19.7367 27.8419L19.7367 32.6838C19.7367 35.0673 21.6689 36.9995 24.0524 36.9995Z" fill="#77DE8D"/>
<path d="M28.3682 32.6838L27.105 32.6838L28.3682 32.6838ZM28.3682 27.8419L28.3682 26.5787L27.105 26.5787L27.105 27.8419L28.3682 27.8419ZM28.3682 19.1051L27.105 19.1051L27.105 20.3683L28.3682 20.3683L28.3682 19.1051ZM19.7367 19.1051L19.7367 20.3683L20.9998 20.3683L20.9998 19.1051L19.7367 19.1051ZM19.7367 27.8419L20.9998 27.8419L20.9998 26.5787L19.7367 26.5787L19.7367 27.8419ZM27.105 32.6838C27.105 34.3697 25.7383 35.7364 24.0524 35.7364L24.0524 38.2627C27.1336 38.2627 29.6313 35.7649 29.6313 32.6838L27.105 32.6838ZM27.105 27.8419L27.105 32.6838L29.6313 32.6838L29.6313 27.8419L27.105 27.8419ZM32.6314 26.5787L28.3682 26.5787L28.3682 29.105L32.6314 29.105L32.6314 26.5787ZM35.7366 23.4735C35.7366 25.1885 34.3463 26.5787 32.6314 26.5787L32.6314 29.105C35.7416 29.105 38.2629 26.5837 38.2629 23.4735L35.7366 23.4735ZM32.6314 20.3683C34.3463 20.3683 35.7366 21.7585 35.7366 23.4735L38.2629 23.4735C38.2629 20.3633 35.7416 17.842 32.6314 17.842L32.6314 20.3683ZM28.3682 20.3683L32.6314 20.3683L32.6314 17.842L28.3682 17.842L28.3682 20.3683ZM27.105 15.526L27.105 19.1051L29.6313 19.1051L29.6313 15.526L27.105 15.526ZM24.0524 12.4734C25.7383 12.4734 27.105 13.8401 27.105 15.526L29.6313 15.526C29.6313 12.4448 27.1336 9.94706 24.0524 9.94706L24.0524 12.4734ZM20.9998 15.526C20.9998 13.8401 22.3665 12.4734 24.0524 12.4734L24.0524 9.94706C20.9713 9.94706 18.4735 12.4448 18.4735 15.526L20.9998 15.526ZM20.9998 19.1051L20.9998 15.526L18.4735 15.526L18.4735 19.1051L20.9998 19.1051ZM15.5788 20.3682L19.7367 20.3683L19.7367 17.842L15.5788 17.842L15.5788 20.3682ZM12.4736 23.4735C12.4736 21.7585 13.8639 20.3682 15.5788 20.3682L15.5788 17.842C12.4686 17.842 9.94731 20.3633 9.94731 23.4735L12.4736 23.4735ZM15.5788 26.5787C13.8639 26.5787 12.4736 25.1885 12.4736 23.4735L9.94731 23.4735C9.94731 26.5837 12.4686 29.105 15.5788 29.105L15.5788 26.5787ZM19.7367 26.5787L15.5788 26.5787L15.5788 29.105L19.7367 29.105L19.7367 26.5787ZM20.9998 32.6838L20.9998 27.8419L18.4735 27.8419L18.4735 32.6838L20.9998 32.6838ZM24.0524 35.7364C22.3665 35.7364 20.9998 34.3697 20.9998 32.6838L18.4735 32.6838C18.4735 35.7649 20.9713 38.2627 24.0524 38.2627L24.0524 35.7364Z" fill="white" mask="url(#path-6-outside-1_468_75)"/>
<mask id="mask2_468_75" style="mask-type:alpha" maskUnits="userSpaceOnUse" x="11" y="11" width="26" height="26">
<mask id="path-8-inside-2_468_75" fill="white">
<path fill-rule="evenodd" clip-rule="evenodd" d="M24.0524 36.9995C26.4359 36.9995 28.3682 35.0673 28.3682 32.6838L28.3682 27.8419L32.6314 27.8419C35.044 27.8419 36.9998 25.8861 36.9998 23.4735C36.9998 21.0609 35.044 19.1051 32.6314 19.1051L28.3682 19.1051L28.3682 15.526C28.3682 13.1424 26.4359 11.2102 24.0524 11.2102C21.6689 11.2102 19.7367 13.1424 19.7367 15.526L19.7367 19.1051L15.5788 19.1051C13.1663 19.1051 11.2105 21.0609 11.2105 23.4735C11.2105 25.8861 13.1663 27.8419 15.5788 27.8419L19.7367 27.8419L19.7367 32.6838C19.7367 35.0673 21.6689 36.9995 24.0524 36.9995Z"/>
</mask>
<path fill-rule="evenodd" clip-rule="evenodd" d="M24.0524 36.9995C26.4359 36.9995 28.3682 35.0673 28.3682 32.6838L28.3682 27.8419L32.6314 27.8419C35.044 27.8419 36.9998 25.8861 36.9998 23.4735C36.9998 21.0609 35.044 19.1051 32.6314 19.1051L28.3682 19.1051L28.3682 15.526C28.3682 13.1424 26.4359 11.2102 24.0524 11.2102C21.6689 11.2102 19.7367 13.1424 19.7367 15.526L19.7367 19.1051L15.5788 19.1051C13.1663 19.1051 11.2105 21.0609 11.2105 23.4735C11.2105 25.8861 13.1663 27.8419 15.5788 27.8419L19.7367 27.8419L19.7367 32.6838C19.7367 35.0673 21.6689 36.9995 24.0524 36.9995Z" fill="#86CCEA"/>
<path d="M28.3682 32.6838L27.105 32.6838L28.3682 32.6838ZM28.3682 27.8419L28.3682 26.5787L27.105 26.5787L27.105 27.8419L28.3682 27.8419ZM28.3682 19.1051L27.105 19.1051L27.105 20.3683L28.3682 20.3683L28.3682 19.1051ZM19.7367 19.1051L19.7367 20.3683L20.9998 20.3683L20.9998 19.1051L19.7367 19.1051ZM19.7367 27.8419L20.9998 27.8419L20.9998 26.5787L19.7367 26.5787L19.7367 27.8419ZM27.105 32.6838C27.105 34.3697 25.7383 35.7364 24.0524 35.7364L24.0524 38.2627C27.1336 38.2627 29.6313 35.7649 29.6313 32.6838L27.105 32.6838ZM27.105 27.8419L27.105 32.6838L29.6313 32.6838L29.6313 27.8419L27.105 27.8419ZM32.6314 26.5787L28.3682 26.5787L28.3682 29.105L32.6314 29.105L32.6314 26.5787ZM35.7366 23.4735C35.7366 25.1885 34.3463 26.5787 32.6314 26.5787L32.6314 29.105C35.7416 29.105 38.2629 26.5837 38.2629 23.4735L35.7366 23.4735ZM32.6314 20.3683C34.3463 20.3683 35.7366 21.7585 35.7366 23.4735L38.2629 23.4735C38.2629 20.3633 35.7416 17.842 32.6314 17.842L32.6314 20.3683ZM28.3682 20.3683L32.6314 20.3683L32.6314 17.842L28.3682 17.842L28.3682 20.3683ZM27.105 15.526L27.105 19.1051L29.6313 19.1051L29.6313 15.526L27.105 15.526ZM24.0524 12.4734C25.7383 12.4734 27.105 13.8401 27.105 15.526L29.6313 15.526C29.6313 12.4448 27.1336 9.94706 24.0524 9.94706L24.0524 12.4734ZM20.9998 15.526C20.9998 13.8401 22.3665 12.4734 24.0524 12.4734L24.0524 9.94706C20.9713 9.94706 18.4735 12.4448 18.4735 15.526L20.9998 15.526ZM20.9998 19.1051L20.9998 15.526L18.4735 15.526L18.4735 19.1051L20.9998 19.1051ZM15.5788 20.3682L19.7367 20.3683L19.7367 17.842L15.5788 17.842L15.5788 20.3682ZM12.4736 23.4735C12.4736 21.7585 13.8639 20.3682 15.5788 20.3682L15.5788 17.842C12.4686 17.842 9.94731 20.3633 9.94731 23.4735L12.4736 23.4735ZM15.5788 26.5787C13.8639 26.5787 12.4736 25.1885 12.4736 23.4735L9.94731 23.4735C9.94731 26.5837 12.4686 29.105 15.5788 29.105L15.5788 26.5787ZM19.7367 26.5787L15.5788 26.5787L15.5788 29.105L19.7367 29.105L19.7367 26.5787ZM20.9998 32.6838L20.9998 27.8419L18.4735 27.8419L18.4735 32.6838L20.9998 32.6838ZM24.0524 35.7364C22.3665 35.7364 20.9998 34.3697 20.9998 32.6838L18.4735 32.6838C18.4735 35.7649 20.9713 38.2627 24.0524 38.2627L24.0524 35.7364Z" fill="white" mask="url(#path-8-inside-2_468_75)"/>
</mask>
<g mask="url(#mask2_468_75)">
<rect x="41.2102" y="43.3154" width="17.0525" height="36.5261" transform="rotate(-180 41.2102 43.3154)" fill="#86CCEA"/>
</g>
<path d="M13.6316 21.7365C14.0743 20.8978 14.4274 20.586 15.4211 20.5786" stroke="white" stroke-width="0.8421" stroke-linecap="round"/>
<path d="M34.7893 25.4207C34.3466 26.2595 33.9935 26.5712 32.9998 26.5786" stroke="white" stroke-width="0.8421" stroke-linecap="round"/>
<line x1="24.162" y1="38.159" x2="24.0525" y2="11.0013" stroke="#FFFDFD" stroke-width="0.631575"/>
<mask id="path-14-outside-3_468_75" maskUnits="userSpaceOnUse" x="58" y="16" width="127" height="20" fill="black">
<rect fill="white" x="58" y="16" width="127" height="20"/>
<path d="M59.325 35V17.5H71.625V19.5H61.475V24.975H71.2V27H61.475V32.925H72.025V35H59.325ZM79.7842 17.5V32.975H89.3092V35H77.6092V17.5H79.7842ZM102.812 19.55H92.5367V17.5H105.337L105.512 18.9L96.7617 35H94.2867L102.812 19.55ZM114.586 17.5H117.036L124.886 35H122.536L120.811 31.15H110.811L109.111 35H106.736L114.586 17.5ZM119.961 29.15L115.811 19.7L111.661 29.15H119.961ZM131.18 22.35H129.005C129.03 21.425 129.255 20.625 129.68 19.925C130.08 19.25 130.63 18.725 131.33 18.35C132.005 18 132.73 17.725 133.48 17.55C134.23 17.4 135.055 17.3 135.93 17.3C136.78 17.3 137.605 17.4 138.355 17.575C139.105 17.775 139.83 18.05 140.505 18.45C141.155 18.85 141.68 19.375 142.08 20.075C142.48 20.775 142.68 21.6 142.68 22.525C142.68 23.475 142.48 24.3 142.08 25C141.68 25.7 141.155 26.25 140.505 26.65C139.83 27.05 139.105 27.325 138.33 27.5C137.555 27.675 136.73 27.75 135.83 27.75C132.655 27.8 131.08 28.8 131.08 30.775V32.925H142.605V35H128.88V30.775C128.88 29.825 129.08 29.025 129.48 28.325C129.88 27.65 130.405 27.125 131.105 26.775C131.805 26.425 132.53 26.15 133.305 25.975C134.055 25.825 134.905 25.725 135.805 25.725C136.305 25.725 136.83 25.675 137.33 25.575C137.83 25.475 138.355 25.325 138.855 25.1C139.355 24.875 139.755 24.55 140.055 24.1C140.355 23.675 140.53 23.15 140.53 22.55C140.53 21.4 140.08 20.55 139.205 20.025C138.305 19.525 137.23 19.25 135.93 19.2C134.655 19.2 133.555 19.45 132.605 19.95C131.655 20.45 131.18 21.25 131.18 22.35ZM148.475 17.5H150L160.725 30.9V17.5H162.875V35H161.375L150.625 21.65V35H148.475V17.5ZM174.543 27.9L167.768 17.575V17.5H170.418L175.668 25.8L181.043 17.5H183.693V17.575L176.793 27.9V35H174.543V27.9Z"/>
</mask>
<path d="M59.325 35V17.5H71.625V19.5H61.475V24.975H71.2V27H61.475V32.925H72.025V35H59.325ZM79.7842 17.5V32.975H89.3092V35H77.6092V17.5H79.7842ZM102.812 19.55H92.5367V17.5H105.337L105.512 18.9L96.7617 35H94.2867L102.812 19.55ZM114.586 17.5H117.036L124.886 35H122.536L120.811 31.15H110.811L109.111 35H106.736L114.586 17.5ZM119.961 29.15L115.811 19.7L111.661 29.15H119.961ZM131.18 22.35H129.005C129.03 21.425 129.255 20.625 129.68 19.925C130.08 19.25 130.63 18.725 131.33 18.35C132.005 18 132.73 17.725 133.48 17.55C134.23 17.4 135.055 17.3 135.93 17.3C136.78 17.3 137.605 17.4 138.355 17.575C139.105 17.775 139.83 18.05 140.505 18.45C141.155 18.85 141.68 19.375 142.08 20.075C142.48 20.775 142.68 21.6 142.68 22.525C142.68 23.475 142.48 24.3 142.08 25C141.68 25.7 141.155 26.25 140.505 26.65C139.83 27.05 139.105 27.325 138.33 27.5C137.555 27.675 136.73 27.75 135.83 27.75C132.655 27.8 131.08 28.8 131.08 30.775V32.925H142.605V35H128.88V30.775C128.88 29.825 129.08 29.025 129.48 28.325C129.88 27.65 130.405 27.125 131.105 26.775C131.805 26.425 132.53 26.15 133.305 25.975C134.055 25.825 134.905 25.725 135.805 25.725C136.305 25.725 136.83 25.675 137.33 25.575C137.83 25.475 138.355 25.325 138.855 25.1C139.355 24.875 139.755 24.55 140.055 24.1C140.355 23.675 140.53 23.15 140.53 22.55C140.53 21.4 140.08 20.55 139.205 20.025C138.305 19.525 137.23 19.25 135.93 19.2C134.655 19.2 133.555 19.45 132.605 19.95C131.655 20.45 131.18 21.25 131.18 22.35ZM148.475 17.5H150L160.725 30.9V17.5H162.875V35H161.375L150.625 21.65V35H148.475V17.5ZM174.543 27.9L167.768 17.575V17.5H170.418L175.668 25.8L181.043 17.5H183.693V17.575L176.793 27.9V35H174.543V27.9Z" fill="#1E1E1E"/>
<path d="M59.325 35H58.325V36H59.325V35ZM59.325 17.5V16.5H58.325V17.5H59.325ZM71.625 17.5H72.625V16.5H71.625V17.5ZM71.625 19.5V20.5H72.625V19.5H71.625ZM61.475 19.5V18.5H60.475V19.5H61.475ZM61.475 24.975H60.475V25.975H61.475V24.975ZM71.2 24.975H72.2V23.975H71.2V24.975ZM71.2 27V28H72.2V27H71.2ZM61.475 27V26H60.475V27H61.475ZM61.475 32.925H60.475V33.925H61.475V32.925ZM72.025 32.925H73.025V31.925H72.025V32.925ZM72.025 35V36H73.025V35H72.025ZM60.325 35V17.5H58.325V35H60.325ZM59.325 18.5H71.625V16.5H59.325V18.5ZM70.625 17.5V19.5H72.625V17.5H70.625ZM71.625 18.5H61.475V20.5H71.625V18.5ZM60.475 19.5V24.975H62.475V19.5H60.475ZM61.475 25.975H71.2V23.975H61.475V25.975ZM70.2 24.975V27H72.2V24.975H70.2ZM71.2 26H61.475V28H71.2V26ZM60.475 27V32.925H62.475V27H60.475ZM61.475 33.925H72.025V31.925H61.475V33.925ZM71.025 32.925V35H73.025V32.925H71.025ZM72.025 34H59.325V36H72.025V34ZM79.7842 17.5H80.7842V16.5H79.7842V17.5ZM79.7842 32.975H78.7842V33.975H79.7842V32.975ZM89.3092 32.975H90.3092V31.975H89.3092V32.975ZM89.3092 35V36H90.3092V35H89.3092ZM77.6092 35H76.6092V36H77.6092V35ZM77.6092 17.5V16.5H76.6092V17.5H77.6092ZM78.7842 17.5V32.975H80.7842V17.5H78.7842ZM79.7842 33.975H89.3092V31.975H79.7842V33.975ZM88.3092 32.975V35H90.3092V32.975H88.3092ZM89.3092 34H77.6092V36H89.3092V34ZM78.6092 35V17.5H76.6092V35H78.6092ZM77.6092 18.5H79.7842V16.5H77.6092V18.5ZM102.812 19.55L103.687 20.0331L104.506 18.55H102.812V19.55ZM92.5367 19.55H91.5367V20.55H92.5367V19.55ZM92.5367 17.5V16.5H91.5367V17.5H92.5367ZM105.337 17.5L106.329 17.376L106.22 16.5H105.337V17.5ZM105.512 18.9L106.39 19.3775L106.544 19.095L106.504 18.776L105.512 18.9ZM96.7617 35V36H97.3564L97.6403 35.4775L96.7617 35ZM94.2867 35L93.4112 34.5169L92.5928 36H94.2867V35ZM102.812 18.55H92.5367V20.55H102.812V18.55ZM93.5367 19.55V17.5H91.5367V19.55H93.5367ZM92.5367 18.5H105.337V16.5H92.5367V18.5ZM104.344 17.624L104.519 19.024L106.504 18.776L106.329 17.376L104.344 17.624ZM104.633 18.4225L95.8831 34.5225L97.6403 35.4775L106.39 19.3775L104.633 18.4225ZM96.7617 34H94.2867V36H96.7617V34ZM95.1623 35.4831L103.687 20.0331L101.936 19.0669L93.4112 34.5169L95.1623 35.4831ZM114.586 17.5V16.5H113.938L113.673 17.0907L114.586 17.5ZM117.036 17.5L117.948 17.0907L117.683 16.5H117.036V17.5ZM124.886 35V36H126.43L125.798 34.5907L124.886 35ZM122.536 35L121.623 35.4089L121.888 36H122.536V35ZM120.811 31.15L121.723 30.7411L121.458 30.15H120.811V31.15ZM110.811 31.15V30.15H110.159L109.896 30.7461L110.811 31.15ZM109.111 35V36H109.762L110.025 35.4039L109.111 35ZM106.736 35L105.823 34.5907L105.191 36H106.736V35ZM119.961 29.15V30.15H121.492L120.876 28.7479L119.961 29.15ZM115.811 19.7L116.726 19.2979L115.811 17.213L114.895 19.2979L115.811 19.7ZM111.661 29.15L110.745 28.7479L110.129 30.15H111.661V29.15ZM114.586 18.5H117.036V16.5H114.586V18.5ZM116.123 17.9093L123.973 35.4093L125.798 34.5907L117.948 17.0907L116.123 17.9093ZM124.886 34H122.536V36H124.886V34ZM123.448 34.5911L121.723 30.7411L119.898 31.5589L121.623 35.4089L123.448 34.5911ZM120.811 30.15H110.811V32.15H120.811V30.15ZM109.896 30.7461L108.196 34.5961L110.025 35.4039L111.725 31.5539L109.896 30.7461ZM109.111 34H106.736V36H109.111V34ZM107.648 35.4093L115.498 17.9093L113.673 17.0907L105.823 34.5907L107.648 35.4093ZM120.876 28.7479L116.726 19.2979L114.895 20.1021L119.045 29.5521L120.876 28.7479ZM114.895 19.2979L110.745 28.7479L112.576 29.5521L116.726 20.1021L114.895 19.2979ZM111.661 30.15H119.961V28.15H111.661V30.15ZM131.18 22.35V23.35H132.18V22.35H131.18ZM129.005 22.35L128.005 22.323L127.977 23.35H129.005V22.35ZM129.68 19.925L130.535 20.444L130.54 20.4348L129.68 19.925ZM131.33 18.35L130.869 17.4622L130.857 17.4685L131.33 18.35ZM133.48 17.55L133.284 16.5694L133.268 16.5725L133.252 16.5762L133.48 17.55ZM138.355 17.575L138.612 16.6088L138.597 16.6047L138.582 16.6012L138.355 17.575ZM140.505 18.45L141.029 17.5983L141.022 17.594L141.014 17.5897L140.505 18.45ZM142.08 20.075L141.211 20.5711L141.211 20.5711L142.08 20.075ZM142.08 25L141.211 24.5039L141.211 24.5039L142.08 25ZM140.505 26.65L141.014 27.5103L141.022 27.506L141.029 27.5017L140.505 26.65ZM138.33 27.5L138.109 26.5246L138.109 26.5246L138.33 27.5ZM135.83 27.75V26.75H135.822L135.814 26.7501L135.83 27.75ZM131.08 32.925H130.08V33.925H131.08V32.925ZM142.605 32.925H143.605V31.925H142.605V32.925ZM142.605 35V36H143.605V35H142.605ZM128.88 35H127.88V36H128.88V35ZM129.48 28.325L128.619 27.8152L128.615 27.822L128.611 27.8289L129.48 28.325ZM131.105 26.775L131.552 27.6694L131.552 27.6694L131.105 26.775ZM133.305 25.975L133.109 24.9944L133.096 24.9968L133.084 24.9996L133.305 25.975ZM137.33 25.575L137.526 26.5556L137.526 26.5556L137.33 25.575ZM138.855 25.1L138.444 24.1881L138.444 24.1881L138.855 25.1ZM140.055 24.1L139.238 23.5233L139.23 23.5342L139.223 23.5453L140.055 24.1ZM139.205 20.025L139.719 19.1675L139.705 19.1589L139.69 19.1508L139.205 20.025ZM135.93 19.2L135.968 18.2007L135.949 18.2H135.93V19.2ZM132.605 19.95L132.139 19.0651L132.139 19.0651L132.605 19.95ZM131.18 21.35H129.005V23.35H131.18V21.35ZM130.004 22.377C130.025 21.6057 130.21 20.9791 130.534 20.444L128.825 19.406C128.3 20.2709 128.034 21.2443 128.005 22.323L130.004 22.377ZM130.54 20.4348C130.846 19.9188 131.261 19.5214 131.802 19.2315L130.857 17.4685C129.999 17.9286 129.314 18.5812 128.819 19.4152L130.54 20.4348ZM131.79 19.2378C132.396 18.9235 133.043 18.6787 133.707 18.5238L133.252 16.5762C132.416 16.7713 131.613 17.0765 130.869 17.4622L131.79 19.2378ZM133.676 18.5306C134.372 18.3914 135.131 18.3 135.93 18.3V16.3C134.979 16.3 134.088 16.4086 133.284 16.5694L133.676 18.5306ZM135.93 18.3C136.703 18.3 137.452 18.3911 138.127 18.5488L138.582 16.6012C137.758 16.4089 136.857 16.3 135.93 16.3V18.3ZM138.097 18.5412C138.782 18.724 139.417 18.9681 139.995 19.3103L141.014 17.5897C140.242 17.1319 139.427 16.826 138.612 16.6088L138.097 18.5412ZM139.981 19.3017C140.493 19.6171 140.898 20.0219 141.211 20.5711L142.948 19.5789C142.462 18.7281 141.816 18.0829 141.029 17.5983L139.981 19.3017ZM141.211 20.5711C141.512 21.097 141.68 21.7454 141.68 22.525H143.68C143.68 21.4546 143.447 20.453 142.948 19.5789L141.211 20.5711ZM141.68 22.525C141.68 23.3322 141.511 23.9799 141.211 24.5039L142.948 25.4961C143.449 24.6201 143.68 23.6178 143.68 22.525H141.68ZM141.211 24.5039C140.89 25.0669 140.48 25.4911 139.981 25.7983L141.029 27.5017C141.83 27.0089 142.47 26.3331 142.948 25.4961L141.211 24.5039ZM139.995 25.7897C139.419 26.1308 138.794 26.37 138.109 26.5246L138.55 28.4754C139.415 28.28 140.24 27.9692 141.014 27.5103L139.995 25.7897ZM138.109 26.5246C137.423 26.6795 136.675 26.75 135.83 26.75V28.75C136.784 28.75 137.686 28.6705 138.55 28.4754L138.109 26.5246ZM135.814 26.7501C134.156 26.7762 132.748 27.0473 131.727 27.697C130.629 28.3955 130.08 29.4683 130.08 30.775H132.08C132.08 30.1067 132.317 29.692 132.801 29.3843C133.361 29.0277 134.328 28.7738 135.845 28.7499L135.814 26.7501ZM130.08 30.775V32.925H132.08V30.775H130.08ZM131.08 33.925H142.605V31.925H131.08V33.925ZM141.605 32.925V35H143.605V32.925H141.605ZM142.605 34H128.88V36H142.605V34ZM129.88 35V30.775H127.88V35H129.88ZM129.88 30.775C129.88 29.973 130.046 29.349 130.348 28.8211L128.611 27.8289C128.113 28.701 127.88 29.677 127.88 30.775H129.88ZM130.34 28.8348C130.655 28.303 131.045 27.9228 131.552 27.6694L130.657 25.8806C129.764 26.3272 129.104 26.997 128.619 27.8152L130.34 28.8348ZM131.552 27.6694C132.191 27.3497 132.84 27.105 133.525 26.9504L133.084 24.9996C132.219 25.195 131.418 25.5003 130.657 25.8806L131.552 27.6694ZM133.501 26.9556C134.194 26.817 134.978 26.725 135.805 26.725V24.725C134.832 24.725 133.916 24.833 133.109 24.9944L133.501 26.9556ZM135.805 26.725C136.369 26.725 136.959 26.6689 137.526 26.5556L137.134 24.5944C136.7 24.6811 136.241 24.725 135.805 24.725V26.725ZM137.526 26.5556C138.08 26.4448 138.68 26.2751 139.265 26.0119L138.444 24.1881C138.029 24.3749 137.58 24.5052 137.134 24.5944L137.526 26.5556ZM139.265 26.0119C139.922 25.7163 140.474 25.2737 140.887 24.6547L139.223 23.5453C139.035 23.8263 138.787 24.0337 138.444 24.1881L139.265 26.0119ZM140.872 24.6767C141.294 24.0787 141.53 23.3512 141.53 22.55H139.53C139.53 22.9488 139.416 23.2713 139.238 23.5233L140.872 24.6767ZM141.53 22.55C141.53 21.0976 140.935 19.897 139.719 19.1675L138.69 20.8825C139.224 21.203 139.53 21.7024 139.53 22.55H141.53ZM139.69 19.1508C138.625 18.5588 137.389 18.2554 135.968 18.2007L135.891 20.1993C137.071 20.2446 137.985 20.4912 138.719 20.8992L139.69 19.1508ZM135.93 18.2C134.521 18.2 133.256 18.4772 132.139 19.0651L133.07 20.8349C133.854 20.4228 134.788 20.2 135.93 20.2V18.2ZM132.139 19.0651C131.526 19.3876 131.022 19.8325 130.676 20.4145C130.331 20.9951 130.18 21.6533 130.18 22.35H132.18C132.18 21.9467 132.266 21.6549 132.396 21.4355C132.525 21.2175 132.733 21.0124 133.07 20.8349L132.139 19.0651ZM148.475 17.5V16.5H147.475V17.5H148.475ZM150 17.5L150.781 16.8751L150.481 16.5H150V17.5ZM160.725 30.9L159.945 31.5249L161.725 33.7497V30.9H160.725ZM160.725 17.5V16.5H159.725V17.5H160.725ZM162.875 17.5H163.875V16.5H162.875V17.5ZM162.875 35V36H163.875V35H162.875ZM161.375 35L160.597 35.6272L160.897 36H161.375V35ZM150.625 21.65L151.404 21.0228L149.625 18.8137V21.65H150.625ZM150.625 35V36H151.625V35H150.625ZM148.475 35H147.475V36H148.475V35ZM148.475 18.5H150V16.5H148.475V18.5ZM149.22 18.1249L159.945 31.5249L161.506 30.2751L150.781 16.8751L149.22 18.1249ZM161.725 30.9V17.5H159.725V30.9H161.725ZM160.725 18.5H162.875V16.5H160.725V18.5ZM161.875 17.5V35H163.875V17.5H161.875ZM162.875 34H161.375V36H162.875V34ZM162.154 34.3728L151.404 21.0228L149.847 22.2772L160.597 35.6272L162.154 34.3728ZM149.625 21.65V35H151.625V21.65H149.625ZM150.625 34H148.475V36H150.625V34ZM149.475 35V17.5H147.475V35H149.475ZM174.543 27.9H175.543V27.6012L175.379 27.3514L174.543 27.9ZM167.768 17.575H166.768V17.8738L166.932 18.1236L167.768 17.575ZM167.768 17.5V16.5H166.768V17.5H167.768ZM170.418 17.5L171.263 16.9654L170.969 16.5H170.418V17.5ZM175.668 25.8L174.823 26.3346L175.658 27.655L176.508 26.3436L175.668 25.8ZM181.043 17.5V16.5H180.5L180.204 16.9564L181.043 17.5ZM183.693 17.5H184.693V16.5H183.693V17.5ZM183.693 17.575L184.525 18.1306L184.693 17.8784V17.575H183.693ZM176.793 27.9L175.962 27.3444L175.793 27.5966V27.9H176.793ZM176.793 35V36H177.793V35H176.793ZM174.543 35H173.543V36H174.543V35ZM175.379 27.3514L168.604 17.0264L166.932 18.1236L173.707 28.4486L175.379 27.3514ZM168.768 17.575V17.5H166.768V17.575H168.768ZM167.768 18.5H170.418V16.5H167.768V18.5ZM169.573 18.0346L174.823 26.3346L176.513 25.2654L171.263 16.9654L169.573 18.0346ZM176.508 26.3436L181.883 18.0436L180.204 16.9564L174.829 25.2564L176.508 26.3436ZM181.043 18.5H183.693V16.5H181.043V18.5ZM182.693 17.5V17.575H184.693V17.5H182.693ZM182.862 17.0194L175.962 27.3444L177.625 28.4556L184.525 18.1306L182.862 17.0194ZM175.793 27.9V35H177.793V27.9H175.793ZM176.793 34H174.543V36H176.793V34ZM175.543 35V27.9H173.543V35H175.543Z" fill="#1E1E1E" mask="url(#path-14-outside-3_468_75)"/>
</svg>
