<svg xmlns="http://www.w3.org/2000/svg" enable-background="new 0 0 70 70" viewBox="0 0 70 70" id="edit"><path d="M51.8120728,12.3212891C50.960022,11.46875,49.8296509,11,48.628479,11s-2.3320313,0.4697266-3.1835938,1.3212891
	l-5.2915039,5.2910156L17.3853149,40.3808594c-0.0008545,0.0008545-0.0020752,0.0010986-0.0029297,0.0019531
	s-0.0010986,0.0020752-0.0019531,0.0029297l0,0c-0.000061,0.000061-0.0001221,0.0001831-0.0001831,0.0002441
	c-0.1018677,0.1026611-0.173584,0.222168-0.2218018,0.3491211c-0.0026855,0.007019-0.0093384,0.0117188-0.0119019,0.0187988
	l-6.0874023,16.9072266c-0.1313477,0.3642578-0.0400391,0.7724609,0.2338867,1.0458984
	C11.4839478,58.8974609,11.7393188,59,12.000061,59c0.1137695,0,0.2280273-0.0195313,0.3388672-0.0595703l16.9072266-6.0869141
	c0.0075684-0.0027466,0.0126343-0.0098267,0.0201416-0.0127563c0.1107178-0.0422974,0.2119141-0.1101685,0.3048096-0.1932373
	c0.0128174-0.0115967,0.0310059-0.0151367,0.0432129-0.0274048l22.7734375-22.7734375l5.2910156-5.2910156
	c0.8520508-0.8515625,1.3212891-1.9824219,1.3212891-3.1835938c0-1.2021484-0.4692383-2.3320313-1.3212891-3.1835938
	L51.8120728,12.3212891z M17.6860962,52.3134766c-0.6071167-0.6071167-1.3022461-1.0776978-2.0658569-1.416748l2.8756104-7.9863892
	l8.5941162,8.5941162l-7.9868164,2.8751831C18.7631226,53.614624,18.2924805,52.9194946,17.6860962,52.3134766z
	 M19.5039673,41.090332l21.3564453-21.3569336l3.9960938,3.9960938L23.4995728,45.0859375L19.5039673,41.090332z
	 M14.9418945,52.7807007c0.487854,0.2351074,0.9342041,0.5509033,1.3301392,0.9468384
	c0.3952637,0.3952637,0.7113647,0.8414917,0.9472656,1.3302612l-3.5585938,1.2810669L14.9418945,52.7807007z M28.9099731,50.4963379
	L24.9136353,46.5l21.3569336-21.3564453l3.9960938,3.9960938L28.9099731,50.4963379z M56.2647095,23.1416016l-4.5839844,4.5839844
	l-9.40625-9.40625l4.5844727-4.5839844c0.9472656-0.9492188,2.5898438-0.9501953,3.5390625,0l5.8666992,5.8671875
	c0.4741211,0.4736328,0.7353516,1.1025391,0.7353516,1.7695313S56.7388306,22.6669922,56.2647095,23.1416016z"></path></svg>