<svg id="Layer_1" data-name="Layer 1" xmlns="http://www.w3.org/2000/svg" viewBox="0 0 30.81 39.23"><defs><style>.cls-1{fill-rule:evenodd;}.cls-2{fill:none;}.cls-2,.cls-3{stroke:#000;stroke-miterlimit:10;}.cls-3{stroke-width:1.24px;}</style></defs><path class="cls-1" d="M23,6.77V41.23l11-3.67V10.44Zm-.68-2.33A1,1,0,0,0,21,5.39V42.61a1,1,0,0,0,1.32,1l13-4.33a1,1,0,0,0,.68-.95V9.72a1,1,0,0,0-.68-1Z" transform="translate(-5.19 -4.39)"/><path class="cls-1" d="M21,8H12V39h9V37H14V10h7Z" transform="translate(-5.19 -4.39)"/><line class="cls-2" x1="12.32" y1="19.61" y2="19.61"/><path class="cls-3" d="M18,26.09l1.9-1.91a.25.25,0,0,0,0-.36L18,21.91a.26.26,0,0,0-.45.19v3.8A.26.26,0,0,0,18,26.09Z" transform="translate(-5.19 -4.39)"/></svg>