<svg id="Layer_1" data-name="Layer 1" xmlns="http://www.w3.org/2000/svg" viewBox="0 0 30.65 39.23"><defs><style>.cls-1{fill-rule:evenodd;}.cls-2,.cls-3{stroke:#000;stroke-miterlimit:10;}.cls-2{stroke-width:1.24px;}.cls-3{fill:none;}</style></defs><path class="cls-1" d="M23,6.77V41.23l11-3.67V10.44Zm-.68-2.33A1,1,0,0,0,21,5.39V42.61a1,1,0,0,0,1.32,1l13-4.33a1,1,0,0,0,.68-.95V9.72a1,1,0,0,0-.68-1Z" transform="translate(-5.35 -4.39)"/><path class="cls-1" d="M21,8H12V39h9V37H14V10h7Z" transform="translate(-5.35 -4.39)"/><path class="cls-2" d="M8,26.22l-1.9-1.91a.25.25,0,0,1,0-.37L8,22a.26.26,0,0,1,.44.18V26A.26.26,0,0,1,8,26.22Z" transform="translate(-5.35 -4.39)"/><line class="cls-3" x1="13.44" y1="19.61" x2="1.12" y2="19.61"/></svg>