<svg width="190" height="48" viewBox="0 0 190 48" fill="none" xmlns="http://www.w3.org/2000/svg">
<circle cx="24.0525" cy="24.0525" r="22.4209" stroke="#064C58" stroke-width="2.73682"/>
<mask id="mask0_468_77" style="mask-type:alpha" maskUnits="userSpaceOnUse" x="4" y="4" width="40" height="40">
<circle cx="24.1052" cy="24.1049" r="19.2104" fill="#77DE8D"/>
</mask>
<g mask="url(#mask0_468_77)">
<rect x="-0.894775" y="-3.21045" width="25.0525" height="49.3681" fill="#77DE8D"/>
</g>
<mask id="mask1_468_77" style="mask-type:alpha" maskUnits="userSpaceOnUse" x="4" y="4" width="40" height="40">
<circle cx="24.105" cy="24.105" r="19.2104" transform="rotate(-180 24.105 24.105)" fill="#86CCEA"/>
</mask>
<g mask="url(#mask1_468_77)">
<rect x="49.105" y="51.4209" width="25.0525" height="49.3681" transform="rotate(-180 49.105 51.4209)" fill="#86CCEA"/>
</g>
<mask id="path-6-outside-1_468_77" maskUnits="userSpaceOnUse" x="8.99976" y="8.99951" width="30" height="30" fill="black">
<rect fill="white" x="8.99976" y="8.99951" width="30" height="30"/>
<path fill-rule="evenodd" clip-rule="evenodd" d="M24.0524 36.9995C26.4359 36.9995 28.3682 35.0673 28.3682 32.6838L28.3682 27.8419L32.6314 27.8419C35.044 27.8419 36.9998 25.8861 36.9998 23.4735C36.9998 21.0609 35.044 19.1051 32.6314 19.1051L28.3682 19.1051L28.3682 15.526C28.3682 13.1424 26.4359 11.2102 24.0524 11.2102C21.6689 11.2102 19.7367 13.1424 19.7367 15.526L19.7367 19.1051L15.5788 19.1051C13.1663 19.1051 11.2105 21.0609 11.2105 23.4735C11.2105 25.8861 13.1663 27.8419 15.5788 27.8419L19.7367 27.8419L19.7367 32.6838C19.7367 35.0673 21.6689 36.9995 24.0524 36.9995Z"/>
</mask>
<path fill-rule="evenodd" clip-rule="evenodd" d="M24.0524 36.9995C26.4359 36.9995 28.3682 35.0673 28.3682 32.6838L28.3682 27.8419L32.6314 27.8419C35.044 27.8419 36.9998 25.8861 36.9998 23.4735C36.9998 21.0609 35.044 19.1051 32.6314 19.1051L28.3682 19.1051L28.3682 15.526C28.3682 13.1424 26.4359 11.2102 24.0524 11.2102C21.6689 11.2102 19.7367 13.1424 19.7367 15.526L19.7367 19.1051L15.5788 19.1051C13.1663 19.1051 11.2105 21.0609 11.2105 23.4735C11.2105 25.8861 13.1663 27.8419 15.5788 27.8419L19.7367 27.8419L19.7367 32.6838C19.7367 35.0673 21.6689 36.9995 24.0524 36.9995Z" fill="#77DE8D"/>
<path d="M28.3682 32.6838L27.105 32.6838L28.3682 32.6838ZM28.3682 27.8419L28.3682 26.5787L27.105 26.5787L27.105 27.8419L28.3682 27.8419ZM32.6314 27.8419L32.6314 29.105L32.6314 27.8419ZM28.3682 19.1051L27.105 19.1051L27.105 20.3683L28.3682 20.3683L28.3682 19.1051ZM19.7367 19.1051L19.7367 20.3683L20.9998 20.3683L20.9998 19.1051L19.7367 19.1051ZM15.5788 19.1051L15.5788 20.3682L15.5788 19.1051ZM15.5788 27.8419L15.5788 29.105L15.5788 27.8419ZM19.7367 27.8419L20.9998 27.8419L20.9998 26.5787L19.7367 26.5787L19.7367 27.8419ZM27.105 32.6838C27.105 34.3697 25.7383 35.7364 24.0524 35.7364L24.0524 38.2627C27.1336 38.2627 29.6313 35.7649 29.6313 32.6838L27.105 32.6838ZM27.105 27.8419L27.105 32.6838L29.6313 32.6838L29.6313 27.8419L27.105 27.8419ZM32.6314 26.5787L28.3682 26.5787L28.3682 29.105L32.6314 29.105L32.6314 26.5787ZM35.7366 23.4735C35.7366 25.1885 34.3463 26.5787 32.6314 26.5787L32.6314 29.105C35.7416 29.105 38.2629 26.5837 38.2629 23.4735L35.7366 23.4735ZM32.6314 20.3683C34.3463 20.3683 35.7366 21.7585 35.7366 23.4735L38.2629 23.4735C38.2629 20.3633 35.7416 17.842 32.6314 17.842L32.6314 20.3683ZM28.3682 20.3683L32.6314 20.3683L32.6314 17.842L28.3682 17.842L28.3682 20.3683ZM27.105 15.526L27.105 19.1051L29.6313 19.1051L29.6313 15.526L27.105 15.526ZM24.0524 12.4734C25.7383 12.4734 27.105 13.8401 27.105 15.526L29.6313 15.526C29.6313 12.4448 27.1336 9.94706 24.0524 9.94706L24.0524 12.4734ZM20.9998 15.526C20.9998 13.8401 22.3665 12.4734 24.0524 12.4734L24.0524 9.94706C20.9713 9.94706 18.4735 12.4448 18.4735 15.526L20.9998 15.526ZM20.9998 19.1051L20.9998 15.526L18.4735 15.526L18.4735 19.1051L20.9998 19.1051ZM15.5788 20.3682L19.7367 20.3683L19.7367 17.842L15.5788 17.842L15.5788 20.3682ZM12.4736 23.4735C12.4736 21.7585 13.8639 20.3682 15.5788 20.3682L15.5788 17.842C12.4686 17.842 9.94731 20.3633 9.94731 23.4735L12.4736 23.4735ZM15.5788 26.5787C13.8639 26.5787 12.4736 25.1885 12.4736 23.4735L9.94731 23.4735C9.94731 26.5837 12.4686 29.105 15.5788 29.105L15.5788 26.5787ZM19.7367 26.5787L15.5788 26.5787L15.5788 29.105L19.7367 29.105L19.7367 26.5787ZM20.9998 32.6838L20.9998 27.8419L18.4735 27.8419L18.4735 32.6838L20.9998 32.6838ZM24.0524 35.7364C22.3665 35.7364 20.9998 34.3697 20.9998 32.6838L18.4735 32.6838C18.4735 35.7649 20.9713 38.2627 24.0524 38.2627L24.0524 35.7364Z" fill="white" mask="url(#path-6-outside-1_468_77)"/>
<mask id="mask2_468_77" style="mask-type:alpha" maskUnits="userSpaceOnUse" x="11" y="11" width="26" height="26">
<mask id="path-8-inside-2_468_77" fill="white">
<path fill-rule="evenodd" clip-rule="evenodd" d="M24.0524 36.9995C26.4359 36.9995 28.3682 35.0673 28.3682 32.6838L28.3682 27.8419L32.6314 27.8419C35.044 27.8419 36.9998 25.8861 36.9998 23.4735C36.9998 21.0609 35.044 19.1051 32.6314 19.1051L28.3682 19.1051L28.3682 15.526C28.3682 13.1424 26.4359 11.2102 24.0524 11.2102C21.6689 11.2102 19.7367 13.1424 19.7367 15.526L19.7367 19.1051L15.5788 19.1051C13.1663 19.1051 11.2105 21.0609 11.2105 23.4735C11.2105 25.8861 13.1663 27.8419 15.5788 27.8419L19.7367 27.8419L19.7367 32.6838C19.7367 35.0673 21.6689 36.9995 24.0524 36.9995Z"/>
</mask>
<path fill-rule="evenodd" clip-rule="evenodd" d="M24.0524 36.9995C26.4359 36.9995 28.3682 35.0673 28.3682 32.6838L28.3682 27.8419L32.6314 27.8419C35.044 27.8419 36.9998 25.8861 36.9998 23.4735C36.9998 21.0609 35.044 19.1051 32.6314 19.1051L28.3682 19.1051L28.3682 15.526C28.3682 13.1424 26.4359 11.2102 24.0524 11.2102C21.6689 11.2102 19.7367 13.1424 19.7367 15.526L19.7367 19.1051L15.5788 19.1051C13.1663 19.1051 11.2105 21.0609 11.2105 23.4735C11.2105 25.8861 13.1663 27.8419 15.5788 27.8419L19.7367 27.8419L19.7367 32.6838C19.7367 35.0673 21.6689 36.9995 24.0524 36.9995Z" fill="#86CCEA"/>
<path d="M28.3682 32.6838L27.105 32.6838L28.3682 32.6838ZM28.3682 27.8419L28.3682 26.5787L27.105 26.5787L27.105 27.8419L28.3682 27.8419ZM32.6314 27.8419L32.6314 29.105L32.6314 27.8419ZM28.3682 19.1051L27.105 19.1051L27.105 20.3683L28.3682 20.3683L28.3682 19.1051ZM19.7367 19.1051L19.7367 20.3683L20.9998 20.3683L20.9998 19.1051L19.7367 19.1051ZM15.5788 19.1051L15.5788 20.3682L15.5788 19.1051ZM15.5788 27.8419L15.5788 29.105L15.5788 27.8419ZM19.7367 27.8419L20.9998 27.8419L20.9998 26.5787L19.7367 26.5787L19.7367 27.8419ZM27.105 32.6838C27.105 34.3697 25.7383 35.7364 24.0524 35.7364L24.0524 38.2627C27.1336 38.2627 29.6313 35.7649 29.6313 32.6838L27.105 32.6838ZM27.105 27.8419L27.105 32.6838L29.6313 32.6838L29.6313 27.8419L27.105 27.8419ZM32.6314 26.5787L28.3682 26.5787L28.3682 29.105L32.6314 29.105L32.6314 26.5787ZM35.7366 23.4735C35.7366 25.1885 34.3463 26.5787 32.6314 26.5787L32.6314 29.105C35.7416 29.105 38.2629 26.5837 38.2629 23.4735L35.7366 23.4735ZM32.6314 20.3683C34.3463 20.3683 35.7366 21.7585 35.7366 23.4735L38.2629 23.4735C38.2629 20.3633 35.7416 17.842 32.6314 17.842L32.6314 20.3683ZM28.3682 20.3683L32.6314 20.3683L32.6314 17.842L28.3682 17.842L28.3682 20.3683ZM27.105 15.526L27.105 19.1051L29.6313 19.1051L29.6313 15.526L27.105 15.526ZM24.0524 12.4734C25.7383 12.4734 27.105 13.8401 27.105 15.526L29.6313 15.526C29.6313 12.4448 27.1336 9.94706 24.0524 9.94706L24.0524 12.4734ZM20.9998 15.526C20.9998 13.8401 22.3665 12.4734 24.0524 12.4734L24.0524 9.94706C20.9713 9.94706 18.4735 12.4448 18.4735 15.526L20.9998 15.526ZM20.9998 19.1051L20.9998 15.526L18.4735 15.526L18.4735 19.1051L20.9998 19.1051ZM15.5788 20.3682L19.7367 20.3683L19.7367 17.842L15.5788 17.842L15.5788 20.3682ZM12.4736 23.4735C12.4736 21.7585 13.8639 20.3682 15.5788 20.3682L15.5788 17.842C12.4686 17.842 9.94731 20.3633 9.94731 23.4735L12.4736 23.4735ZM15.5788 26.5787C13.8639 26.5787 12.4736 25.1885 12.4736 23.4735L9.94731 23.4735C9.94731 26.5837 12.4686 29.105 15.5788 29.105L15.5788 26.5787ZM19.7367 26.5787L15.5788 26.5787L15.5788 29.105L19.7367 29.105L19.7367 26.5787ZM20.9998 32.6838L20.9998 27.8419L18.4735 27.8419L18.4735 32.6838L20.9998 32.6838ZM24.0524 35.7364C22.3665 35.7364 20.9998 34.3697 20.9998 32.6838L18.4735 32.6838C18.4735 35.7649 20.9713 38.2627 24.0524 38.2627L24.0524 35.7364Z" fill="white" mask="url(#path-8-inside-2_468_77)"/>
</mask>
<g mask="url(#mask2_468_77)">
<rect x="41.2102" y="43.3154" width="17.0525" height="36.5261" transform="rotate(-180 41.2102 43.3154)" fill="#86CCEA"/>
</g>
<path d="M13.6316 21.7365C14.0743 20.8978 14.4274 20.586 15.4211 20.5786" stroke="white" stroke-width="0.8421" stroke-linecap="round"/>
<path d="M34.7893 25.4207C34.3466 26.2595 33.9935 26.5712 32.9998 26.5786" stroke="white" stroke-width="0.8421" stroke-linecap="round"/>
<line x1="24.162" y1="38.159" x2="24.0525" y2="11.0013" stroke="#FFFDFD" stroke-width="0.631575"/>
<mask id="path-14-outside-3_468_77" maskUnits="userSpaceOnUse" x="58" y="7" width="127" height="20" fill="black">
<rect fill="white" x="58" y="7" width="127" height="20"/>
<path d="M59.325 26V8.5H71.625V10.5H61.475V15.975H71.2V18H61.475V23.925H72.025V26H59.325ZM79.7842 8.5V23.975H89.3092V26H77.6092V8.5H79.7842ZM102.812 10.55H92.5367V8.5H105.337L105.512 9.9L96.7617 26H94.2867L102.812 10.55ZM114.586 8.5H117.036L124.886 26H122.536L120.811 22.15H110.811L109.111 26H106.736L114.586 8.5ZM119.961 20.15L115.811 10.7L111.661 20.15H119.961ZM131.18 13.35H129.005C129.03 12.425 129.255 11.625 129.68 10.925C130.08 10.25 130.63 9.725 131.33 9.35C132.005 9 132.73 8.725 133.48 8.55C134.23 8.4 135.055 8.3 135.93 8.3C136.78 8.3 137.605 8.4 138.355 8.575C139.105 8.775 139.83 9.05 140.505 9.45C141.155 9.85 141.68 10.375 142.08 11.075C142.48 11.775 142.68 12.6 142.68 13.525C142.68 14.475 142.48 15.3 142.08 16C141.68 16.7 141.155 17.25 140.505 17.65C139.83 18.05 139.105 18.325 138.33 18.5C137.555 18.675 136.73 18.75 135.83 18.75C132.655 18.8 131.08 19.8 131.08 21.775V23.925H142.605V26H128.88V21.775C128.88 20.825 129.08 20.025 129.48 19.325C129.88 18.65 130.405 18.125 131.105 17.775C131.805 17.425 132.53 17.15 133.305 16.975C134.055 16.825 134.905 16.725 135.805 16.725C136.305 16.725 136.83 16.675 137.33 16.575C137.83 16.475 138.355 16.325 138.855 16.1C139.355 15.875 139.755 15.55 140.055 15.1C140.355 14.675 140.53 14.15 140.53 13.55C140.53 12.4 140.08 11.55 139.205 11.025C138.305 10.525 137.23 10.25 135.93 10.2C134.655 10.2 133.555 10.45 132.605 10.95C131.655 11.45 131.18 12.25 131.18 13.35ZM148.475 8.5H150L160.725 21.9V8.5H162.875V26H161.375L150.625 12.65V26H148.475V8.5ZM174.543 18.9L167.768 8.575V8.5H170.418L175.668 16.8L181.043 8.5H183.693V8.575L176.793 18.9V26H174.543V18.9Z"/>
</mask>
<path d="M59.325 26V8.5H71.625V10.5H61.475V15.975H71.2V18H61.475V23.925H72.025V26H59.325ZM79.7842 8.5V23.975H89.3092V26H77.6092V8.5H79.7842ZM102.812 10.55H92.5367V8.5H105.337L105.512 9.9L96.7617 26H94.2867L102.812 10.55ZM114.586 8.5H117.036L124.886 26H122.536L120.811 22.15H110.811L109.111 26H106.736L114.586 8.5ZM119.961 20.15L115.811 10.7L111.661 20.15H119.961ZM131.18 13.35H129.005C129.03 12.425 129.255 11.625 129.68 10.925C130.08 10.25 130.63 9.725 131.33 9.35C132.005 9 132.73 8.725 133.48 8.55C134.23 8.4 135.055 8.3 135.93 8.3C136.78 8.3 137.605 8.4 138.355 8.575C139.105 8.775 139.83 9.05 140.505 9.45C141.155 9.85 141.68 10.375 142.08 11.075C142.48 11.775 142.68 12.6 142.68 13.525C142.68 14.475 142.48 15.3 142.08 16C141.68 16.7 141.155 17.25 140.505 17.65C139.83 18.05 139.105 18.325 138.33 18.5C137.555 18.675 136.73 18.75 135.83 18.75C132.655 18.8 131.08 19.8 131.08 21.775V23.925H142.605V26H128.88V21.775C128.88 20.825 129.08 20.025 129.48 19.325C129.88 18.65 130.405 18.125 131.105 17.775C131.805 17.425 132.53 17.15 133.305 16.975C134.055 16.825 134.905 16.725 135.805 16.725C136.305 16.725 136.83 16.675 137.33 16.575C137.83 16.475 138.355 16.325 138.855 16.1C139.355 15.875 139.755 15.55 140.055 15.1C140.355 14.675 140.53 14.15 140.53 13.55C140.53 12.4 140.08 11.55 139.205 11.025C138.305 10.525 137.23 10.25 135.93 10.2C134.655 10.2 133.555 10.45 132.605 10.95C131.655 11.45 131.18 12.25 131.18 13.35ZM148.475 8.5H150L160.725 21.9V8.5H162.875V26H161.375L150.625 12.65V26H148.475V8.5ZM174.543 18.9L167.768 8.575V8.5H170.418L175.668 16.8L181.043 8.5H183.693V8.575L176.793 18.9V26H174.543V18.9Z" fill="#1E1E1E"/>
<path d="M59.325 26H58.325C58.325 26.5523 58.7727 27 59.325 27V26ZM59.325 8.5V7.5C58.7727 7.5 58.325 7.94771 58.325 8.5H59.325ZM71.625 8.5H72.625C72.625 7.94771 72.1773 7.5 71.625 7.5V8.5ZM71.625 10.5V11.5C72.1773 11.5 72.625 11.0523 72.625 10.5H71.625ZM61.475 10.5V9.5C60.9227 9.5 60.475 9.94772 60.475 10.5H61.475ZM61.475 15.975H60.475C60.475 16.5273 60.9227 16.975 61.475 16.975V15.975ZM71.2 15.975H72.2C72.2 15.4227 71.7523 14.975 71.2 14.975V15.975ZM71.2 18V19C71.7523 19 72.2 18.5523 72.2 18H71.2ZM61.475 18V17C60.9227 17 60.475 17.4477 60.475 18H61.475ZM61.475 23.925H60.475C60.475 24.4773 60.9227 24.925 61.475 24.925V23.925ZM72.025 23.925H73.025C73.025 23.3727 72.5773 22.925 72.025 22.925V23.925ZM72.025 26V27C72.5773 27 73.025 26.5523 73.025 26H72.025ZM60.325 26V8.5H58.325V26H60.325ZM59.325 9.5H71.625V7.5H59.325V9.5ZM70.625 8.5V10.5H72.625V8.5H70.625ZM71.625 9.5H61.475V11.5H71.625V9.5ZM60.475 10.5V15.975H62.475V10.5H60.475ZM61.475 16.975H71.2V14.975H61.475V16.975ZM70.2 15.975V18H72.2V15.975H70.2ZM71.2 17H61.475V19H71.2V17ZM60.475 18V23.925H62.475V18H60.475ZM61.475 24.925H72.025V22.925H61.475V24.925ZM71.025 23.925V26H73.025V23.925H71.025ZM72.025 25H59.325V27H72.025V25ZM79.7842 8.5H80.7842C80.7842 7.94771 80.3365 7.5 79.7842 7.5V8.5ZM79.7842 23.975H78.7842C78.7842 24.5273 79.2319 24.975 79.7842 24.975V23.975ZM89.3092 23.975H90.3092C90.3092 23.4227 89.8615 22.975 89.3092 22.975V23.975ZM89.3092 26V27C89.8615 27 90.3092 26.5523 90.3092 26H89.3092ZM77.6092 26H76.6092C76.6092 26.5523 77.0569 27 77.6092 27V26ZM77.6092 8.5V7.5C77.0569 7.5 76.6092 7.94771 76.6092 8.5H77.6092ZM78.7842 8.5V23.975H80.7842V8.5H78.7842ZM79.7842 24.975H89.3092V22.975H79.7842V24.975ZM88.3092 23.975V26H90.3092V23.975H88.3092ZM89.3092 25H77.6092V27H89.3092V25ZM78.6092 26V8.5H76.6092V26H78.6092ZM77.6092 9.5H79.7842V7.5H77.6092V9.5ZM102.812 10.55L103.687 11.0331C103.858 10.7233 103.853 10.3463 103.673 10.0416C103.493 9.73695 103.166 9.55 102.812 9.55V10.55ZM92.5367 10.55H91.5367C91.5367 11.1023 91.9844 11.55 92.5367 11.55V10.55ZM92.5367 8.5V7.5C91.9844 7.5 91.5367 7.94771 91.5367 8.5H92.5367ZM105.337 8.5L106.329 8.37596C106.266 7.87554 105.841 7.5 105.337 7.5V8.5ZM105.512 9.9L106.39 10.3775C106.49 10.1938 106.53 9.98343 106.504 9.77596L105.512 9.9ZM96.7617 26V27C97.1282 27 97.4653 26.7995 97.6403 26.4775L96.7617 26ZM94.2867 26L93.4112 25.5169C93.2402 25.8267 93.2457 26.2037 93.4256 26.5084C93.6054 26.813 93.9329 27 94.2867 27V26ZM102.812 9.55H92.5367V11.55H102.812V9.55ZM93.5367 10.55V8.5H91.5367V10.55H93.5367ZM92.5367 9.5H105.337V7.5H92.5367V9.5ZM104.344 8.62403L104.519 10.024L106.504 9.77596L106.329 8.37596L104.344 8.62403ZM104.633 9.42249L95.8831 25.5225L97.6403 26.4775L106.39 10.3775L104.633 9.42249ZM96.7617 25H94.2867V27H96.7617V25ZM95.1623 26.4831L103.687 11.0331L101.936 10.0669L93.4112 25.5169L95.1623 26.4831ZM114.586 8.5V7.5C114.192 7.5 113.834 7.73128 113.673 8.09072L114.586 8.5ZM117.036 8.5L117.948 8.09072C117.787 7.73128 117.429 7.5 117.036 7.5V8.5ZM124.886 26V27C125.225 27 125.541 26.8281 125.725 26.5435C125.909 26.2588 125.937 25.9001 125.798 25.5907L124.886 26ZM122.536 26L121.623 26.4089C121.784 26.7685 122.141 27 122.536 27V26ZM120.811 22.15L121.723 21.7411C121.562 21.3815 121.205 21.15 120.811 21.15V22.15ZM110.811 22.15V21.15C110.414 21.15 110.056 21.3838 109.896 21.7461L110.811 22.15ZM109.111 26V27C109.507 27 109.865 26.7662 110.025 26.4039L109.111 26ZM106.736 26L105.823 25.5907C105.684 25.9001 105.712 26.2588 105.896 26.5435C106.08 26.8281 106.396 27 106.736 27V26ZM119.961 20.15V21.15C120.298 21.15 120.613 20.9795 120.798 20.6968C120.982 20.414 121.012 20.0571 120.876 19.7479L119.961 20.15ZM115.811 10.7L116.726 10.2979C116.567 9.9346 116.207 9.7 115.811 9.7C115.414 9.7 115.054 9.9346 114.895 10.2979L115.811 10.7ZM111.661 20.15L110.745 19.7479C110.609 20.0571 110.639 20.414 110.823 20.6968C111.008 20.9795 111.323 21.15 111.661 21.15V20.15ZM114.586 9.5H117.036V7.5H114.586V9.5ZM116.123 8.90928L123.973 26.4093L125.798 25.5907L117.948 8.09072L116.123 8.90928ZM124.886 25H122.536V27H124.886V25ZM123.448 25.5911L121.723 21.7411L119.898 22.5589L121.623 26.4089L123.448 25.5911ZM120.811 21.15H110.811V23.15H120.811V21.15ZM109.896 21.7461L108.196 25.5961L110.025 26.4039L111.725 22.5539L109.896 21.7461ZM109.111 25H106.736V27H109.111V25ZM107.648 26.4093L115.498 8.90928L113.673 8.09072L105.823 25.5907L107.648 26.4093ZM120.876 19.7479L116.726 10.2979L114.895 11.1021L119.045 20.5521L120.876 19.7479ZM114.895 10.2979L110.745 19.7479L112.576 20.5521L116.726 11.1021L114.895 10.2979ZM111.661 21.15H119.961V19.15H111.661V21.15ZM131.18 13.35V14.35C131.732 14.35 132.18 13.9023 132.18 13.35H131.18ZM129.005 13.35L128.005 13.323C127.998 13.5928 128.1 13.8541 128.288 14.0475C128.476 14.2409 128.735 14.35 129.005 14.35V13.35ZM129.68 10.925L130.535 11.444L130.54 11.4348L129.68 10.925ZM131.33 9.35L130.869 8.46216L130.857 8.46852L131.33 9.35ZM133.48 8.55L133.284 7.56942C133.273 7.5715 133.263 7.57375 133.252 7.57616L133.48 8.55ZM138.355 8.575L138.612 7.60876C138.602 7.60607 138.592 7.60353 138.582 7.60116L138.355 8.575ZM140.505 9.45L141.029 8.59834C141.024 8.59542 141.019 8.59254 141.014 8.58971L140.505 9.45ZM142.08 11.075L141.211 11.5711L141.211 11.5711L142.08 11.075ZM142.08 16L141.211 15.5039L141.211 15.5039L142.08 16ZM140.505 17.65L141.014 18.5103C141.019 18.5075 141.024 18.5046 141.029 18.5017L140.505 17.65ZM138.33 18.5L138.109 17.5246L138.109 17.5246L138.33 18.5ZM135.83 18.75V17.75C135.824 17.75 135.819 17.75 135.814 17.7501L135.83 18.75ZM131.08 23.925H130.08C130.08 24.4773 130.527 24.925 131.08 24.925V23.925ZM142.605 23.925H143.605C143.605 23.3727 143.157 22.925 142.605 22.925V23.925ZM142.605 26V27C143.157 27 143.605 26.5523 143.605 26H142.605ZM128.88 26H127.88C127.88 26.5523 128.327 27 128.88 27V26ZM129.48 19.325L128.619 18.8152C128.617 18.8197 128.614 18.8243 128.611 18.8289L129.48 19.325ZM131.105 17.775L131.552 18.6694L131.552 18.6694L131.105 17.775ZM133.305 16.975L133.109 15.9944C133.101 15.996 133.092 15.9977 133.084 15.9996L133.305 16.975ZM137.33 16.575L137.526 17.5556L137.526 17.5556L137.33 16.575ZM138.855 16.1L138.444 15.1881L138.444 15.1881L138.855 16.1ZM140.055 15.1L139.238 14.5233C139.233 14.5306 139.228 14.5379 139.223 14.5453L140.055 15.1ZM139.205 11.025L139.719 10.1675C139.71 10.1618 139.7 10.1562 139.69 10.1508L139.205 11.025ZM135.93 10.2L135.968 9.20074C135.955 9.20025 135.943 9.2 135.93 9.2V10.2ZM132.605 10.95L132.139 10.0651L132.139 10.0651L132.605 10.95ZM131.18 12.35H129.005V14.35H131.18V12.35ZM130.004 13.377C130.025 12.6057 130.21 11.9791 130.534 11.444L128.825 10.406C128.3 11.2709 128.034 12.2443 128.005 13.323L130.004 13.377ZM130.54 11.4348C130.846 10.9188 131.261 10.5214 131.802 10.2315L130.857 8.46852C129.999 8.92859 129.314 9.58123 128.819 10.4152L130.54 11.4348ZM131.79 10.2378C132.396 9.9235 133.043 9.67874 133.707 9.52384L133.252 7.57616C132.416 7.77126 131.613 8.0765 130.869 8.46225L131.79 10.2378ZM133.676 9.53058C134.372 9.39137 135.131 9.3 135.93 9.3V7.3C134.979 7.3 134.088 7.40862 133.284 7.56942L133.676 9.53058ZM135.93 9.3C136.703 9.3 137.452 9.39114 138.127 9.54884L138.582 7.60116C137.758 7.40885 136.857 7.3 135.93 7.3V9.3ZM138.097 9.54123C138.782 9.724 139.417 9.9681 139.995 10.3103L141.014 8.58971C140.242 8.1319 139.427 7.826 138.612 7.60876L138.097 9.54123ZM139.981 10.3017C140.493 10.6171 140.898 11.0219 141.211 11.5711L142.948 10.5789C142.462 9.72808 141.816 9.08288 141.029 8.59834L139.981 10.3017ZM141.211 11.5711C141.512 12.097 141.68 12.7454 141.68 13.525H143.68C143.68 12.4546 143.447 11.453 142.948 10.5789L141.211 11.5711ZM141.68 13.525C141.68 14.3322 141.511 14.9799 141.211 15.5039L142.948 16.4961C143.449 15.6201 143.68 14.6178 143.68 13.525H141.68ZM141.211 15.5039C140.89 16.0669 140.48 16.4911 139.981 16.7983L141.029 18.5017C141.83 18.0089 142.47 17.3331 142.948 16.4961L141.211 15.5039ZM139.995 16.7897C139.419 17.1308 138.794 17.37 138.109 17.5246L138.55 19.4754C139.415 19.28 140.24 18.9692 141.014 18.5103L139.995 16.7897ZM138.109 17.5246C137.423 17.6795 136.675 17.75 135.83 17.75V19.75C136.784 19.75 137.686 19.6705 138.55 19.4754L138.109 17.5246ZM135.814 17.7501C134.156 17.7762 132.748 18.0473 131.727 18.697C130.629 19.3955 130.08 20.4683 130.08 21.775H132.08C132.08 21.1067 132.317 20.692 132.801 20.3843C133.361 20.0277 134.328 19.7738 135.845 19.7499L135.814 17.7501ZM130.08 21.775V23.925H132.08V21.775H130.08ZM131.08 24.925H142.605V22.925H131.08V24.925ZM141.605 23.925V26H143.605V23.925H141.605ZM142.605 25H128.88V27H142.605V25ZM129.88 26V21.775H127.88V26H129.88ZM129.88 21.775C129.88 20.973 130.046 20.349 130.348 19.8211L128.611 18.8289C128.113 19.701 127.88 20.677 127.88 21.775H129.88ZM130.34 19.8348C130.655 19.303 131.045 18.9228 131.552 18.6694L130.657 16.8806C129.764 17.3272 129.104 17.997 128.619 18.8152L130.34 19.8348ZM131.552 18.6694C132.191 18.3497 132.84 18.105 133.525 17.9504L133.084 15.9996C132.219 16.195 131.418 16.5003 130.657 16.8806L131.552 18.6694ZM133.501 17.9556C134.194 17.817 134.978 17.725 135.805 17.725V15.725C134.832 15.725 133.916 15.833 133.109 15.9944L133.501 17.9556ZM135.805 17.725C136.369 17.725 136.959 17.6689 137.526 17.5556L137.134 15.5944C136.7 15.6811 136.241 15.725 135.805 15.725V17.725ZM137.526 17.5556C138.08 17.4448 138.68 17.2751 139.265 17.0119L138.444 15.1881C138.029 15.3749 137.58 15.5052 137.134 15.5944L137.526 17.5556ZM139.265 17.0119C139.922 16.7163 140.474 16.2737 140.887 15.6547L139.223 14.5453C139.035 14.8263 138.787 15.0337 138.444 15.1881L139.265 17.0119ZM140.872 15.6767C141.294 15.0787 141.53 14.3512 141.53 13.55H139.53C139.53 13.9488 139.416 14.2713 139.238 14.5233L140.872 15.6767ZM141.53 13.55C141.53 12.0976 140.935 10.897 139.719 10.1675L138.69 11.8825C139.224 12.203 139.53 12.7024 139.53 13.55H141.53ZM139.69 10.1508C138.625 9.5588 137.389 9.25538 135.968 9.20074L135.891 11.1993C137.071 11.2446 137.985 11.4912 138.719 11.8992L139.69 10.1508ZM135.93 9.2C134.521 9.2 133.256 9.47723 132.139 10.0651L133.07 11.8349C133.854 11.4228 134.788 11.2 135.93 11.2V9.2ZM132.139 10.0651C131.526 10.3876 131.022 10.8325 130.676 11.4145C130.331 11.9951 130.18 12.6533 130.18 13.35H132.18C132.18 12.9467 132.266 12.6549 132.396 12.4355C132.525 12.2175 132.733 12.0124 133.07 11.8349L132.139 10.0651ZM148.475 8.5V7.5C147.923 7.5 147.475 7.94771 147.475 8.5H148.475ZM150 8.5L150.781 7.87513C150.591 7.63802 150.304 7.5 150 7.5V8.5ZM160.725 21.9L159.945 22.5249C160.21 22.8564 160.656 22.9842 161.057 22.8436C161.457 22.703 161.725 22.3246 161.725 21.9H160.725ZM160.725 8.5V7.5C160.173 7.5 159.725 7.94771 159.725 8.5H160.725ZM162.875 8.5H163.875C163.875 7.94771 163.428 7.5 162.875 7.5V8.5ZM162.875 26V27C163.428 27 163.875 26.5523 163.875 26H162.875ZM161.375 26L160.597 26.6272C160.786 26.8629 161.073 27 161.375 27V26ZM150.625 12.65L151.404 12.0228C151.138 11.6925 150.693 11.5659 150.293 11.7069C149.893 11.8479 149.625 12.2259 149.625 12.65H150.625ZM150.625 26V27C151.178 27 151.625 26.5523 151.625 26H150.625ZM148.475 26H147.475C147.475 26.5523 147.923 27 148.475 27V26ZM148.475 9.5H150V7.5H148.475V9.5ZM149.22 9.12487L159.945 22.5249L161.506 21.2751L150.781 7.87513L149.22 9.12487ZM161.725 21.9V8.5H159.725V21.9H161.725ZM160.725 9.5H162.875V7.5H160.725V9.5ZM161.875 8.5V26H163.875V8.5H161.875ZM162.875 25H161.375V27H162.875V25ZM162.154 25.3728L151.404 12.0228L149.847 13.2772L160.597 26.6272L162.154 25.3728ZM149.625 12.65V26H151.625V12.65H149.625ZM150.625 25H148.475V27H150.625V25ZM149.475 26V8.5H147.475V26H149.475ZM174.543 18.9H175.543C175.543 18.7051 175.486 18.5144 175.379 18.3514L174.543 18.9ZM167.768 8.575H166.768C166.768 8.76994 166.825 8.96063 166.932 9.12361L167.768 8.575ZM167.768 8.5V7.5C167.216 7.5 166.768 7.94771 166.768 8.5H167.768ZM170.418 8.5L171.263 7.96543C171.08 7.67566 170.761 7.5 170.418 7.5V8.5ZM175.668 16.8L174.823 17.3346C175.006 17.6227 175.322 17.7982 175.663 17.8C176.004 17.8018 176.322 17.6298 176.508 17.3436L175.668 16.8ZM181.043 8.5V7.5C180.704 7.5 180.388 7.67182 180.204 7.95643L181.043 8.5ZM183.693 8.5H184.693C184.693 7.94771 184.246 7.5 183.693 7.5V8.5ZM183.693 8.575L184.525 9.13063C184.635 8.96617 184.693 8.7728 184.693 8.575H183.693ZM176.793 18.9L175.962 18.3444C175.852 18.5088 175.793 18.7022 175.793 18.9H176.793ZM176.793 26V27C177.346 27 177.793 26.5523 177.793 26H176.793ZM174.543 26H173.543C173.543 26.5523 173.991 27 174.543 27V26ZM175.379 18.3514L168.604 8.02639L166.932 9.12361L173.707 19.4486L175.379 18.3514ZM168.768 8.575V8.5H166.768V8.575H168.768ZM167.768 9.5H170.418V7.5H167.768V9.5ZM169.573 9.03457L174.823 17.3346L176.513 16.2654L171.263 7.96543L169.573 9.03457ZM176.508 17.3436L181.883 9.04356L180.204 7.95643L174.829 16.2564L176.508 17.3436ZM181.043 9.5H183.693V7.5H181.043V9.5ZM182.693 8.5V8.575H184.693V8.5H182.693ZM182.862 8.01937L175.962 18.3444L177.625 19.4556L184.525 9.13063L182.862 8.01937ZM175.793 18.9V26H177.793V18.9H175.793ZM176.793 25H174.543V27H176.793V25ZM175.543 26V18.9H173.543V26H175.543Z" fill="#1E1E1E" mask="url(#path-14-outside-3_468_77)"/>
<mask id="path-16-outside-4_468_77" maskUnits="userSpaceOnUse" x="63" y="31" width="112" height="11" fill="black">
<rect fill="white" x="63" y="31" width="112" height="11"/>
<path d="M67.872 33.2H64.836V37.508H67.872C68.256 37.508 68.592 37.436 68.892 37.268C69.192 37.112 69.42 36.908 69.576 36.656C69.732 36.404 69.852 36.128 69.924 35.816C69.996 35.516 69.996 35.216 69.924 34.904C69.852 34.592 69.732 34.316 69.576 34.064C69.42 33.812 69.192 33.608 68.892 33.44C68.592 33.284 68.256 33.2 67.872 33.2ZM67.872 38.096H64.836V41H64.188V32.6H67.872C68.304 32.6 68.7 32.684 69.06 32.84C69.42 32.996 69.708 33.2 69.924 33.464C70.14 33.728 70.308 34.016 70.428 34.34C70.548 34.676 70.608 35.012 70.608 35.348C70.608 35.696 70.548 36.032 70.428 36.356C70.308 36.692 70.14 36.98 69.924 37.244C69.708 37.508 69.42 37.712 69.06 37.868C68.7 38.024 68.304 38.096 67.872 38.096ZM84.8751 41H84.2271V37.184H78.8751V41H78.2271V32.6H78.8751V36.596H84.2271V32.6H84.8751V41ZM100.619 41H99.9225L98.9985 38.936H93.9825L93.0705 41H92.3745L96.1425 32.6H96.8505L100.619 41ZM94.2345 38.336H98.7465L96.4905 33.224L94.2345 38.336ZM111.854 37.784L114.818 41H113.966L111.062 37.82H108.77V41H108.122V32.6H111.818C112.682 32.6 113.354 32.864 113.834 33.38C114.314 33.896 114.566 34.508 114.578 35.216C114.578 35.948 114.35 36.56 113.87 37.052C113.39 37.544 112.718 37.784 111.854 37.784ZM108.77 33.2V37.208H111.746C112.442 37.208 112.97 37.028 113.33 36.668C113.678 36.308 113.858 35.828 113.87 35.204C113.87 34.676 113.702 34.208 113.342 33.8C112.982 33.404 112.466 33.2 111.818 33.2H108.77ZM129.844 41V33.536L126.628 38.456H126.412L123.172 33.536V41H122.524V32.6H123.292L126.508 37.496L129.688 32.6H130.48V41H129.844ZM146.228 41H145.532L144.608 38.936H139.592L138.68 41H137.984L141.752 32.6H142.46L146.228 41ZM139.844 38.336H144.356L142.1 33.224L139.844 38.336ZM159.788 39.428L160.22 39.836C159.38 40.676 158.36 41.096 157.16 41.096C155.804 41.096 154.748 40.688 153.992 39.872C153.224 39.056 152.84 38.048 152.84 36.848C152.828 36.08 152.984 35.372 153.296 34.724C153.608 34.076 154.1 33.548 154.772 33.128C155.444 32.72 156.236 32.504 157.16 32.504C158.36 32.504 159.38 32.924 160.22 33.764L159.776 34.148C159.056 33.44 158.192 33.08 157.16 33.08C155.984 33.08 155.072 33.44 154.424 34.16C153.776 34.88 153.452 35.768 153.464 36.824C153.476 37.868 153.8 38.744 154.448 39.44C155.096 40.148 155.996 40.496 157.16 40.496C158.18 40.496 159.056 40.148 159.788 39.428ZM170.276 41V37.64L167 32.612V32.6H167.756L170.6 37.016L173.456 32.6H174.212V32.612L170.924 37.64V41H170.276Z"/>
</mask>
<path d="M67.872 33.2H64.836V37.508H67.872C68.256 37.508 68.592 37.436 68.892 37.268C69.192 37.112 69.42 36.908 69.576 36.656C69.732 36.404 69.852 36.128 69.924 35.816C69.996 35.516 69.996 35.216 69.924 34.904C69.852 34.592 69.732 34.316 69.576 34.064C69.42 33.812 69.192 33.608 68.892 33.44C68.592 33.284 68.256 33.2 67.872 33.2ZM67.872 38.096H64.836V41H64.188V32.6H67.872C68.304 32.6 68.7 32.684 69.06 32.84C69.42 32.996 69.708 33.2 69.924 33.464C70.14 33.728 70.308 34.016 70.428 34.34C70.548 34.676 70.608 35.012 70.608 35.348C70.608 35.696 70.548 36.032 70.428 36.356C70.308 36.692 70.14 36.98 69.924 37.244C69.708 37.508 69.42 37.712 69.06 37.868C68.7 38.024 68.304 38.096 67.872 38.096ZM84.8751 41H84.2271V37.184H78.8751V41H78.2271V32.6H78.8751V36.596H84.2271V32.6H84.8751V41ZM100.619 41H99.9225L98.9985 38.936H93.9825L93.0705 41H92.3745L96.1425 32.6H96.8505L100.619 41ZM94.2345 38.336H98.7465L96.4905 33.224L94.2345 38.336ZM111.854 37.784L114.818 41H113.966L111.062 37.82H108.77V41H108.122V32.6H111.818C112.682 32.6 113.354 32.864 113.834 33.38C114.314 33.896 114.566 34.508 114.578 35.216C114.578 35.948 114.35 36.56 113.87 37.052C113.39 37.544 112.718 37.784 111.854 37.784ZM108.77 33.2V37.208H111.746C112.442 37.208 112.97 37.028 113.33 36.668C113.678 36.308 113.858 35.828 113.87 35.204C113.87 34.676 113.702 34.208 113.342 33.8C112.982 33.404 112.466 33.2 111.818 33.2H108.77ZM129.844 41V33.536L126.628 38.456H126.412L123.172 33.536V41H122.524V32.6H123.292L126.508 37.496L129.688 32.6H130.48V41H129.844ZM146.228 41H145.532L144.608 38.936H139.592L138.68 41H137.984L141.752 32.6H142.46L146.228 41ZM139.844 38.336H144.356L142.1 33.224L139.844 38.336ZM159.788 39.428L160.22 39.836C159.38 40.676 158.36 41.096 157.16 41.096C155.804 41.096 154.748 40.688 153.992 39.872C153.224 39.056 152.84 38.048 152.84 36.848C152.828 36.08 152.984 35.372 153.296 34.724C153.608 34.076 154.1 33.548 154.772 33.128C155.444 32.72 156.236 32.504 157.16 32.504C158.36 32.504 159.38 32.924 160.22 33.764L159.776 34.148C159.056 33.44 158.192 33.08 157.16 33.08C155.984 33.08 155.072 33.44 154.424 34.16C153.776 34.88 153.452 35.768 153.464 36.824C153.476 37.868 153.8 38.744 154.448 39.44C155.096 40.148 155.996 40.496 157.16 40.496C158.18 40.496 159.056 40.148 159.788 39.428ZM170.276 41V37.64L167 32.612V32.6H167.756L170.6 37.016L173.456 32.6H174.212V32.612L170.924 37.64V41H170.276Z" fill="#1FA1EA"/>
<path d="M64.836 33.2V32.7H64.336V33.2H64.836ZM64.836 37.508H64.336V38.008H64.836V37.508ZM68.892 37.268L68.6613 36.8244L68.6545 36.828L68.6477 36.8317L68.892 37.268ZM69.924 35.816L69.4378 35.6993L69.4368 35.7036L69.924 35.816ZM69.924 34.904L69.4368 35.0164L69.4368 35.0164L69.924 34.904ZM69.576 34.064L69.1509 34.3272L69.1509 34.3272L69.576 34.064ZM68.892 33.44L69.1363 33.0037L69.1295 33L69.1227 32.9964L68.892 33.44ZM64.836 38.096V37.596H64.336V38.096H64.836ZM64.836 41V41.5H65.336V41H64.836ZM64.188 41H63.688V41.5H64.188V41ZM64.188 32.6V32.1H63.688V32.6H64.188ZM69.06 32.84L68.8612 33.2988L68.8612 33.2988L69.06 32.84ZM70.428 34.34L70.8989 34.1718L70.8969 34.1663L70.428 34.34ZM70.428 36.356L69.9591 36.1823L69.9571 36.1878L70.428 36.356ZM69.924 37.244L69.537 36.9274L69.537 36.9274L69.924 37.244ZM69.06 37.868L68.8612 37.4092L68.8612 37.4092L69.06 37.868ZM67.872 32.7H64.836V33.7H67.872V32.7ZM64.336 33.2V37.508H65.336V33.2H64.336ZM64.836 38.008H67.872V37.008H64.836V38.008ZM67.872 38.008C68.3204 38.008 68.7452 37.9233 69.1363 37.7043L68.6477 36.8317C68.4388 36.9487 68.1916 37.008 67.872 37.008V38.008ZM69.1227 37.7116C69.4911 37.52 69.7914 37.258 70.0011 36.9192L69.1509 36.3928C69.0486 36.558 68.8929 36.704 68.6613 36.8244L69.1227 37.7116ZM70.0011 36.9192C70.1836 36.6245 70.3259 36.2979 70.4112 35.9284L69.4368 35.7036C69.3781 35.9581 69.2804 36.1835 69.1509 36.3928L70.0011 36.9192ZM70.4102 35.9327C70.5009 35.5545 70.4999 35.176 70.4112 34.7916L69.4368 35.0164C69.4921 35.256 69.4911 35.4775 69.4378 35.6993L70.4102 35.9327ZM70.4112 34.7916C70.3259 34.4221 70.1836 34.0955 70.0011 33.8008L69.1509 34.3272C69.2804 34.5365 69.3781 34.7619 69.4368 35.0164L70.4112 34.7916ZM70.0011 33.8008C69.7914 33.4621 69.4937 33.2039 69.1363 33.0037L68.6477 33.8763C68.8903 34.0121 69.0486 34.1619 69.1509 34.3272L70.0011 33.8008ZM69.1227 32.9964C68.7483 32.8017 68.3327 32.7 67.872 32.7V33.7C68.1793 33.7 68.4357 33.7663 68.6613 33.8836L69.1227 32.9964ZM67.872 37.596H64.836V38.596H67.872V37.596ZM64.336 38.096V41H65.336V38.096H64.336ZM64.836 40.5H64.188V41.5H64.836V40.5ZM64.688 41V32.6H63.688V41H64.688ZM64.188 33.1H67.872V32.1H64.188V33.1ZM67.872 33.1C68.2375 33.1 68.5656 33.1707 68.8612 33.2988L69.2588 32.3812C68.8344 32.1973 68.3705 32.1 67.872 32.1V33.1ZM68.8612 33.2988C69.1637 33.4299 69.3813 33.5903 69.537 33.7806L70.311 33.1474C70.0347 32.8097 69.6763 32.5621 69.2588 32.3812L68.8612 33.2988ZM69.537 33.7806C69.7195 34.0036 69.8591 34.2436 69.9591 34.5137L70.8969 34.1663C70.7569 33.7884 70.5605 33.4524 70.311 33.1474L69.537 33.7806ZM69.9571 34.5082C70.0591 34.7936 70.108 35.0728 70.108 35.348H71.108C71.108 34.9512 71.0369 34.5584 70.8989 34.1718L69.9571 34.5082ZM70.108 35.348C70.108 35.6372 70.0584 35.9143 69.9591 36.1823L70.8969 36.5297C71.0376 36.1497 71.108 35.7548 71.108 35.348H70.108ZM69.9571 36.1878C69.8575 36.4669 69.7188 36.7052 69.537 36.9274L70.311 37.5606C70.5612 37.2548 70.7585 36.9171 70.8989 36.5242L69.9571 36.1878ZM69.537 36.9274C69.3813 37.1177 69.1637 37.2781 68.8612 37.4092L69.2588 38.3268C69.6763 38.1459 70.0347 37.8983 70.311 37.5606L69.537 36.9274ZM68.8612 37.4092C68.5743 37.5335 68.2479 37.596 67.872 37.596V38.596C68.3601 38.596 68.8257 38.5145 69.2588 38.3268L68.8612 37.4092ZM84.8751 41V41.5H85.3751V41H84.8751ZM84.2271 41H83.7271V41.5H84.2271V41ZM84.2271 37.184H84.7271V36.684H84.2271V37.184ZM78.8751 37.184V36.684H78.3751V37.184H78.8751ZM78.8751 41V41.5H79.3751V41H78.8751ZM78.2271 41H77.7271V41.5H78.2271V41ZM78.2271 32.6V32.1H77.7271V32.6H78.2271ZM78.8751 32.6H79.3751V32.1H78.8751V32.6ZM78.8751 36.596H78.3751V37.096H78.8751V36.596ZM84.2271 36.596V37.096H84.7271V36.596H84.2271ZM84.2271 32.6V32.1H83.7271V32.6H84.2271ZM84.8751 32.6H85.3751V32.1H84.8751V32.6ZM84.8751 40.5H84.2271V41.5H84.8751V40.5ZM84.7271 41V37.184H83.7271V41H84.7271ZM84.2271 36.684H78.8751V37.684H84.2271V36.684ZM78.3751 37.184V41H79.3751V37.184H78.3751ZM78.8751 40.5H78.2271V41.5H78.8751V40.5ZM78.7271 41V32.6H77.7271V41H78.7271ZM78.2271 33.1H78.8751V32.1H78.2271V33.1ZM78.3751 32.6V36.596H79.3751V32.6H78.3751ZM78.8751 37.096H84.2271V36.096H78.8751V37.096ZM84.7271 36.596V32.6H83.7271V36.596H84.7271ZM84.2271 33.1H84.8751V32.1H84.2271V33.1ZM84.3751 32.6V41H85.3751V32.6H84.3751ZM100.619 41V41.5H101.391L101.075 40.7954L100.619 41ZM99.9225 41L99.4661 41.2043L99.5985 41.5H99.9225V41ZM98.9985 38.936L99.4549 38.7317L99.3225 38.436H98.9985V38.936ZM93.9825 38.936V38.436H93.6568L93.5252 38.7339L93.9825 38.936ZM93.0705 41V41.5H93.3962L93.5278 41.2021L93.0705 41ZM92.3745 41L91.9183 40.7954L91.6022 41.5H92.3745V41ZM96.1425 32.6V32.1H95.8188L95.6863 32.3954L96.1425 32.6ZM96.8505 32.6L97.3067 32.3954L97.1742 32.1H96.8505V32.6ZM94.2345 38.336L93.7771 38.1341L93.4673 38.836H94.2345V38.336ZM98.7465 38.336V38.836H99.5137L99.2039 38.1341L98.7465 38.336ZM96.4905 33.224L96.9479 33.0221L96.4905 31.9856L96.0331 33.0221L96.4905 33.224ZM100.619 40.5H99.9225V41.5H100.619V40.5ZM100.379 40.7957L99.4549 38.7317L98.5421 39.1403L99.4661 41.2043L100.379 40.7957ZM98.9985 38.436H93.9825V39.436H98.9985V38.436ZM93.5252 38.7339L92.6132 40.7979L93.5278 41.2021L94.4398 39.1381L93.5252 38.7339ZM93.0705 40.5H92.3745V41.5H93.0705V40.5ZM92.8307 41.2046L96.5987 32.8046L95.6863 32.3954L91.9183 40.7954L92.8307 41.2046ZM96.1425 33.1H96.8505V32.1H96.1425V33.1ZM96.3943 32.8046L100.162 41.2046L101.075 40.7954L97.3067 32.3954L96.3943 32.8046ZM94.2345 38.836H98.7465V37.836H94.2345V38.836ZM99.2039 38.1341L96.9479 33.0221L96.0331 33.4259L98.2891 38.5379L99.2039 38.1341ZM96.0331 33.0221L93.7771 38.1341L94.6919 38.5379L96.9479 33.4259L96.0331 33.0221ZM111.854 37.784V37.284H110.713L111.486 38.1229L111.854 37.784ZM114.818 41V41.5H115.958L115.185 40.6611L114.818 41ZM113.966 41L113.596 41.3372L113.745 41.5H113.966V41ZM111.062 37.82L111.431 37.4828L111.282 37.32H111.062V37.82ZM108.77 37.82V37.32H108.27V37.82H108.77ZM108.77 41V41.5H109.27V41H108.77ZM108.122 41H107.622V41.5H108.122V41ZM108.122 32.6V32.1H107.622V32.6H108.122ZM113.834 33.38L114.2 33.0394L114.2 33.0394L113.834 33.38ZM114.578 35.216H115.078L115.078 35.2075L114.578 35.216ZM113.87 37.052L113.512 36.7028L113.512 36.7028L113.87 37.052ZM108.77 33.2V32.7H108.27V33.2H108.77ZM108.77 37.208H108.27V37.708H108.77V37.208ZM113.33 36.668L113.683 37.0216L113.689 37.0155L113.33 36.668ZM113.87 35.204L114.37 35.2136V35.204H113.87ZM113.342 33.8L113.717 33.4692L113.712 33.4637L113.342 33.8ZM111.486 38.1229L114.45 41.3389L115.185 40.6611L112.221 37.4451L111.486 38.1229ZM114.818 40.5H113.966V41.5H114.818V40.5ZM114.335 40.6628L111.431 37.4828L110.692 38.1572L113.596 41.3372L114.335 40.6628ZM111.062 37.32H108.77V38.32H111.062V37.32ZM108.27 37.82V41H109.27V37.82H108.27ZM108.77 40.5H108.122V41.5H108.77V40.5ZM108.622 41V32.6H107.622V41H108.622ZM108.122 33.1H111.818V32.1H108.122V33.1ZM111.818 33.1C112.573 33.1 113.101 33.3267 113.468 33.7206L114.2 33.0394C113.606 32.4013 112.79 32.1 111.818 32.1V33.1ZM113.468 33.7206C113.865 34.1479 114.068 34.6422 114.078 35.2245L115.078 35.2075C115.063 34.3738 114.762 33.6441 114.2 33.0394L113.468 33.7206ZM114.078 35.216C114.078 35.8333 113.89 36.3149 113.512 36.7028L114.227 37.4012C114.809 36.8051 115.078 36.0627 115.078 35.216H114.078ZM113.512 36.7028C113.15 37.0732 112.623 37.284 111.854 37.284V38.284C112.813 38.284 113.629 38.0148 114.227 37.4012L113.512 36.7028ZM108.27 33.2V37.208H109.27V33.2H108.27ZM108.77 37.708H111.746V36.708H108.77V37.708ZM111.746 37.708C112.524 37.708 113.199 37.5055 113.683 37.0216L112.976 36.3144C112.74 36.5505 112.359 36.708 111.746 36.708V37.708ZM113.689 37.0155C114.143 36.5455 114.356 35.9345 114.37 35.2136L113.37 35.1944C113.36 35.7215 113.212 36.0705 112.97 36.3205L113.689 37.0155ZM114.37 35.204C114.37 34.5581 114.16 33.9715 113.717 33.4692L112.967 34.1308C113.243 34.4445 113.37 34.7939 113.37 35.204H114.37ZM113.712 33.4637C113.238 32.9423 112.575 32.7 111.818 32.7V33.7C112.356 33.7 112.726 33.8657 112.972 34.1363L113.712 33.4637ZM111.818 32.7H108.77V33.7H111.818V32.7ZM129.844 41H129.344V41.5H129.844V41ZM129.844 33.536H130.344V31.8572L129.425 33.2624L129.844 33.536ZM126.628 38.456V38.956H126.898L127.046 38.7296L126.628 38.456ZM126.412 38.456L125.994 38.731L126.143 38.956H126.412V38.456ZM123.172 33.536L123.59 33.261L122.672 31.8676V33.536H123.172ZM123.172 41V41.5H123.672V41H123.172ZM122.524 41H122.024V41.5H122.524V41ZM122.524 32.6V32.1H122.024V32.6H122.524ZM123.292 32.6L123.71 32.3255L123.562 32.1H123.292V32.6ZM126.508 37.496L126.09 37.7705L126.51 38.4103L126.927 37.7683L126.508 37.496ZM129.688 32.6V32.1H129.416L129.269 32.3276L129.688 32.6ZM130.48 32.6H130.98V32.1H130.48V32.6ZM130.48 41V41.5H130.98V41H130.48ZM130.344 41V33.536H129.344V41H130.344ZM129.425 33.2624L126.209 38.1824L127.046 38.7296L130.262 33.8096L129.425 33.2624ZM126.628 37.956H126.412V38.956H126.628V37.956ZM126.83 38.181L123.59 33.261L122.754 33.811L125.994 38.731L126.83 38.181ZM122.672 33.536V41H123.672V33.536H122.672ZM123.172 40.5H122.524V41.5H123.172V40.5ZM123.024 41V32.6H122.024V41H123.024ZM122.524 33.1H123.292V32.1H122.524V33.1ZM122.874 32.8745L126.09 37.7705L126.926 37.2215L123.71 32.3255L122.874 32.8745ZM126.927 37.7683L130.107 32.8723L129.269 32.3276L126.089 37.2237L126.927 37.7683ZM129.688 33.1H130.48V32.1H129.688V33.1ZM129.98 32.6V41H130.98V32.6H129.98ZM130.48 40.5H129.844V41.5H130.48V40.5ZM146.228 41V41.5H147L146.684 40.7954L146.228 41ZM145.532 41L145.076 41.2043L145.208 41.5H145.532V41ZM144.608 38.936L145.064 38.7317L144.932 38.436H144.608V38.936ZM139.592 38.936V38.436H139.266L139.135 38.7339L139.592 38.936ZM138.68 41V41.5H139.006L139.137 41.2021L138.68 41ZM137.984 41L137.528 40.7954L137.212 41.5H137.984V41ZM141.752 32.6V32.1H141.428L141.296 32.3954L141.752 32.6ZM142.46 32.6L142.916 32.3954L142.784 32.1H142.46V32.6ZM139.844 38.336L139.386 38.1341L139.077 38.836H139.844V38.336ZM144.356 38.336V38.836H145.123L144.813 38.1341L144.356 38.336ZM142.1 33.224L142.557 33.0221L142.1 31.9856L141.642 33.0221L142.1 33.224ZM146.228 40.5H145.532V41.5H146.228V40.5ZM145.988 40.7957L145.064 38.7317L144.152 39.1403L145.076 41.2043L145.988 40.7957ZM144.608 38.436H139.592V39.436H144.608V38.436ZM139.135 38.7339L138.223 40.7979L139.137 41.2021L140.049 39.1381L139.135 38.7339ZM138.68 40.5H137.984V41.5H138.68V40.5ZM138.44 41.2046L142.208 32.8046L141.296 32.3954L137.528 40.7954L138.44 41.2046ZM141.752 33.1H142.46V32.1H141.752V33.1ZM142.004 32.8046L145.772 41.2046L146.684 40.7954L142.916 32.3954L142.004 32.8046ZM139.844 38.836H144.356V37.836H139.844V38.836ZM144.813 38.1341L142.557 33.0221L141.642 33.4259L143.898 38.5379L144.813 38.1341ZM141.642 33.0221L139.386 38.1341L140.301 38.5379L142.557 33.4259L141.642 33.0221ZM159.788 39.428L160.131 39.0645L159.781 38.7336L159.437 39.0715L159.788 39.428ZM160.22 39.836L160.573 40.1896L160.937 39.8258L160.563 39.4725L160.22 39.836ZM153.992 39.872L154.358 39.5322L154.356 39.5293L153.992 39.872ZM152.84 36.848H153.34L153.34 36.8402L152.84 36.848ZM153.296 34.724L153.746 34.9409L153.746 34.9409L153.296 34.724ZM154.772 33.128L154.512 32.7006L154.507 32.704L154.772 33.128ZM160.22 33.764L160.547 34.1422L160.953 33.7905L160.573 33.4104L160.22 33.764ZM159.776 34.148L159.425 34.5045L159.754 34.8279L160.103 34.5262L159.776 34.148ZM153.464 36.824L152.964 36.8297L152.964 36.8297L153.464 36.824ZM154.448 39.44L154.817 39.1024L154.814 39.0993L154.448 39.44ZM159.444 39.7915L159.876 40.1995L160.563 39.4725L160.131 39.0645L159.444 39.7915ZM159.866 39.4824C159.121 40.2276 158.229 40.596 157.16 40.596V41.596C158.491 41.596 159.638 41.1244 160.573 40.1896L159.866 39.4824ZM157.16 40.596C155.91 40.596 155 40.2242 154.358 39.5322L153.625 40.2118C154.496 41.1518 155.697 41.596 157.16 41.596V40.596ZM154.356 39.5293C153.682 38.813 153.34 37.9305 153.34 36.848H152.34C152.34 38.1655 152.766 39.299 153.628 40.2147L154.356 39.5293ZM153.34 36.8402C153.329 36.1474 153.469 35.5166 153.746 34.9409L152.845 34.5071C152.498 35.2274 152.327 36.0126 152.34 36.8558L153.34 36.8402ZM153.746 34.9409C154.012 34.3883 154.435 33.9283 155.037 33.552L154.507 32.704C153.765 33.1677 153.203 33.7637 152.845 34.5071L153.746 34.9409ZM155.031 33.5554C155.617 33.2 156.317 33.004 157.16 33.004V32.004C156.155 32.004 155.271 32.24 154.512 32.7006L155.031 33.5554ZM157.16 33.004C158.229 33.004 159.121 33.3724 159.866 34.1176L160.573 33.4104C159.638 32.4756 158.491 32.004 157.16 32.004V33.004ZM159.893 33.3858L159.449 33.7698L160.103 34.5262L160.547 34.1422L159.893 33.3858ZM160.126 33.7915C159.313 32.992 158.323 32.58 157.16 32.58V33.58C158.06 33.58 158.798 33.888 159.425 34.5045L160.126 33.7915ZM157.16 32.58C155.875 32.58 154.815 32.978 154.052 33.8255L154.795 34.4945C155.329 33.902 156.093 33.58 157.16 33.58V32.58ZM154.052 33.8255C153.314 34.646 152.95 35.6583 152.964 36.8297L153.964 36.8183C153.953 35.8777 154.238 35.114 154.795 34.4945L154.052 33.8255ZM152.964 36.8297C152.977 37.9819 153.338 38.9823 154.082 39.7807L154.814 39.0993C154.261 38.5057 153.974 37.7541 153.964 36.8183L152.964 36.8297ZM154.079 39.7776C154.842 40.6116 155.889 40.996 157.16 40.996V39.996C156.102 39.996 155.349 39.6844 154.817 39.1024L154.079 39.7776ZM157.16 40.996C158.308 40.996 159.31 40.5987 160.138 39.7845L159.437 39.0715C158.801 39.6973 158.052 39.996 157.16 39.996V40.996ZM170.276 41H169.776V41.5H170.276V41ZM170.276 37.64H170.776V37.4915L170.695 37.367L170.276 37.64ZM167 32.612H166.5V32.7605L166.581 32.885L167 32.612ZM167 32.6V32.1H166.5V32.6H167ZM167.756 32.6L168.177 32.3293L168.029 32.1H167.756V32.6ZM170.6 37.016L170.18 37.2867L170.599 37.9381L171.02 37.2875L170.6 37.016ZM173.456 32.6V32.1H173.184L173.036 32.3285L173.456 32.6ZM174.212 32.6H174.712V32.1H174.212V32.6ZM174.212 32.612L174.631 32.8857L174.712 32.761V32.612H174.212ZM170.924 37.64L170.506 37.3663L170.424 37.491V37.64H170.924ZM170.924 41V41.5H171.424V41H170.924ZM170.776 41V37.64H169.776V41H170.776ZM170.695 37.367L167.419 32.339L166.581 32.885L169.857 37.913L170.695 37.367ZM167.5 32.612V32.6H166.5V32.612H167.5ZM167 33.1H167.756V32.1H167V33.1ZM167.336 32.8707L170.18 37.2867L171.021 36.7453L168.177 32.3293L167.336 32.8707ZM171.02 37.2875L173.876 32.8715L173.036 32.3285L170.18 36.7445L171.02 37.2875ZM173.456 33.1H174.212V32.1H173.456V33.1ZM173.712 32.6V32.612H174.712V32.6H173.712ZM173.794 32.3383L170.506 37.3663L171.343 37.9137L174.631 32.8857L173.794 32.3383ZM170.424 37.64V41H171.424V37.64H170.424ZM170.924 40.5H170.276V41.5H170.924V40.5Z" fill="#1FA1EA" mask="url(#path-16-outside-4_468_77)"/>
</svg>
