<svg xmlns="http://www.w3.org/2000/svg" fill-rule="evenodd" stroke-linejoin="round" stroke-miterlimit="2" clip-rule="evenodd" viewBox="0 0 25 24" id="wallet"><g transform="translate(-39.91 -40)"><rect width="24" height="24" x="40" y="40" fill="none"></rect><path fill="#2c2c2c" d="M352.947,228L352.947,226C352.947,224.398 351.581,223.1 349.895,223.1C346.053,223.1 337.947,223.1 334.105,223.1C332.419,223.1 331.053,224.398 331.053,226C331.053,228.661 331.053,233.339 331.053,236C331.053,237.602 332.419,238.9 334.105,238.9C337.947,238.9 346.053,238.9 349.895,238.9C351.581,238.9 352.947,237.602 352.947,236C352.947,235 352.947,234 352.947,234C352.947,233.503 352.523,233.1 352,233.1C351.477,233.1 351.053,233.503 351.053,234C351.053,234 351.053,235 351.053,236C351.053,236.608 350.534,237.1 349.895,237.1C346.053,237.1 337.947,237.1 334.105,237.1C333.466,237.1 332.947,236.608 332.947,236C332.947,233.339 332.947,228.661 332.947,226C332.947,225.392 333.466,224.9 334.105,224.9C337.947,224.9 346.053,224.9 349.895,224.9C350.534,224.9 351.053,225.392 351.053,226L351.053,228C351.053,228.497 351.477,228.9 352,228.9C352.523,228.9 352.947,228.497 352.947,228Z" transform="matrix(.95 0 0 1 -273.4 -177)"></path><path fill="#2c2c2c" d="M332.402,224.805C332.402,224.805 337.957,222.028 341.508,220.252C341.849,220.082 342.254,220.1 342.578,220.3C342.903,220.501 343.1,220.855 343.1,221.236C343.1,222.653 343.1,224 343.1,224L344.9,224C344.9,224 344.9,222.653 344.9,221.236C344.9,220.231 344.38,219.298 343.525,218.769C342.67,218.241 341.602,218.193 340.703,218.642C337.152,220.418 331.598,223.195 331.598,223.195L332.402,224.805Z" transform="translate(-288 -177)"></path><path fill="#2c2c2c" d="M350.9,229C350.9,227.398 349.602,226.1 348,226.1C347.093,226.1 346.002,226.1 345,226.1C342.846,226.1 341.1,227.846 341.1,230L341.1,230C341.1,232.154 342.846,233.9 345,233.9C346.002,233.9 347.093,233.9 348,233.9C349.602,233.9 350.9,232.602 350.9,231L350.9,229ZM349.1,229C349.1,228.392 348.608,227.9 348,227.9C347.093,227.9 346.002,227.9 345,227.9C343.84,227.9 342.9,228.84 342.9,230C342.9,231.16 343.84,232.1 345,232.1C346.002,232.1 347.093,232.1 348,232.1C348.608,232.1 349.1,231.608 349.1,231L349.1,229Z" transform="translate(-288 -176)"></path><ellipse cx="932.689" cy="259.035" fill="#2c2c2c" rx=".78" ry=".495" transform="matrix(1.28228 0 0 2.02156 -1138.96 -469.655)"></ellipse></g></svg>