<svg width="188" height="48" viewBox="0 0 188 48" fill="none" xmlns="http://www.w3.org/2000/svg">
<circle cx="24.0525" cy="24.0525" r="22.4209" stroke="#064C58" stroke-width="2.73682"/>
<mask id="mask0_468_76" style="mask-type:alpha" maskUnits="userSpaceOnUse" x="4" y="4" width="40" height="40">
<circle cx="24.1052" cy="24.1049" r="19.2104" fill="#77DE8D"/>
</mask>
<g mask="url(#mask0_468_76)">
<rect x="-0.894775" y="-3.21045" width="25.0525" height="49.3681" fill="#77DE8D"/>
</g>
<mask id="mask1_468_76" style="mask-type:alpha" maskUnits="userSpaceOnUse" x="4" y="4" width="40" height="40">
<circle cx="24.105" cy="24.105" r="19.2104" transform="rotate(-180 24.105 24.105)" fill="#86CCEA"/>
</mask>
<g mask="url(#mask1_468_76)">
<rect x="49.105" y="51.4209" width="25.0525" height="49.3681" transform="rotate(-180 49.105 51.4209)" fill="#86CCEA"/>
</g>
<mask id="path-6-outside-1_468_76" maskUnits="userSpaceOnUse" x="8.99976" y="8.99951" width="30" height="30" fill="black">
<rect fill="white" x="8.99976" y="8.99951" width="30" height="30"/>
<path fill-rule="evenodd" clip-rule="evenodd" d="M24.0524 36.9995C26.4359 36.9995 28.3682 35.0673 28.3682 32.6838L28.3682 27.8419L32.6314 27.8419C35.044 27.8419 36.9998 25.8861 36.9998 23.4735C36.9998 21.0609 35.044 19.1051 32.6314 19.1051L28.3682 19.1051L28.3682 15.526C28.3682 13.1424 26.4359 11.2102 24.0524 11.2102C21.6689 11.2102 19.7367 13.1424 19.7367 15.526L19.7367 19.1051L15.5788 19.1051C13.1663 19.1051 11.2105 21.0609 11.2105 23.4735C11.2105 25.8861 13.1663 27.8419 15.5788 27.8419L19.7367 27.8419L19.7367 32.6838C19.7367 35.0673 21.6689 36.9995 24.0524 36.9995Z"/>
</mask>
<path fill-rule="evenodd" clip-rule="evenodd" d="M24.0524 36.9995C26.4359 36.9995 28.3682 35.0673 28.3682 32.6838L28.3682 27.8419L32.6314 27.8419C35.044 27.8419 36.9998 25.8861 36.9998 23.4735C36.9998 21.0609 35.044 19.1051 32.6314 19.1051L28.3682 19.1051L28.3682 15.526C28.3682 13.1424 26.4359 11.2102 24.0524 11.2102C21.6689 11.2102 19.7367 13.1424 19.7367 15.526L19.7367 19.1051L15.5788 19.1051C13.1663 19.1051 11.2105 21.0609 11.2105 23.4735C11.2105 25.8861 13.1663 27.8419 15.5788 27.8419L19.7367 27.8419L19.7367 32.6838C19.7367 35.0673 21.6689 36.9995 24.0524 36.9995Z" fill="#77DE8D"/>
<path d="M28.3682 32.6838L27.105 32.6838L28.3682 32.6838ZM28.3682 27.8419L28.3682 26.5787L27.105 26.5787L27.105 27.8419L28.3682 27.8419ZM32.6314 27.8419L32.6314 29.105L32.6314 27.8419ZM28.3682 19.1051L27.105 19.1051L27.105 20.3683L28.3682 20.3683L28.3682 19.1051ZM19.7367 19.1051L19.7367 20.3683L20.9998 20.3683L20.9998 19.1051L19.7367 19.1051ZM15.5788 19.1051L15.5788 20.3682L15.5788 19.1051ZM15.5788 27.8419L15.5788 29.105L15.5788 27.8419ZM19.7367 27.8419L20.9998 27.8419L20.9998 26.5787L19.7367 26.5787L19.7367 27.8419ZM19.7367 32.6838L20.9998 32.6838L19.7367 32.6838ZM27.105 32.6838C27.105 34.3697 25.7383 35.7364 24.0524 35.7364L24.0524 38.2627C27.1336 38.2627 29.6313 35.7649 29.6313 32.6838L27.105 32.6838ZM27.105 27.8419L27.105 32.6838L29.6313 32.6838L29.6313 27.8419L27.105 27.8419ZM32.6314 26.5787L28.3682 26.5787L28.3682 29.105L32.6314 29.105L32.6314 26.5787ZM35.7366 23.4735C35.7366 25.1885 34.3463 26.5787 32.6314 26.5787L32.6314 29.105C35.7416 29.105 38.2629 26.5837 38.2629 23.4735L35.7366 23.4735ZM32.6314 20.3683C34.3463 20.3683 35.7366 21.7585 35.7366 23.4735L38.2629 23.4735C38.2629 20.3633 35.7416 17.842 32.6314 17.842L32.6314 20.3683ZM28.3682 20.3683L32.6314 20.3683L32.6314 17.842L28.3682 17.842L28.3682 20.3683ZM27.105 15.526L27.105 19.1051L29.6313 19.1051L29.6313 15.526L27.105 15.526ZM24.0524 12.4734C25.7383 12.4734 27.105 13.8401 27.105 15.526L29.6313 15.526C29.6313 12.4448 27.1336 9.94706 24.0524 9.94706L24.0524 12.4734ZM20.9998 15.526C20.9998 13.8401 22.3665 12.4734 24.0524 12.4734L24.0524 9.94706C20.9713 9.94706 18.4735 12.4448 18.4735 15.526L20.9998 15.526ZM20.9998 19.1051L20.9998 15.526L18.4735 15.526L18.4735 19.1051L20.9998 19.1051ZM15.5788 20.3682L19.7367 20.3683L19.7367 17.842L15.5788 17.842L15.5788 20.3682ZM12.4736 23.4735C12.4736 21.7585 13.8639 20.3682 15.5788 20.3682L15.5788 17.842C12.4686 17.842 9.94731 20.3633 9.94731 23.4735L12.4736 23.4735ZM15.5788 26.5787C13.8639 26.5787 12.4736 25.1885 12.4736 23.4735L9.94731 23.4735C9.94731 26.5837 12.4686 29.105 15.5788 29.105L15.5788 26.5787ZM19.7367 26.5787L15.5788 26.5787L15.5788 29.105L19.7367 29.105L19.7367 26.5787ZM20.9998 32.6838L20.9998 27.8419L18.4735 27.8419L18.4735 32.6838L20.9998 32.6838ZM24.0524 35.7364C22.3665 35.7364 20.9998 34.3697 20.9998 32.6838L18.4735 32.6838C18.4735 35.7649 20.9713 38.2627 24.0524 38.2627L24.0524 35.7364Z" fill="white" mask="url(#path-6-outside-1_468_76)"/>
<mask id="mask2_468_76" style="mask-type:alpha" maskUnits="userSpaceOnUse" x="11" y="11" width="26" height="26">
<mask id="path-8-inside-2_468_76" fill="white">
<path fill-rule="evenodd" clip-rule="evenodd" d="M24.0524 36.9995C26.4359 36.9995 28.3682 35.0673 28.3682 32.6838L28.3682 27.8419L32.6314 27.8419C35.044 27.8419 36.9998 25.8861 36.9998 23.4735C36.9998 21.0609 35.044 19.1051 32.6314 19.1051L28.3682 19.1051L28.3682 15.526C28.3682 13.1424 26.4359 11.2102 24.0524 11.2102C21.6689 11.2102 19.7367 13.1424 19.7367 15.526L19.7367 19.1051L15.5788 19.1051C13.1663 19.1051 11.2105 21.0609 11.2105 23.4735C11.2105 25.8861 13.1663 27.8419 15.5788 27.8419L19.7367 27.8419L19.7367 32.6838C19.7367 35.0673 21.6689 36.9995 24.0524 36.9995Z"/>
</mask>
<path fill-rule="evenodd" clip-rule="evenodd" d="M24.0524 36.9995C26.4359 36.9995 28.3682 35.0673 28.3682 32.6838L28.3682 27.8419L32.6314 27.8419C35.044 27.8419 36.9998 25.8861 36.9998 23.4735C36.9998 21.0609 35.044 19.1051 32.6314 19.1051L28.3682 19.1051L28.3682 15.526C28.3682 13.1424 26.4359 11.2102 24.0524 11.2102C21.6689 11.2102 19.7367 13.1424 19.7367 15.526L19.7367 19.1051L15.5788 19.1051C13.1663 19.1051 11.2105 21.0609 11.2105 23.4735C11.2105 25.8861 13.1663 27.8419 15.5788 27.8419L19.7367 27.8419L19.7367 32.6838C19.7367 35.0673 21.6689 36.9995 24.0524 36.9995Z" fill="#86CCEA"/>
<path d="M28.3682 32.6838L27.105 32.6838L28.3682 32.6838ZM28.3682 27.8419L28.3682 26.5787L27.105 26.5787L27.105 27.8419L28.3682 27.8419ZM32.6314 27.8419L32.6314 29.105L32.6314 27.8419ZM28.3682 19.1051L27.105 19.1051L27.105 20.3683L28.3682 20.3683L28.3682 19.1051ZM19.7367 19.1051L19.7367 20.3683L20.9998 20.3683L20.9998 19.1051L19.7367 19.1051ZM15.5788 19.1051L15.5788 20.3682L15.5788 19.1051ZM15.5788 27.8419L15.5788 29.105L15.5788 27.8419ZM19.7367 27.8419L20.9998 27.8419L20.9998 26.5787L19.7367 26.5787L19.7367 27.8419ZM19.7367 32.6838L20.9998 32.6838L19.7367 32.6838ZM27.105 32.6838C27.105 34.3697 25.7383 35.7364 24.0524 35.7364L24.0524 38.2627C27.1336 38.2627 29.6313 35.7649 29.6313 32.6838L27.105 32.6838ZM27.105 27.8419L27.105 32.6838L29.6313 32.6838L29.6313 27.8419L27.105 27.8419ZM32.6314 26.5787L28.3682 26.5787L28.3682 29.105L32.6314 29.105L32.6314 26.5787ZM35.7366 23.4735C35.7366 25.1885 34.3463 26.5787 32.6314 26.5787L32.6314 29.105C35.7416 29.105 38.2629 26.5837 38.2629 23.4735L35.7366 23.4735ZM32.6314 20.3683C34.3463 20.3683 35.7366 21.7585 35.7366 23.4735L38.2629 23.4735C38.2629 20.3633 35.7416 17.842 32.6314 17.842L32.6314 20.3683ZM28.3682 20.3683L32.6314 20.3683L32.6314 17.842L28.3682 17.842L28.3682 20.3683ZM27.105 15.526L27.105 19.1051L29.6313 19.1051L29.6313 15.526L27.105 15.526ZM24.0524 12.4734C25.7383 12.4734 27.105 13.8401 27.105 15.526L29.6313 15.526C29.6313 12.4448 27.1336 9.94706 24.0524 9.94706L24.0524 12.4734ZM20.9998 15.526C20.9998 13.8401 22.3665 12.4734 24.0524 12.4734L24.0524 9.94706C20.9713 9.94706 18.4735 12.4448 18.4735 15.526L20.9998 15.526ZM20.9998 19.1051L20.9998 15.526L18.4735 15.526L18.4735 19.1051L20.9998 19.1051ZM15.5788 20.3682L19.7367 20.3683L19.7367 17.842L15.5788 17.842L15.5788 20.3682ZM12.4736 23.4735C12.4736 21.7585 13.8639 20.3682 15.5788 20.3682L15.5788 17.842C12.4686 17.842 9.94731 20.3633 9.94731 23.4735L12.4736 23.4735ZM15.5788 26.5787C13.8639 26.5787 12.4736 25.1885 12.4736 23.4735L9.94731 23.4735C9.94731 26.5837 12.4686 29.105 15.5788 29.105L15.5788 26.5787ZM19.7367 26.5787L15.5788 26.5787L15.5788 29.105L19.7367 29.105L19.7367 26.5787ZM20.9998 32.6838L20.9998 27.8419L18.4735 27.8419L18.4735 32.6838L20.9998 32.6838ZM24.0524 35.7364C22.3665 35.7364 20.9998 34.3697 20.9998 32.6838L18.4735 32.6838C18.4735 35.7649 20.9713 38.2627 24.0524 38.2627L24.0524 35.7364Z" fill="white" mask="url(#path-8-inside-2_468_76)"/>
</mask>
<g mask="url(#mask2_468_76)">
<rect x="41.2102" y="43.3154" width="17.0525" height="36.5261" transform="rotate(-180 41.2102 43.3154)" fill="#86CCEA"/>
</g>
<path d="M13.6316 21.7365C14.0743 20.8978 14.4274 20.586 15.4211 20.5786" stroke="white" stroke-width="0.8421" stroke-linecap="round"/>
<path d="M34.7893 25.4207C34.3466 26.2595 33.9935 26.5712 32.9998 26.5786" stroke="white" stroke-width="0.8421" stroke-linecap="round"/>
<line x1="24.162" y1="38.159" x2="24.0525" y2="11.0013" stroke="#FFFDFD" stroke-width="0.631575"/>
<mask id="path-14-outside-3_468_76" maskUnits="userSpaceOnUse" x="58" y="7" width="127" height="20" fill="black">
<rect fill="white" x="58" y="7" width="127" height="20"/>
<path d="M59.325 26V8.5H71.625V10.5H61.475V15.975H71.2V18H61.475V23.925H72.025V26H59.325ZM79.7842 8.5V23.975H89.3092V26H77.6092V8.5H79.7842ZM102.812 10.55H92.5367V8.5H105.337L105.512 9.9L96.7617 26H94.2867L102.812 10.55ZM114.586 8.5H117.036L124.886 26H122.536L120.811 22.15H110.811L109.111 26H106.736L114.586 8.5ZM119.961 20.15L115.811 10.7L111.661 20.15H119.961ZM131.18 13.35H129.005C129.03 12.425 129.255 11.625 129.68 10.925C130.08 10.25 130.63 9.725 131.33 9.35C132.005 9 132.73 8.725 133.48 8.55C134.23 8.4 135.055 8.3 135.93 8.3C136.78 8.3 137.605 8.4 138.355 8.575C139.105 8.775 139.83 9.05 140.505 9.45C141.155 9.85 141.68 10.375 142.08 11.075C142.48 11.775 142.68 12.6 142.68 13.525C142.68 14.475 142.48 15.3 142.08 16C141.68 16.7 141.155 17.25 140.505 17.65C139.83 18.05 139.105 18.325 138.33 18.5C137.555 18.675 136.73 18.75 135.83 18.75C132.655 18.8 131.08 19.8 131.08 21.775V23.925H142.605V26H128.88V21.775C128.88 20.825 129.08 20.025 129.48 19.325C129.88 18.65 130.405 18.125 131.105 17.775C131.805 17.425 132.53 17.15 133.305 16.975C134.055 16.825 134.905 16.725 135.805 16.725C136.305 16.725 136.83 16.675 137.33 16.575C137.83 16.475 138.355 16.325 138.855 16.1C139.355 15.875 139.755 15.55 140.055 15.1C140.355 14.675 140.53 14.15 140.53 13.55C140.53 12.4 140.08 11.55 139.205 11.025C138.305 10.525 137.23 10.25 135.93 10.2C134.655 10.2 133.555 10.45 132.605 10.95C131.655 11.45 131.18 12.25 131.18 13.35ZM148.475 8.5H150L160.725 21.9V8.5H162.875V26H161.375L150.625 12.65V26H148.475V8.5ZM174.543 18.9L167.768 8.575V8.5H170.418L175.668 16.8L181.043 8.5H183.693V8.575L176.793 18.9V26H174.543V18.9Z"/>
</mask>
<path d="M59.325 26V8.5H71.625V10.5H61.475V15.975H71.2V18H61.475V23.925H72.025V26H59.325ZM79.7842 8.5V23.975H89.3092V26H77.6092V8.5H79.7842ZM102.812 10.55H92.5367V8.5H105.337L105.512 9.9L96.7617 26H94.2867L102.812 10.55ZM114.586 8.5H117.036L124.886 26H122.536L120.811 22.15H110.811L109.111 26H106.736L114.586 8.5ZM119.961 20.15L115.811 10.7L111.661 20.15H119.961ZM131.18 13.35H129.005C129.03 12.425 129.255 11.625 129.68 10.925C130.08 10.25 130.63 9.725 131.33 9.35C132.005 9 132.73 8.725 133.48 8.55C134.23 8.4 135.055 8.3 135.93 8.3C136.78 8.3 137.605 8.4 138.355 8.575C139.105 8.775 139.83 9.05 140.505 9.45C141.155 9.85 141.68 10.375 142.08 11.075C142.48 11.775 142.68 12.6 142.68 13.525C142.68 14.475 142.48 15.3 142.08 16C141.68 16.7 141.155 17.25 140.505 17.65C139.83 18.05 139.105 18.325 138.33 18.5C137.555 18.675 136.73 18.75 135.83 18.75C132.655 18.8 131.08 19.8 131.08 21.775V23.925H142.605V26H128.88V21.775C128.88 20.825 129.08 20.025 129.48 19.325C129.88 18.65 130.405 18.125 131.105 17.775C131.805 17.425 132.53 17.15 133.305 16.975C134.055 16.825 134.905 16.725 135.805 16.725C136.305 16.725 136.83 16.675 137.33 16.575C137.83 16.475 138.355 16.325 138.855 16.1C139.355 15.875 139.755 15.55 140.055 15.1C140.355 14.675 140.53 14.15 140.53 13.55C140.53 12.4 140.08 11.55 139.205 11.025C138.305 10.525 137.23 10.25 135.93 10.2C134.655 10.2 133.555 10.45 132.605 10.95C131.655 11.45 131.18 12.25 131.18 13.35ZM148.475 8.5H150L160.725 21.9V8.5H162.875V26H161.375L150.625 12.65V26H148.475V8.5ZM174.543 18.9L167.768 8.575V8.5H170.418L175.668 16.8L181.043 8.5H183.693V8.575L176.793 18.9V26H174.543V18.9Z" fill="#1E1E1E"/>
<path d="M59.325 26H58.325C58.325 26.5523 58.7727 27 59.325 27V26ZM59.325 8.5V7.5C58.7727 7.5 58.325 7.94771 58.325 8.5H59.325ZM71.625 8.5H72.625C72.625 7.94771 72.1773 7.5 71.625 7.5V8.5ZM71.625 10.5V11.5C72.1773 11.5 72.625 11.0523 72.625 10.5H71.625ZM61.475 10.5V9.5C60.9227 9.5 60.475 9.94772 60.475 10.5H61.475ZM61.475 15.975H60.475C60.475 16.5273 60.9227 16.975 61.475 16.975V15.975ZM71.2 15.975H72.2C72.2 15.4227 71.7523 14.975 71.2 14.975V15.975ZM71.2 18V19C71.7523 19 72.2 18.5523 72.2 18H71.2ZM61.475 18V17C60.9227 17 60.475 17.4477 60.475 18H61.475ZM61.475 23.925H60.475C60.475 24.4773 60.9227 24.925 61.475 24.925V23.925ZM72.025 23.925H73.025C73.025 23.3727 72.5773 22.925 72.025 22.925V23.925ZM72.025 26V27C72.5773 27 73.025 26.5523 73.025 26H72.025ZM60.325 26V8.5H58.325V26H60.325ZM59.325 9.5H71.625V7.5H59.325V9.5ZM70.625 8.5V10.5H72.625V8.5H70.625ZM71.625 9.5H61.475V11.5H71.625V9.5ZM60.475 10.5V15.975H62.475V10.5H60.475ZM61.475 16.975H71.2V14.975H61.475V16.975ZM70.2 15.975V18H72.2V15.975H70.2ZM71.2 17H61.475V19H71.2V17ZM60.475 18V23.925H62.475V18H60.475ZM61.475 24.925H72.025V22.925H61.475V24.925ZM71.025 23.925V26H73.025V23.925H71.025ZM72.025 25H59.325V27H72.025V25ZM79.7842 8.5H80.7842C80.7842 7.94771 80.3365 7.5 79.7842 7.5V8.5ZM79.7842 23.975H78.7842C78.7842 24.5273 79.2319 24.975 79.7842 24.975V23.975ZM89.3092 23.975H90.3092C90.3092 23.4227 89.8615 22.975 89.3092 22.975V23.975ZM89.3092 26V27C89.8615 27 90.3092 26.5523 90.3092 26H89.3092ZM77.6092 26H76.6092C76.6092 26.5523 77.0569 27 77.6092 27V26ZM77.6092 8.5V7.5C77.0569 7.5 76.6092 7.94771 76.6092 8.5H77.6092ZM78.7842 8.5V23.975H80.7842V8.5H78.7842ZM79.7842 24.975H89.3092V22.975H79.7842V24.975ZM88.3092 23.975V26H90.3092V23.975H88.3092ZM89.3092 25H77.6092V27H89.3092V25ZM78.6092 26V8.5H76.6092V26H78.6092ZM77.6092 9.5H79.7842V7.5H77.6092V9.5ZM102.812 10.55L103.687 11.0331C103.858 10.7233 103.853 10.3463 103.673 10.0416C103.493 9.73695 103.166 9.55 102.812 9.55V10.55ZM92.5367 10.55H91.5367C91.5367 11.1023 91.9844 11.55 92.5367 11.55V10.55ZM92.5367 8.5V7.5C91.9844 7.5 91.5367 7.94771 91.5367 8.5H92.5367ZM105.337 8.5L106.329 8.37596C106.266 7.87554 105.841 7.5 105.337 7.5V8.5ZM105.512 9.9L106.39 10.3775C106.49 10.1938 106.53 9.98343 106.504 9.77596L105.512 9.9ZM96.7617 26V27C97.1282 27 97.4653 26.7995 97.6403 26.4775L96.7617 26ZM94.2867 26L93.4112 25.5169C93.2402 25.8267 93.2457 26.2037 93.4256 26.5084C93.6054 26.813 93.9329 27 94.2867 27V26ZM102.812 9.55H92.5367V11.55H102.812V9.55ZM93.5367 10.55V8.5H91.5367V10.55H93.5367ZM92.5367 9.5H105.337V7.5H92.5367V9.5ZM104.344 8.62403L104.519 10.024L106.504 9.77596L106.329 8.37596L104.344 8.62403ZM104.633 9.42249L95.8831 25.5225L97.6403 26.4775L106.39 10.3775L104.633 9.42249ZM96.7617 25H94.2867V27H96.7617V25ZM95.1623 26.4831L103.687 11.0331L101.936 10.0669L93.4112 25.5169L95.1623 26.4831ZM114.586 8.5V7.5C114.192 7.5 113.834 7.73128 113.673 8.09072L114.586 8.5ZM117.036 8.5L117.948 8.09072C117.787 7.73128 117.429 7.5 117.036 7.5V8.5ZM124.886 26V27C125.225 27 125.541 26.8281 125.725 26.5435C125.909 26.2588 125.937 25.9001 125.798 25.5907L124.886 26ZM122.536 26L121.623 26.4089C121.784 26.7685 122.141 27 122.536 27V26ZM120.811 22.15L121.723 21.7411C121.562 21.3815 121.205 21.15 120.811 21.15V22.15ZM110.811 22.15V21.15C110.414 21.15 110.056 21.3838 109.896 21.7461L110.811 22.15ZM109.111 26V27C109.507 27 109.865 26.7662 110.025 26.4039L109.111 26ZM106.736 26L105.823 25.5907C105.684 25.9001 105.712 26.2588 105.896 26.5435C106.08 26.8281 106.396 27 106.736 27V26ZM119.961 20.15V21.15C120.298 21.15 120.613 20.9795 120.798 20.6968C120.982 20.414 121.012 20.0571 120.876 19.7479L119.961 20.15ZM115.811 10.7L116.726 10.2979C116.567 9.9346 116.207 9.7 115.811 9.7C115.414 9.7 115.054 9.9346 114.895 10.2979L115.811 10.7ZM111.661 20.15L110.745 19.7479C110.609 20.0571 110.639 20.414 110.823 20.6968C111.008 20.9795 111.323 21.15 111.661 21.15V20.15ZM114.586 9.5H117.036V7.5H114.586V9.5ZM116.123 8.90928L123.973 26.4093L125.798 25.5907L117.948 8.09072L116.123 8.90928ZM124.886 25H122.536V27H124.886V25ZM123.448 25.5911L121.723 21.7411L119.898 22.5589L121.623 26.4089L123.448 25.5911ZM120.811 21.15H110.811V23.15H120.811V21.15ZM109.896 21.7461L108.196 25.5961L110.025 26.4039L111.725 22.5539L109.896 21.7461ZM109.111 25H106.736V27H109.111V25ZM107.648 26.4093L115.498 8.90928L113.673 8.09072L105.823 25.5907L107.648 26.4093ZM120.876 19.7479L116.726 10.2979L114.895 11.1021L119.045 20.5521L120.876 19.7479ZM114.895 10.2979L110.745 19.7479L112.576 20.5521L116.726 11.1021L114.895 10.2979ZM111.661 21.15H119.961V19.15H111.661V21.15ZM131.18 13.35V14.35C131.732 14.35 132.18 13.9023 132.18 13.35H131.18ZM129.005 13.35L128.005 13.323C127.998 13.5928 128.1 13.8541 128.288 14.0475C128.476 14.2409 128.735 14.35 129.005 14.35V13.35ZM129.68 10.925L130.535 11.444L130.54 11.4348L129.68 10.925ZM131.33 9.35L130.869 8.46216L130.857 8.46852L131.33 9.35ZM133.48 8.55L133.284 7.56942C133.273 7.5715 133.263 7.57375 133.252 7.57616L133.48 8.55ZM138.355 8.575L138.612 7.60876C138.602 7.60607 138.592 7.60353 138.582 7.60116L138.355 8.575ZM140.505 9.45L141.029 8.59834C141.024 8.59542 141.019 8.59254 141.014 8.58971L140.505 9.45ZM142.08 11.075L141.211 11.5711L141.211 11.5711L142.08 11.075ZM142.08 16L141.211 15.5039L141.211 15.5039L142.08 16ZM140.505 17.65L141.014 18.5103C141.019 18.5075 141.024 18.5046 141.029 18.5017L140.505 17.65ZM138.33 18.5L138.109 17.5246L138.109 17.5246L138.33 18.5ZM135.83 18.75V17.75C135.824 17.75 135.819 17.75 135.814 17.7501L135.83 18.75ZM131.08 23.925H130.08C130.08 24.4773 130.527 24.925 131.08 24.925V23.925ZM142.605 23.925H143.605C143.605 23.3727 143.157 22.925 142.605 22.925V23.925ZM142.605 26V27C143.157 27 143.605 26.5523 143.605 26H142.605ZM128.88 26H127.88C127.88 26.5523 128.327 27 128.88 27V26ZM129.48 19.325L128.619 18.8152C128.617 18.8197 128.614 18.8243 128.611 18.8289L129.48 19.325ZM131.105 17.775L131.552 18.6694L131.552 18.6694L131.105 17.775ZM133.305 16.975L133.109 15.9944C133.101 15.996 133.092 15.9977 133.084 15.9996L133.305 16.975ZM137.33 16.575L137.526 17.5556L137.526 17.5556L137.33 16.575ZM138.855 16.1L138.444 15.1881L138.444 15.1881L138.855 16.1ZM140.055 15.1L139.238 14.5233C139.233 14.5306 139.228 14.5379 139.223 14.5453L140.055 15.1ZM139.205 11.025L139.719 10.1675C139.71 10.1618 139.7 10.1562 139.69 10.1508L139.205 11.025ZM135.93 10.2L135.968 9.20074C135.955 9.20025 135.943 9.2 135.93 9.2V10.2ZM132.605 10.95L132.139 10.0651L132.139 10.0651L132.605 10.95ZM131.18 12.35H129.005V14.35H131.18V12.35ZM130.004 13.377C130.025 12.6057 130.21 11.9791 130.534 11.444L128.825 10.406C128.3 11.2709 128.034 12.2443 128.005 13.323L130.004 13.377ZM130.54 11.4348C130.846 10.9188 131.261 10.5214 131.802 10.2315L130.857 8.46852C129.999 8.92859 129.314 9.58123 128.819 10.4152L130.54 11.4348ZM131.79 10.2378C132.396 9.9235 133.043 9.67874 133.707 9.52384L133.252 7.57616C132.416 7.77126 131.613 8.0765 130.869 8.46225L131.79 10.2378ZM133.676 9.53058C134.372 9.39137 135.131 9.3 135.93 9.3V7.3C134.979 7.3 134.088 7.40862 133.284 7.56942L133.676 9.53058ZM135.93 9.3C136.703 9.3 137.452 9.39114 138.127 9.54884L138.582 7.60116C137.758 7.40885 136.857 7.3 135.93 7.3V9.3ZM138.097 9.54123C138.782 9.724 139.417 9.9681 139.995 10.3103L141.014 8.58971C140.242 8.1319 139.427 7.826 138.612 7.60876L138.097 9.54123ZM139.981 10.3017C140.493 10.6171 140.898 11.0219 141.211 11.5711L142.948 10.5789C142.462 9.72808 141.816 9.08288 141.029 8.59834L139.981 10.3017ZM141.211 11.5711C141.512 12.097 141.68 12.7454 141.68 13.525H143.68C143.68 12.4546 143.447 11.453 142.948 10.5789L141.211 11.5711ZM141.68 13.525C141.68 14.3322 141.511 14.9799 141.211 15.5039L142.948 16.4961C143.449 15.6201 143.68 14.6178 143.68 13.525H141.68ZM141.211 15.5039C140.89 16.0669 140.48 16.4911 139.981 16.7983L141.029 18.5017C141.83 18.0089 142.47 17.3331 142.948 16.4961L141.211 15.5039ZM139.995 16.7897C139.419 17.1308 138.794 17.37 138.109 17.5246L138.55 19.4754C139.415 19.28 140.24 18.9692 141.014 18.5103L139.995 16.7897ZM138.109 17.5246C137.423 17.6795 136.675 17.75 135.83 17.75V19.75C136.784 19.75 137.686 19.6705 138.55 19.4754L138.109 17.5246ZM135.814 17.7501C134.156 17.7762 132.748 18.0473 131.727 18.697C130.629 19.3955 130.08 20.4683 130.08 21.775H132.08C132.08 21.1067 132.317 20.692 132.801 20.3843C133.361 20.0277 134.328 19.7738 135.845 19.7499L135.814 17.7501ZM130.08 21.775V23.925H132.08V21.775H130.08ZM131.08 24.925H142.605V22.925H131.08V24.925ZM141.605 23.925V26H143.605V23.925H141.605ZM142.605 25H128.88V27H142.605V25ZM129.88 26V21.775H127.88V26H129.88ZM129.88 21.775C129.88 20.973 130.046 20.349 130.348 19.8211L128.611 18.8289C128.113 19.701 127.88 20.677 127.88 21.775H129.88ZM130.34 19.8348C130.655 19.303 131.045 18.9228 131.552 18.6694L130.657 16.8806C129.764 17.3272 129.104 17.997 128.619 18.8152L130.34 19.8348ZM131.552 18.6694C132.191 18.3497 132.84 18.105 133.525 17.9504L133.084 15.9996C132.219 16.195 131.418 16.5003 130.657 16.8806L131.552 18.6694ZM133.501 17.9556C134.194 17.817 134.978 17.725 135.805 17.725V15.725C134.832 15.725 133.916 15.833 133.109 15.9944L133.501 17.9556ZM135.805 17.725C136.369 17.725 136.959 17.6689 137.526 17.5556L137.134 15.5944C136.7 15.6811 136.241 15.725 135.805 15.725V17.725ZM137.526 17.5556C138.08 17.4448 138.68 17.2751 139.265 17.0119L138.444 15.1881C138.029 15.3749 137.58 15.5052 137.134 15.5944L137.526 17.5556ZM139.265 17.0119C139.922 16.7163 140.474 16.2737 140.887 15.6547L139.223 14.5453C139.035 14.8263 138.787 15.0337 138.444 15.1881L139.265 17.0119ZM140.872 15.6767C141.294 15.0787 141.53 14.3512 141.53 13.55H139.53C139.53 13.9488 139.416 14.2713 139.238 14.5233L140.872 15.6767ZM141.53 13.55C141.53 12.0976 140.935 10.897 139.719 10.1675L138.69 11.8825C139.224 12.203 139.53 12.7024 139.53 13.55H141.53ZM139.69 10.1508C138.625 9.5588 137.389 9.25538 135.968 9.20074L135.891 11.1993C137.071 11.2446 137.985 11.4912 138.719 11.8992L139.69 10.1508ZM135.93 9.2C134.521 9.2 133.256 9.47723 132.139 10.0651L133.07 11.8349C133.854 11.4228 134.788 11.2 135.93 11.2V9.2ZM132.139 10.0651C131.526 10.3876 131.022 10.8325 130.676 11.4145C130.331 11.9951 130.18 12.6533 130.18 13.35H132.18C132.18 12.9467 132.266 12.6549 132.396 12.4355C132.525 12.2175 132.733 12.0124 133.07 11.8349L132.139 10.0651ZM148.475 8.5V7.5C147.923 7.5 147.475 7.94771 147.475 8.5H148.475ZM150 8.5L150.781 7.87513C150.591 7.63802 150.304 7.5 150 7.5V8.5ZM160.725 21.9L159.945 22.5249C160.21 22.8564 160.656 22.9842 161.057 22.8436C161.457 22.703 161.725 22.3246 161.725 21.9H160.725ZM160.725 8.5V7.5C160.173 7.5 159.725 7.94771 159.725 8.5H160.725ZM162.875 8.5H163.875C163.875 7.94771 163.428 7.5 162.875 7.5V8.5ZM162.875 26V27C163.428 27 163.875 26.5523 163.875 26H162.875ZM161.375 26L160.597 26.6272C160.786 26.8629 161.073 27 161.375 27V26ZM150.625 12.65L151.404 12.0228C151.138 11.6925 150.693 11.5659 150.293 11.7069C149.893 11.8479 149.625 12.2259 149.625 12.65H150.625ZM150.625 26V27C151.178 27 151.625 26.5523 151.625 26H150.625ZM148.475 26H147.475C147.475 26.5523 147.923 27 148.475 27V26ZM148.475 9.5H150V7.5H148.475V9.5ZM149.22 9.12487L159.945 22.5249L161.506 21.2751L150.781 7.87513L149.22 9.12487ZM161.725 21.9V8.5H159.725V21.9H161.725ZM160.725 9.5H162.875V7.5H160.725V9.5ZM161.875 8.5V26H163.875V8.5H161.875ZM162.875 25H161.375V27H162.875V25ZM162.154 25.3728L151.404 12.0228L149.847 13.2772L160.597 26.6272L162.154 25.3728ZM149.625 12.65V26H151.625V12.65H149.625ZM150.625 25H148.475V27H150.625V25ZM149.475 26V8.5H147.475V26H149.475ZM174.543 18.9H175.543C175.543 18.7051 175.486 18.5144 175.379 18.3514L174.543 18.9ZM167.768 8.575H166.768C166.768 8.76994 166.825 8.96063 166.932 9.12361L167.768 8.575ZM167.768 8.5V7.5C167.216 7.5 166.768 7.94771 166.768 8.5H167.768ZM170.418 8.5L171.263 7.96543C171.08 7.67566 170.761 7.5 170.418 7.5V8.5ZM175.668 16.8L174.823 17.3346C175.006 17.6227 175.322 17.7982 175.663 17.8C176.004 17.8018 176.322 17.6298 176.508 17.3436L175.668 16.8ZM181.043 8.5V7.5C180.704 7.5 180.388 7.67182 180.204 7.95643L181.043 8.5ZM183.693 8.5H184.693C184.693 7.94771 184.246 7.5 183.693 7.5V8.5ZM183.693 8.575L184.525 9.13063C184.635 8.96617 184.693 8.7728 184.693 8.575H183.693ZM176.793 18.9L175.962 18.3444C175.852 18.5088 175.793 18.7022 175.793 18.9H176.793ZM176.793 26V27C177.346 27 177.793 26.5523 177.793 26H176.793ZM174.543 26H173.543C173.543 26.5523 173.991 27 174.543 27V26ZM175.379 18.3514L168.604 8.02639L166.932 9.12361L173.707 19.4486L175.379 18.3514ZM168.768 8.575V8.5H166.768V8.575H168.768ZM167.768 9.5H170.418V7.5H167.768V9.5ZM169.573 9.03457L174.823 17.3346L176.513 16.2654L171.263 7.96543L169.573 9.03457ZM176.508 17.3436L181.883 9.04356L180.204 7.95643L174.829 16.2564L176.508 17.3436ZM181.043 9.5H183.693V7.5H181.043V9.5ZM182.693 8.5V8.575H184.693V8.5H182.693ZM182.862 8.01937L175.962 18.3444L177.625 19.4556L184.525 9.13063L182.862 8.01937ZM175.793 18.9V26H177.793V18.9H175.793ZM176.793 25H174.543V27H176.793V25ZM175.543 26V18.9H173.543V26H175.543Z" fill="#1E1E1E" mask="url(#path-14-outside-3_468_76)"/>
<mask id="path-16-outside-4_468_76" maskUnits="userSpaceOnUse" x="58" y="31" width="128" height="11" fill="black">
<rect fill="white" x="58" y="31" width="128" height="11"/>
<path d="M66.272 32.6H66.968L63.512 41.024H62.816L59.36 32.6H60.056L63.164 40.28L66.272 32.6ZM71.796 41H71.16V32.6H71.796V41ZM80.5438 37.784L83.5078 41H82.6558L79.7518 37.82H77.4598V41H76.8118V32.6H80.5078C81.3718 32.6 82.0438 32.864 82.5238 33.38C83.0038 33.896 83.2558 34.508 83.2678 35.216C83.2678 35.948 83.0398 36.56 82.5598 37.052C82.0798 37.544 81.4078 37.784 80.5438 37.784ZM77.4598 33.2V37.208H80.4358C81.1318 37.208 81.6598 37.028 82.0198 36.668C82.3678 36.308 82.5478 35.828 82.5598 35.204C82.5598 34.676 82.3918 34.208 82.0318 33.8C81.6718 33.404 81.1558 33.2 80.5078 33.2H77.4598ZM89.6829 41V33.188H86.6469V32.612H93.3669V33.188H90.3309V41H89.6829ZM103.073 32.6H103.709V37.82C103.709 38.348 103.613 38.828 103.433 39.26C103.241 39.692 103.001 40.028 102.701 40.292C102.401 40.556 102.053 40.76 101.669 40.904C101.285 41.048 100.889 41.12 100.493 41.12C100.085 41.12 99.689 41.06 99.305 40.916C98.921 40.772 98.573 40.568 98.273 40.304C97.973 40.04 97.733 39.692 97.553 39.26C97.361 38.828 97.277 38.348 97.277 37.82V32.6H97.913V37.82C97.913 38.252 97.985 38.648 98.129 38.996C98.273 39.356 98.477 39.632 98.717 39.848C98.957 40.064 99.233 40.232 99.545 40.352C99.857 40.472 100.169 40.532 100.493 40.532C100.805 40.532 101.129 40.472 101.441 40.352C101.753 40.232 102.029 40.064 102.269 39.848C102.509 39.632 102.701 39.356 102.845 38.996C102.989 38.648 103.073 38.252 103.073 37.82V32.6ZM115.666 41H114.97L114.046 38.936H109.03L108.118 41H107.422L111.19 32.6H111.898L115.666 41ZM109.282 38.336H113.794L111.538 33.224L109.282 38.336ZM119.809 32.6H120.457V40.388H125.185V41H119.809V32.6ZM141.107 39.428L141.539 39.836C140.699 40.676 139.679 41.096 138.479 41.096C137.123 41.096 136.067 40.688 135.311 39.872C134.543 39.056 134.159 38.048 134.159 36.848C134.147 36.08 134.303 35.372 134.615 34.724C134.927 34.076 135.419 33.548 136.091 33.128C136.763 32.72 137.555 32.504 138.479 32.504C139.679 32.504 140.699 32.924 141.539 33.764L141.095 34.148C140.375 33.44 139.511 33.08 138.479 33.08C137.303 33.08 136.391 33.44 135.743 34.16C135.095 34.88 134.771 35.768 134.783 36.824C134.795 37.868 135.119 38.744 135.767 39.44C136.415 40.148 137.315 40.496 138.479 40.496C139.499 40.496 140.375 40.148 141.107 39.428ZM145.893 32.6H146.541V40.388H151.269V41H145.893V32.6ZM155.943 41H155.307V32.6H155.943V41ZM160.958 32.6H161.234L166.886 39.548V32.6H167.522V41H167.27L161.606 34.064V41H160.958V32.6ZM173.176 41H172.54V32.6H173.176V41ZM184.612 39.428L185.044 39.836C184.204 40.676 183.184 41.096 181.984 41.096C180.628 41.096 179.572 40.688 178.816 39.872C178.048 39.056 177.664 38.048 177.664 36.848C177.652 36.08 177.808 35.372 178.12 34.724C178.432 34.076 178.924 33.548 179.596 33.128C180.268 32.72 181.06 32.504 181.984 32.504C183.184 32.504 184.204 32.924 185.044 33.764L184.6 34.148C183.88 33.44 183.016 33.08 181.984 33.08C180.808 33.08 179.896 33.44 179.248 34.16C178.6 34.88 178.276 35.768 178.288 36.824C178.3 37.868 178.624 38.744 179.272 39.44C179.92 40.148 180.82 40.496 181.984 40.496C183.004 40.496 183.88 40.148 184.612 39.428Z"/>
</mask>
<path d="M66.272 32.6H66.968L63.512 41.024H62.816L59.36 32.6H60.056L63.164 40.28L66.272 32.6ZM71.796 41H71.16V32.6H71.796V41ZM80.5438 37.784L83.5078 41H82.6558L79.7518 37.82H77.4598V41H76.8118V32.6H80.5078C81.3718 32.6 82.0438 32.864 82.5238 33.38C83.0038 33.896 83.2558 34.508 83.2678 35.216C83.2678 35.948 83.0398 36.56 82.5598 37.052C82.0798 37.544 81.4078 37.784 80.5438 37.784ZM77.4598 33.2V37.208H80.4358C81.1318 37.208 81.6598 37.028 82.0198 36.668C82.3678 36.308 82.5478 35.828 82.5598 35.204C82.5598 34.676 82.3918 34.208 82.0318 33.8C81.6718 33.404 81.1558 33.2 80.5078 33.2H77.4598ZM89.6829 41V33.188H86.6469V32.612H93.3669V33.188H90.3309V41H89.6829ZM103.073 32.6H103.709V37.82C103.709 38.348 103.613 38.828 103.433 39.26C103.241 39.692 103.001 40.028 102.701 40.292C102.401 40.556 102.053 40.76 101.669 40.904C101.285 41.048 100.889 41.12 100.493 41.12C100.085 41.12 99.689 41.06 99.305 40.916C98.921 40.772 98.573 40.568 98.273 40.304C97.973 40.04 97.733 39.692 97.553 39.26C97.361 38.828 97.277 38.348 97.277 37.82V32.6H97.913V37.82C97.913 38.252 97.985 38.648 98.129 38.996C98.273 39.356 98.477 39.632 98.717 39.848C98.957 40.064 99.233 40.232 99.545 40.352C99.857 40.472 100.169 40.532 100.493 40.532C100.805 40.532 101.129 40.472 101.441 40.352C101.753 40.232 102.029 40.064 102.269 39.848C102.509 39.632 102.701 39.356 102.845 38.996C102.989 38.648 103.073 38.252 103.073 37.82V32.6ZM115.666 41H114.97L114.046 38.936H109.03L108.118 41H107.422L111.19 32.6H111.898L115.666 41ZM109.282 38.336H113.794L111.538 33.224L109.282 38.336ZM119.809 32.6H120.457V40.388H125.185V41H119.809V32.6ZM141.107 39.428L141.539 39.836C140.699 40.676 139.679 41.096 138.479 41.096C137.123 41.096 136.067 40.688 135.311 39.872C134.543 39.056 134.159 38.048 134.159 36.848C134.147 36.08 134.303 35.372 134.615 34.724C134.927 34.076 135.419 33.548 136.091 33.128C136.763 32.72 137.555 32.504 138.479 32.504C139.679 32.504 140.699 32.924 141.539 33.764L141.095 34.148C140.375 33.44 139.511 33.08 138.479 33.08C137.303 33.08 136.391 33.44 135.743 34.16C135.095 34.88 134.771 35.768 134.783 36.824C134.795 37.868 135.119 38.744 135.767 39.44C136.415 40.148 137.315 40.496 138.479 40.496C139.499 40.496 140.375 40.148 141.107 39.428ZM145.893 32.6H146.541V40.388H151.269V41H145.893V32.6ZM155.943 41H155.307V32.6H155.943V41ZM160.958 32.6H161.234L166.886 39.548V32.6H167.522V41H167.27L161.606 34.064V41H160.958V32.6ZM173.176 41H172.54V32.6H173.176V41ZM184.612 39.428L185.044 39.836C184.204 40.676 183.184 41.096 181.984 41.096C180.628 41.096 179.572 40.688 178.816 39.872C178.048 39.056 177.664 38.048 177.664 36.848C177.652 36.08 177.808 35.372 178.12 34.724C178.432 34.076 178.924 33.548 179.596 33.128C180.268 32.72 181.06 32.504 181.984 32.504C183.184 32.504 184.204 32.924 185.044 33.764L184.6 34.148C183.88 33.44 183.016 33.08 181.984 33.08C180.808 33.08 179.896 33.44 179.248 34.16C178.6 34.88 178.276 35.768 178.288 36.824C178.3 37.868 178.624 38.744 179.272 39.44C179.92 40.148 180.82 40.496 181.984 40.496C183.004 40.496 183.88 40.148 184.612 39.428Z" fill="#269689"/>
<path d="M66.272 32.6V32.1H65.935L65.8085 32.4124L66.272 32.6ZM66.968 32.6L67.4306 32.7898L67.7136 32.1H66.968V32.6ZM63.512 41.024V41.524H63.8473L63.9746 41.2138L63.512 41.024ZM62.816 41.024L62.3534 41.2138L62.4807 41.524H62.816V41.024ZM59.36 32.6V32.1H58.6144L58.8974 32.7898L59.36 32.6ZM60.056 32.6L60.5195 32.4124L60.393 32.1H60.056V32.6ZM63.164 40.28L62.7005 40.4676L63.164 41.6129L63.6275 40.4676L63.164 40.28ZM66.272 33.1H66.968V32.1H66.272V33.1ZM66.5054 32.4102L63.0494 40.8342L63.9746 41.2138L67.4306 32.7898L66.5054 32.4102ZM63.512 40.524H62.816V41.524H63.512V40.524ZM63.2786 40.8342L59.8226 32.4102L58.8974 32.7898L62.3534 41.2138L63.2786 40.8342ZM59.36 33.1H60.056V32.1H59.36V33.1ZM59.5925 32.7876L62.7005 40.4676L63.6275 40.0924L60.5195 32.4124L59.5925 32.7876ZM63.6275 40.4676L66.7355 32.7876L65.8085 32.4124L62.7005 40.0924L63.6275 40.4676ZM71.796 41V41.5H72.296V41H71.796ZM71.16 41H70.66V41.5H71.16V41ZM71.16 32.6V32.1H70.66V32.6H71.16ZM71.796 32.6H72.296V32.1H71.796V32.6ZM71.796 40.5H71.16V41.5H71.796V40.5ZM71.66 41V32.6H70.66V41H71.66ZM71.16 33.1H71.796V32.1H71.16V33.1ZM71.296 32.6V41H72.296V32.6H71.296ZM80.5438 37.784V37.284H79.403L80.1761 38.1229L80.5438 37.784ZM83.5078 41V41.5H84.6485L83.8754 40.6611L83.5078 41ZM82.6558 41L82.2865 41.3372L82.4352 41.5H82.6558V41ZM79.7518 37.82L80.121 37.4828L79.9723 37.32H79.7518V37.82ZM77.4598 37.82V37.32H76.9598V37.82H77.4598ZM77.4598 41V41.5H77.9598V41H77.4598ZM76.8118 41H76.3118V41.5H76.8118V41ZM76.8118 32.6V32.1H76.3118V32.6H76.8118ZM82.5238 33.38L82.8898 33.0394L82.8898 33.0394L82.5238 33.38ZM83.2678 35.216H83.7678L83.7677 35.2075L83.2678 35.216ZM82.5598 37.052L82.2019 36.7028L82.2019 36.7028L82.5598 37.052ZM77.4598 33.2V32.7H76.9598V33.2H77.4598ZM77.4598 37.208H76.9598V37.708H77.4598V37.208ZM82.0198 36.668L82.3734 37.0216L82.3792 37.0155L82.0198 36.668ZM82.5598 35.204L83.0598 35.2136V35.204H82.5598ZM82.0318 33.8L82.4067 33.4692L82.4017 33.4637L82.0318 33.8ZM80.1761 38.1229L83.1401 41.3389L83.8754 40.6611L80.9114 37.4451L80.1761 38.1229ZM83.5078 40.5H82.6558V41.5H83.5078V40.5ZM83.025 40.6628L80.121 37.4828L79.3825 38.1572L82.2865 41.3372L83.025 40.6628ZM79.7518 37.32H77.4598V38.32H79.7518V37.32ZM76.9598 37.82V41H77.9598V37.82H76.9598ZM77.4598 40.5H76.8118V41.5H77.4598V40.5ZM77.3118 41V32.6H76.3118V41H77.3118ZM76.8118 33.1H80.5078V32.1H76.8118V33.1ZM80.5078 33.1C81.2635 33.1 81.7913 33.3267 82.1577 33.7206L82.8898 33.0394C82.2962 32.4013 81.48 32.1 80.5078 32.1V33.1ZM82.1577 33.7206C82.5552 34.1479 82.758 34.6422 82.7678 35.2245L83.7677 35.2075C83.7535 34.3738 83.4523 33.6441 82.8898 33.0394L82.1577 33.7206ZM82.7678 35.216C82.7678 35.8333 82.5803 36.3149 82.2019 36.7028L82.9176 37.4012C83.4992 36.8051 83.7678 36.0627 83.7678 35.216H82.7678ZM82.2019 36.7028C81.8406 37.0732 81.3128 37.284 80.5438 37.284V38.284C81.5027 38.284 82.319 38.0148 82.9176 37.4012L82.2019 36.7028ZM76.9598 33.2V37.208H77.9598V33.2H76.9598ZM77.4598 37.708H80.4358V36.708H77.4598V37.708ZM80.4358 37.708C81.2145 37.708 81.8894 37.5055 82.3733 37.0216L81.6662 36.3144C81.4301 36.5505 81.049 36.708 80.4358 36.708V37.708ZM82.3792 37.0155C82.8336 36.5455 83.0458 35.9345 83.0597 35.2136L82.0598 35.1944C82.0497 35.7215 81.9019 36.0705 81.6603 36.3205L82.3792 37.0155ZM83.0598 35.204C83.0598 34.5581 82.8499 33.9715 82.4067 33.4692L81.6568 34.1308C81.9336 34.4445 82.0598 34.7939 82.0598 35.204H83.0598ZM82.4017 33.4637C81.9278 32.9423 81.2653 32.7 80.5078 32.7V33.7C81.0462 33.7 81.4157 33.8657 81.6618 34.1363L82.4017 33.4637ZM80.5078 32.7H77.4598V33.7H80.5078V32.7ZM89.6829 41H89.1829V41.5H89.6829V41ZM89.6829 33.188H90.1829V32.688H89.6829V33.188ZM86.6469 33.188H86.1469V33.688H86.6469V33.188ZM86.6469 32.612V32.112H86.1469V32.612H86.6469ZM93.3669 32.612H93.8669V32.112H93.3669V32.612ZM93.3669 33.188V33.688H93.8669V33.188H93.3669ZM90.3309 33.188V32.688H89.8309V33.188H90.3309ZM90.3309 41V41.5H90.8309V41H90.3309ZM90.1829 41V33.188H89.1829V41H90.1829ZM89.6829 32.688H86.6469V33.688H89.6829V32.688ZM87.1469 33.188V32.612H86.1469V33.188H87.1469ZM86.6469 33.112H93.3669V32.112H86.6469V33.112ZM92.8669 32.612V33.188H93.8669V32.612H92.8669ZM93.3669 32.688H90.3309V33.688H93.3669V32.688ZM89.8309 33.188V41H90.8309V33.188H89.8309ZM90.3309 40.5H89.6829V41.5H90.3309V40.5ZM103.073 32.6V32.1H102.573V32.6H103.073ZM103.709 32.6H104.209V32.1H103.709V32.6ZM103.433 39.26L103.89 39.4631L103.895 39.4523L103.433 39.26ZM102.701 40.292L103.031 40.6674L103.031 40.6674L102.701 40.292ZM101.669 40.904L101.845 41.3722L101.845 41.3722L101.669 40.904ZM99.305 40.916L99.1294 41.3842L99.1294 41.3842L99.305 40.916ZM98.273 40.304L97.9427 40.6794L97.9427 40.6794L98.273 40.304ZM97.553 39.26L98.0147 39.0676L98.0099 39.0569L97.553 39.26ZM97.277 32.6V32.1H96.777V32.6H97.277ZM97.913 32.6H98.413V32.1H97.913V32.6ZM98.129 38.996L98.5933 38.8103L98.591 38.8048L98.129 38.996ZM98.717 39.848L98.3825 40.2196L98.3825 40.2196L98.717 39.848ZM99.545 40.352L99.3655 40.8187L99.3655 40.8187L99.545 40.352ZM101.441 40.352L101.62 40.8187L101.62 40.8187L101.441 40.352ZM102.269 39.848L102.603 40.2196L102.603 40.2196L102.269 39.848ZM102.845 38.996L102.383 38.8048L102.381 38.8103L102.845 38.996ZM103.073 33.1H103.709V32.1H103.073V33.1ZM103.209 32.6V37.82H104.209V32.6H103.209ZM103.209 37.82C103.209 38.2861 103.125 38.7003 102.971 39.0677L103.895 39.4523C104.101 38.9557 104.209 38.4099 104.209 37.82H103.209ZM102.976 39.0569C102.809 39.4333 102.609 39.7072 102.371 39.9166L103.031 40.6674C103.393 40.3488 103.673 39.9507 103.89 39.4631L102.976 39.0569ZM102.371 39.9166C102.119 40.1378 101.825 40.3116 101.493 40.4358L101.845 41.3722C102.281 41.2084 102.683 40.9742 103.031 40.6674L102.371 39.9166ZM101.493 40.4358C101.164 40.5592 100.828 40.62 100.493 40.62V41.62C100.95 41.62 101.406 41.5368 101.845 41.3722L101.493 40.4358ZM100.493 40.62C100.135 40.62 99.7997 40.5675 99.4806 40.4478L99.1294 41.3842C99.5783 41.5525 100.035 41.62 100.493 41.62V40.62ZM99.4806 40.4478C99.1493 40.3236 98.8547 40.1498 98.6033 39.9286L97.9427 40.6794C98.2913 40.9862 98.6927 41.2204 99.1294 41.3842L99.4806 40.4478ZM98.6033 39.9286C98.3694 39.7228 98.1703 39.4414 98.0145 39.0677L97.0915 39.4523C97.2957 39.9426 97.5766 40.3572 97.9427 40.6794L98.6033 39.9286ZM98.0099 39.0569C97.8525 38.7028 97.777 38.2951 97.777 37.82H96.777C96.777 38.4009 96.8695 38.9532 97.0961 39.4631L98.0099 39.0569ZM97.777 37.82V32.6H96.777V37.82H97.777ZM97.277 33.1H97.913V32.1H97.277V33.1ZM97.413 32.6V37.82H98.413V32.6H97.413ZM97.413 37.82C97.413 38.307 97.4942 38.7695 97.667 39.1872L98.591 38.8048C98.4758 38.5265 98.413 38.197 98.413 37.82H97.413ZM97.6648 39.1817C97.8379 39.6146 98.0871 39.9538 98.3825 40.2196L99.0515 39.4764C98.8669 39.3102 98.7081 39.0974 98.5932 38.8103L97.6648 39.1817ZM98.3825 40.2196C98.6695 40.478 98.9985 40.6775 99.3655 40.8187L99.7245 39.8853C99.4675 39.7865 99.2445 39.65 99.0515 39.4764L98.3825 40.2196ZM99.3655 40.8187C99.7318 40.9596 100.105 41.032 100.493 41.032V40.032C100.233 40.032 99.9822 39.9844 99.7245 39.8853L99.3655 40.8187ZM100.493 41.032C100.868 41.032 101.253 40.96 101.62 40.8187L101.262 39.8853C101.005 39.984 100.742 40.032 100.493 40.032V41.032ZM101.62 40.8187C101.987 40.6775 102.316 40.478 102.603 40.2196L101.935 39.4764C101.742 39.65 101.519 39.7865 101.262 39.8853L101.62 40.8187ZM102.603 40.2196C102.906 39.9473 103.14 39.6053 103.309 39.1817L102.381 38.8103C102.262 39.1067 102.112 39.3167 101.935 39.4764L102.603 40.2196ZM103.307 39.1872C103.476 38.7784 103.573 38.3174 103.573 37.82H102.573C102.573 38.1866 102.502 38.5176 102.383 38.8048L103.307 39.1872ZM103.573 37.82V32.6H102.573V37.82H103.573ZM115.666 41V41.5H116.438L116.122 40.7954L115.666 41ZM114.97 41L114.514 41.2043L114.646 41.5H114.97V41ZM114.046 38.936L114.503 38.7317L114.37 38.436H114.046V38.936ZM109.03 38.936V38.436H108.704L108.573 38.7339L109.03 38.936ZM108.118 41V41.5H108.444L108.576 41.2021L108.118 41ZM107.422 41L106.966 40.7954L106.65 41.5H107.422V41ZM111.19 32.6V32.1H110.866L110.734 32.3954L111.19 32.6ZM111.898 32.6L112.354 32.3954L112.222 32.1H111.898V32.6ZM109.282 38.336L108.825 38.1341L108.515 38.836H109.282V38.336ZM113.794 38.336V38.836H114.561L114.252 38.1341L113.794 38.336ZM111.538 33.224L111.996 33.0221L111.538 31.9856L111.081 33.0221L111.538 33.224ZM115.666 40.5H114.97V41.5H115.666V40.5ZM115.427 40.7957L114.503 38.7317L113.59 39.1403L114.514 41.2043L115.427 40.7957ZM114.046 38.436H109.03V39.436H114.046V38.436ZM108.573 38.7339L107.661 40.7979L108.576 41.2021L109.488 39.1381L108.573 38.7339ZM108.118 40.5H107.422V41.5H108.118V40.5ZM107.878 41.2046L111.646 32.8046L110.734 32.3954L106.966 40.7954L107.878 41.2046ZM111.19 33.1H111.898V32.1H111.19V33.1ZM111.442 32.8046L115.21 41.2046L116.122 40.7954L112.354 32.3954L111.442 32.8046ZM109.282 38.836H113.794V37.836H109.282V38.836ZM114.252 38.1341L111.996 33.0221L111.081 33.4259L113.337 38.5379L114.252 38.1341ZM111.081 33.0221L108.825 38.1341L109.74 38.5379L111.996 33.4259L111.081 33.0221ZM119.809 32.6V32.1H119.309V32.6H119.809ZM120.457 32.6H120.957V32.1H120.457V32.6ZM120.457 40.388H119.957V40.888H120.457V40.388ZM125.185 40.388H125.685V39.888H125.185V40.388ZM125.185 41V41.5H125.685V41H125.185ZM119.809 41H119.309V41.5H119.809V41ZM119.809 33.1H120.457V32.1H119.809V33.1ZM119.957 32.6V40.388H120.957V32.6H119.957ZM120.457 40.888H125.185V39.888H120.457V40.888ZM124.685 40.388V41H125.685V40.388H124.685ZM125.185 40.5H119.809V41.5H125.185V40.5ZM120.309 41V32.6H119.309V41H120.309ZM141.107 39.428L141.45 39.0645L141.1 38.7336L140.756 39.0715L141.107 39.428ZM141.539 39.836L141.892 40.1896L142.256 39.8258L141.882 39.4725L141.539 39.836ZM135.311 39.872L135.678 39.5322L135.675 39.5293L135.311 39.872ZM134.159 36.848H134.659L134.659 36.8402L134.159 36.848ZM134.615 34.724L135.065 34.9409L135.065 34.9409L134.615 34.724ZM136.091 33.128L135.831 32.7006L135.826 32.704L136.091 33.128ZM141.539 33.764L141.866 34.1422L142.273 33.7905L141.892 33.4104L141.539 33.764ZM141.095 34.148L140.744 34.5045L141.073 34.8279L141.422 34.5262L141.095 34.148ZM134.783 36.824L134.283 36.8297L134.283 36.8297L134.783 36.824ZM135.767 39.44L136.136 39.1024L136.133 39.0993L135.767 39.44ZM140.764 39.7915L141.196 40.1995L141.882 39.4725L141.45 39.0645L140.764 39.7915ZM141.185 39.4824C140.44 40.2276 139.548 40.596 138.479 40.596V41.596C139.81 41.596 140.958 41.1244 141.892 40.1896L141.185 39.4824ZM138.479 40.596C137.229 40.596 136.319 40.2242 135.678 39.5322L134.944 40.2118C135.815 41.1518 137.017 41.596 138.479 41.596V40.596ZM135.675 39.5293C135.001 38.813 134.659 37.9305 134.659 36.848H133.659C133.659 38.1655 134.085 39.299 134.947 40.2147L135.675 39.5293ZM134.659 36.8402C134.648 36.1474 134.788 35.5166 135.065 34.9409L134.164 34.5071C133.818 35.2274 133.646 36.0126 133.659 36.8558L134.659 36.8402ZM135.065 34.9409C135.331 34.3883 135.754 33.9283 136.356 33.552L135.826 32.704C135.084 33.1677 134.522 33.7637 134.164 34.5071L135.065 34.9409ZM136.35 33.5554C136.936 33.2 137.636 33.004 138.479 33.004V32.004C137.474 32.004 136.59 32.24 135.831 32.7006L136.35 33.5554ZM138.479 33.004C139.548 33.004 140.44 33.3724 141.185 34.1176L141.892 33.4104C140.958 32.4756 139.81 32.004 138.479 32.004V33.004ZM141.212 33.3858L140.768 33.7698L141.422 34.5262L141.866 34.1422L141.212 33.3858ZM141.445 33.7915C140.632 32.992 139.643 32.58 138.479 32.58V33.58C139.379 33.58 140.117 33.888 140.744 34.5045L141.445 33.7915ZM138.479 32.58C137.194 32.58 136.134 32.978 135.371 33.8255L136.115 34.4945C136.648 33.902 137.412 33.58 138.479 33.58V32.58ZM135.371 33.8255C134.633 34.646 134.27 35.6583 134.283 36.8297L135.283 36.8183C135.272 35.8777 135.557 35.114 136.115 34.4945L135.371 33.8255ZM134.283 36.8297C134.296 37.9819 134.658 38.9823 135.401 39.7807L136.133 39.0993C135.58 38.5057 135.294 37.7541 135.283 36.8183L134.283 36.8297ZM135.398 39.7776C136.161 40.6116 137.208 40.996 138.479 40.996V39.996C137.421 39.996 136.668 39.6844 136.136 39.1024L135.398 39.7776ZM138.479 40.996C139.627 40.996 140.63 40.5987 141.458 39.7845L140.756 39.0715C140.12 39.6973 139.371 39.996 138.479 39.996V40.996ZM145.893 32.6V32.1H145.393V32.6H145.893ZM146.541 32.6H147.041V32.1H146.541V32.6ZM146.541 40.388H146.041V40.888H146.541V40.388ZM151.269 40.388H151.769V39.888H151.269V40.388ZM151.269 41V41.5H151.769V41H151.269ZM145.893 41H145.393V41.5H145.893V41ZM145.893 33.1H146.541V32.1H145.893V33.1ZM146.041 32.6V40.388H147.041V32.6H146.041ZM146.541 40.888H151.269V39.888H146.541V40.888ZM150.769 40.388V41H151.769V40.388H150.769ZM151.269 40.5H145.893V41.5H151.269V40.5ZM146.393 41V32.6H145.393V41H146.393ZM155.943 41V41.5H156.443V41H155.943ZM155.307 41H154.807V41.5H155.307V41ZM155.307 32.6V32.1H154.807V32.6H155.307ZM155.943 32.6H156.443V32.1H155.943V32.6ZM155.943 40.5H155.307V41.5H155.943V40.5ZM155.807 41V32.6H154.807V41H155.807ZM155.307 33.1H155.943V32.1H155.307V33.1ZM155.443 32.6V41H156.443V32.6H155.443ZM160.958 32.6V32.1H160.458V32.6H160.958ZM161.234 32.6L161.622 32.2845L161.472 32.1H161.234V32.6ZM166.886 39.548L166.499 39.8635L167.386 40.955V39.548H166.886ZM166.886 32.6V32.1H166.386V32.6H166.886ZM167.522 32.6H168.022V32.1H167.522V32.6ZM167.522 41V41.5H168.022V41H167.522ZM167.27 41L166.883 41.3163L167.033 41.5H167.27V41ZM161.606 34.064L161.994 33.7477L161.106 32.6612V34.064H161.606ZM161.606 41V41.5H162.106V41H161.606ZM160.958 41H160.458V41.5H160.958V41ZM160.958 33.1H161.234V32.1H160.958V33.1ZM160.847 32.9155L166.499 39.8635L167.274 39.2325L161.622 32.2845L160.847 32.9155ZM167.386 39.548V32.6H166.386V39.548H167.386ZM166.886 33.1H167.522V32.1H166.886V33.1ZM167.022 32.6V41H168.022V32.6H167.022ZM167.522 40.5H167.27V41.5H167.522V40.5ZM167.658 40.6837L161.994 33.7477L161.219 34.3803L166.883 41.3163L167.658 40.6837ZM161.106 34.064V41H162.106V34.064H161.106ZM161.606 40.5H160.958V41.5H161.606V40.5ZM161.458 41V32.6H160.458V41H161.458ZM173.176 41V41.5H173.676V41H173.176ZM172.54 41H172.04V41.5H172.54V41ZM172.54 32.6V32.1H172.04V32.6H172.54ZM173.176 32.6H173.676V32.1H173.176V32.6ZM173.176 40.5H172.54V41.5H173.176V40.5ZM173.04 41V32.6H172.04V41H173.04ZM172.54 33.1H173.176V32.1H172.54V33.1ZM172.676 32.6V41H173.676V32.6H172.676ZM184.612 39.428L184.955 39.0645L184.605 38.7336L184.261 39.0715L184.612 39.428ZM185.044 39.836L185.397 40.1896L185.761 39.8258L185.387 39.4725L185.044 39.836ZM178.816 39.872L179.182 39.5322L179.18 39.5293L178.816 39.872ZM177.664 36.848H178.164L178.164 36.8402L177.664 36.848ZM178.12 34.724L178.57 34.9409L178.57 34.9409L178.12 34.724ZM179.596 33.128L179.336 32.7006L179.331 32.704L179.596 33.128ZM185.044 33.764L185.371 34.1422L185.777 33.7905L185.397 33.4104L185.044 33.764ZM184.6 34.148L184.249 34.5045L184.578 34.8279L184.927 34.5262L184.6 34.148ZM178.288 36.824L177.788 36.8297L177.788 36.8297L178.288 36.824ZM179.272 39.44L179.64 39.1024L179.638 39.0993L179.272 39.44ZM184.268 39.7915L184.7 40.1995L185.387 39.4725L184.955 39.0645L184.268 39.7915ZM184.69 39.4824C183.945 40.2276 183.052 40.596 181.984 40.596V41.596C183.315 41.596 184.462 41.1244 185.397 40.1896L184.69 39.4824ZM181.984 40.596C180.734 40.596 179.824 40.2242 179.182 39.5322L178.449 40.2118C179.32 41.1518 180.521 41.596 181.984 41.596V40.596ZM179.18 39.5293C178.506 38.813 178.164 37.9305 178.164 36.848H177.164C177.164 38.1655 177.59 39.299 178.451 40.2147L179.18 39.5293ZM178.164 36.8402C178.153 36.1474 178.293 35.5166 178.57 34.9409L177.669 34.5071C177.322 35.2274 177.15 36.0126 177.164 36.8558L178.164 36.8402ZM178.57 34.9409C178.836 34.3883 179.259 33.9283 179.861 33.552L179.331 32.704C178.589 33.1677 178.027 33.7637 177.669 34.5071L178.57 34.9409ZM179.855 33.5554C180.44 33.2 181.141 33.004 181.984 33.004V32.004C180.978 32.004 180.095 32.24 179.336 32.7006L179.855 33.5554ZM181.984 33.004C183.052 33.004 183.945 33.3724 184.69 34.1176L185.397 33.4104C184.462 32.4756 183.315 32.004 181.984 32.004V33.004ZM184.717 33.3858L184.273 33.7698L184.927 34.5262L185.371 34.1422L184.717 33.3858ZM184.95 33.7915C184.137 32.992 183.147 32.58 181.984 32.58V33.58C182.884 33.58 183.622 33.888 184.249 34.5045L184.95 33.7915ZM181.984 32.58C180.699 32.58 179.639 32.978 178.876 33.8255L179.619 34.4945C180.152 33.902 180.916 33.58 181.984 33.58V32.58ZM178.876 33.8255C178.137 34.646 177.774 35.6583 177.788 36.8297L178.788 36.8183C178.777 35.8777 179.062 35.114 179.619 34.4945L178.876 33.8255ZM177.788 36.8297C177.801 37.9819 178.162 38.9823 178.906 39.7807L179.638 39.0993C179.085 38.5057 178.798 37.7541 178.788 36.8183L177.788 36.8297ZM178.903 39.7776C179.666 40.6116 180.713 40.996 181.984 40.996V39.996C180.926 39.996 180.173 39.6844 179.64 39.1024L178.903 39.7776ZM181.984 40.996C183.131 40.996 184.134 40.5987 184.962 39.7845L184.261 39.0715C183.625 39.6973 182.876 39.996 181.984 39.996V40.996Z" fill="#269689" mask="url(#path-16-outside-4_468_76)"/>
</svg>
