<svg width="188" height="48" viewBox="0 0 188 48" fill="none" xmlns="http://www.w3.org/2000/svg">
<circle cx="24.0525" cy="24.0525" r="22.4209" stroke="#064C58" stroke-width="2.73682"/>
<mask id="mask0_643_2" style="mask-type:alpha" maskUnits="userSpaceOnUse" x="4" y="4" width="40" height="40">
<circle cx="24.1052" cy="24.1049" r="19.2104" fill="#77DE8D"/>
</mask>
<g mask="url(#mask0_643_2)">
<rect x="-0.894775" y="-3.21045" width="25.0525" height="49.3681" fill="#77DE8D"/>
</g>
<mask id="mask1_643_2" style="mask-type:alpha" maskUnits="userSpaceOnUse" x="4" y="4" width="40" height="40">
<circle cx="24.105" cy="24.105" r="19.2104" transform="rotate(-180 24.105 24.105)" fill="#86CCEA"/>
</mask>
<g mask="url(#mask1_643_2)">
<rect x="49.105" y="51.4209" width="25.0525" height="49.3681" transform="rotate(-180 49.105 51.4209)" fill="#86CCEA"/>
</g>
<mask id="path-6-outside-1_643_2" maskUnits="userSpaceOnUse" x="8.99976" y="8.99951" width="30" height="30" fill="black">
<rect fill="white" x="8.99976" y="8.99951" width="30" height="30"/>
<path fill-rule="evenodd" clip-rule="evenodd" d="M24.0524 36.9995C26.4359 36.9995 28.3682 35.0673 28.3682 32.6838L28.3682 27.8419L32.6314 27.8419C35.044 27.8419 36.9998 25.8861 36.9998 23.4735C36.9998 21.0609 35.044 19.1051 32.6314 19.1051L28.3682 19.1051L28.3682 15.526C28.3682 13.1424 26.4359 11.2102 24.0524 11.2102C21.6689 11.2102 19.7367 13.1424 19.7367 15.526L19.7367 19.1051L15.5788 19.1051C13.1663 19.1051 11.2105 21.0609 11.2105 23.4735C11.2105 25.8861 13.1663 27.8419 15.5788 27.8419L19.7367 27.8419L19.7367 32.6838C19.7367 35.0673 21.6689 36.9995 24.0524 36.9995Z"/>
</mask>
<path fill-rule="evenodd" clip-rule="evenodd" d="M24.0524 36.9995C26.4359 36.9995 28.3682 35.0673 28.3682 32.6838L28.3682 27.8419L32.6314 27.8419C35.044 27.8419 36.9998 25.8861 36.9998 23.4735C36.9998 21.0609 35.044 19.1051 32.6314 19.1051L28.3682 19.1051L28.3682 15.526C28.3682 13.1424 26.4359 11.2102 24.0524 11.2102C21.6689 11.2102 19.7367 13.1424 19.7367 15.526L19.7367 19.1051L15.5788 19.1051C13.1663 19.1051 11.2105 21.0609 11.2105 23.4735C11.2105 25.8861 13.1663 27.8419 15.5788 27.8419L19.7367 27.8419L19.7367 32.6838C19.7367 35.0673 21.6689 36.9995 24.0524 36.9995Z" fill="#77DE8D"/>
<path d="M28.3682 32.6838L27.105 32.6838L28.3682 32.6838ZM28.3682 27.8419L28.3682 26.5787L27.105 26.5787L27.105 27.8419L28.3682 27.8419ZM32.6314 27.8419L32.6314 29.105L32.6314 27.8419ZM28.3682 19.1051L27.105 19.1051L27.105 20.3683L28.3682 20.3683L28.3682 19.1051ZM19.7367 19.1051L19.7367 20.3683L20.9998 20.3683L20.9998 19.1051L19.7367 19.1051ZM15.5788 19.1051L15.5788 20.3682L15.5788 19.1051ZM15.5788 27.8419L15.5788 29.105L15.5788 27.8419ZM19.7367 27.8419L20.9998 27.8419L20.9998 26.5787L19.7367 26.5787L19.7367 27.8419ZM27.105 32.6838C27.105 34.3697 25.7383 35.7364 24.0524 35.7364L24.0524 38.2627C27.1336 38.2627 29.6313 35.7649 29.6313 32.6838L27.105 32.6838ZM27.105 27.8419L27.105 32.6838L29.6313 32.6838L29.6313 27.8419L27.105 27.8419ZM32.6314 26.5787L28.3682 26.5787L28.3682 29.105L32.6314 29.105L32.6314 26.5787ZM35.7366 23.4735C35.7366 25.1885 34.3463 26.5787 32.6314 26.5787L32.6314 29.105C35.7416 29.105 38.2629 26.5837 38.2629 23.4735L35.7366 23.4735ZM32.6314 20.3683C34.3463 20.3683 35.7366 21.7585 35.7366 23.4735L38.2629 23.4735C38.2629 20.3633 35.7416 17.842 32.6314 17.842L32.6314 20.3683ZM28.3682 20.3683L32.6314 20.3683L32.6314 17.842L28.3682 17.842L28.3682 20.3683ZM27.105 15.526L27.105 19.1051L29.6313 19.1051L29.6313 15.526L27.105 15.526ZM24.0524 12.4734C25.7383 12.4734 27.105 13.8401 27.105 15.526L29.6313 15.526C29.6313 12.4448 27.1336 9.94706 24.0524 9.94706L24.0524 12.4734ZM20.9998 15.526C20.9998 13.8401 22.3665 12.4734 24.0524 12.4734L24.0524 9.94706C20.9713 9.94706 18.4735 12.4448 18.4735 15.526L20.9998 15.526ZM20.9998 19.1051L20.9998 15.526L18.4735 15.526L18.4735 19.1051L20.9998 19.1051ZM15.5788 20.3682L19.7367 20.3683L19.7367 17.842L15.5788 17.842L15.5788 20.3682ZM12.4736 23.4735C12.4736 21.7585 13.8639 20.3682 15.5788 20.3682L15.5788 17.842C12.4686 17.842 9.94731 20.3633 9.94731 23.4735L12.4736 23.4735ZM15.5788 26.5787C13.8639 26.5787 12.4736 25.1885 12.4736 23.4735L9.94731 23.4735C9.94731 26.5837 12.4686 29.105 15.5788 29.105L15.5788 26.5787ZM19.7367 26.5787L15.5788 26.5787L15.5788 29.105L19.7367 29.105L19.7367 26.5787ZM20.9998 32.6838L20.9998 27.8419L18.4735 27.8419L18.4735 32.6838L20.9998 32.6838ZM24.0524 35.7364C22.3665 35.7364 20.9998 34.3697 20.9998 32.6838L18.4735 32.6838C18.4735 35.7649 20.9713 38.2627 24.0524 38.2627L24.0524 35.7364Z" fill="white" mask="url(#path-6-outside-1_643_2)"/>
<mask id="mask2_643_2" style="mask-type:alpha" maskUnits="userSpaceOnUse" x="11" y="11" width="26" height="26">
<mask id="path-8-inside-2_643_2" fill="white">
<path fill-rule="evenodd" clip-rule="evenodd" d="M24.0524 36.9995C26.4359 36.9995 28.3682 35.0673 28.3682 32.6838L28.3682 27.8419L32.6314 27.8419C35.044 27.8419 36.9998 25.8861 36.9998 23.4735C36.9998 21.0609 35.044 19.1051 32.6314 19.1051L28.3682 19.1051L28.3682 15.526C28.3682 13.1424 26.4359 11.2102 24.0524 11.2102C21.6689 11.2102 19.7367 13.1424 19.7367 15.526L19.7367 19.1051L15.5788 19.1051C13.1663 19.1051 11.2105 21.0609 11.2105 23.4735C11.2105 25.8861 13.1663 27.8419 15.5788 27.8419L19.7367 27.8419L19.7367 32.6838C19.7367 35.0673 21.6689 36.9995 24.0524 36.9995Z"/>
</mask>
<path fill-rule="evenodd" clip-rule="evenodd" d="M24.0524 36.9995C26.4359 36.9995 28.3682 35.0673 28.3682 32.6838L28.3682 27.8419L32.6314 27.8419C35.044 27.8419 36.9998 25.8861 36.9998 23.4735C36.9998 21.0609 35.044 19.1051 32.6314 19.1051L28.3682 19.1051L28.3682 15.526C28.3682 13.1424 26.4359 11.2102 24.0524 11.2102C21.6689 11.2102 19.7367 13.1424 19.7367 15.526L19.7367 19.1051L15.5788 19.1051C13.1663 19.1051 11.2105 21.0609 11.2105 23.4735C11.2105 25.8861 13.1663 27.8419 15.5788 27.8419L19.7367 27.8419L19.7367 32.6838C19.7367 35.0673 21.6689 36.9995 24.0524 36.9995Z" fill="#86CCEA"/>
<path d="M28.3682 32.6838L27.105 32.6838L28.3682 32.6838ZM28.3682 27.8419L28.3682 26.5787L27.105 26.5787L27.105 27.8419L28.3682 27.8419ZM32.6314 27.8419L32.6314 29.105L32.6314 27.8419ZM28.3682 19.1051L27.105 19.1051L27.105 20.3683L28.3682 20.3683L28.3682 19.1051ZM19.7367 19.1051L19.7367 20.3683L20.9998 20.3683L20.9998 19.1051L19.7367 19.1051ZM15.5788 19.1051L15.5788 20.3682L15.5788 19.1051ZM15.5788 27.8419L15.5788 29.105L15.5788 27.8419ZM19.7367 27.8419L20.9998 27.8419L20.9998 26.5787L19.7367 26.5787L19.7367 27.8419ZM27.105 32.6838C27.105 34.3697 25.7383 35.7364 24.0524 35.7364L24.0524 38.2627C27.1336 38.2627 29.6313 35.7649 29.6313 32.6838L27.105 32.6838ZM27.105 27.8419L27.105 32.6838L29.6313 32.6838L29.6313 27.8419L27.105 27.8419ZM32.6314 26.5787L28.3682 26.5787L28.3682 29.105L32.6314 29.105L32.6314 26.5787ZM35.7366 23.4735C35.7366 25.1885 34.3463 26.5787 32.6314 26.5787L32.6314 29.105C35.7416 29.105 38.2629 26.5837 38.2629 23.4735L35.7366 23.4735ZM32.6314 20.3683C34.3463 20.3683 35.7366 21.7585 35.7366 23.4735L38.2629 23.4735C38.2629 20.3633 35.7416 17.842 32.6314 17.842L32.6314 20.3683ZM28.3682 20.3683L32.6314 20.3683L32.6314 17.842L28.3682 17.842L28.3682 20.3683ZM27.105 15.526L27.105 19.1051L29.6313 19.1051L29.6313 15.526L27.105 15.526ZM24.0524 12.4734C25.7383 12.4734 27.105 13.8401 27.105 15.526L29.6313 15.526C29.6313 12.4448 27.1336 9.94706 24.0524 9.94706L24.0524 12.4734ZM20.9998 15.526C20.9998 13.8401 22.3665 12.4734 24.0524 12.4734L24.0524 9.94706C20.9713 9.94706 18.4735 12.4448 18.4735 15.526L20.9998 15.526ZM20.9998 19.1051L20.9998 15.526L18.4735 15.526L18.4735 19.1051L20.9998 19.1051ZM15.5788 20.3682L19.7367 20.3683L19.7367 17.842L15.5788 17.842L15.5788 20.3682ZM12.4736 23.4735C12.4736 21.7585 13.8639 20.3682 15.5788 20.3682L15.5788 17.842C12.4686 17.842 9.94731 20.3633 9.94731 23.4735L12.4736 23.4735ZM15.5788 26.5787C13.8639 26.5787 12.4736 25.1885 12.4736 23.4735L9.94731 23.4735C9.94731 26.5837 12.4686 29.105 15.5788 29.105L15.5788 26.5787ZM19.7367 26.5787L15.5788 26.5787L15.5788 29.105L19.7367 29.105L19.7367 26.5787ZM20.9998 32.6838L20.9998 27.8419L18.4735 27.8419L18.4735 32.6838L20.9998 32.6838ZM24.0524 35.7364C22.3665 35.7364 20.9998 34.3697 20.9998 32.6838L18.4735 32.6838C18.4735 35.7649 20.9713 38.2627 24.0524 38.2627L24.0524 35.7364Z" fill="white" mask="url(#path-8-inside-2_643_2)"/>
</mask>
<g mask="url(#mask2_643_2)">
<rect x="41.2102" y="43.3154" width="17.0525" height="36.5261" transform="rotate(-180 41.2102 43.3154)" fill="#86CCEA"/>
</g>
<path d="M13.6316 21.7365C14.0743 20.8978 14.4274 20.586 15.4211 20.5786" stroke="white" stroke-width="0.8421" stroke-linecap="round"/>
<path d="M34.7893 25.4207C34.3466 26.2595 33.9935 26.5712 32.9998 26.5786" stroke="white" stroke-width="0.8421" stroke-linecap="round"/>
<line x1="24.162" y1="38.159" x2="24.0525" y2="11.0013" stroke="#FFFDFD" stroke-width="0.631575"/>
<path d="M59.325 26V8.5H71.625V10.5H61.475V15.975H71.2V18H61.475V23.925H72.025V26H59.325ZM79.7842 8.5V23.975H89.3092V26H77.6092V8.5H79.7842ZM102.812 10.55H92.5367V8.5H105.337L105.512 9.9L96.7617 26H94.2867L102.812 10.55ZM114.586 8.5H117.036L124.886 26H122.536L120.811 22.15H110.811L109.111 26H106.736L114.586 8.5ZM119.961 20.15L115.811 10.7L111.661 20.15H119.961ZM131.18 13.35H129.005C129.03 12.425 129.255 11.625 129.68 10.925C130.08 10.25 130.63 9.725 131.33 9.35C132.005 9 132.73 8.725 133.48 8.55C134.23 8.4 135.055 8.3 135.93 8.3C136.78 8.3 137.605 8.4 138.355 8.575C139.105 8.775 139.83 9.05 140.505 9.45C141.155 9.85 141.68 10.375 142.08 11.075C142.48 11.775 142.68 12.6 142.68 13.525C142.68 14.475 142.48 15.3 142.08 16C141.68 16.7 141.155 17.25 140.505 17.65C139.83 18.05 139.105 18.325 138.33 18.5C137.555 18.675 136.73 18.75 135.83 18.75C132.655 18.8 131.08 19.8 131.08 21.775V23.925H142.605V26H128.88V21.775C128.88 20.825 129.08 20.025 129.48 19.325C129.88 18.65 130.405 18.125 131.105 17.775C131.805 17.425 132.53 17.15 133.305 16.975C134.055 16.825 134.905 16.725 135.805 16.725C136.305 16.725 136.83 16.675 137.33 16.575C137.83 16.475 138.355 16.325 138.855 16.1C139.355 15.875 139.755 15.55 140.055 15.1C140.355 14.675 140.53 14.15 140.53 13.55C140.53 12.4 140.08 11.55 139.205 11.025C138.305 10.525 137.23 10.25 135.93 10.2C134.655 10.2 133.555 10.45 132.605 10.95C131.655 11.45 131.18 12.25 131.18 13.35ZM148.475 8.5H150L160.725 21.9V8.5H162.875V26H161.375L150.625 12.65V26H148.475V8.5ZM174.543 18.9L167.768 8.575V8.5H170.418L175.668 16.8L181.043 8.5H183.693V8.575L176.793 18.9V26H174.543V18.9Z" fill="#FFFFF0"/>
<mask id="path-15-outside-3_643_2" maskUnits="userSpaceOnUse" x="57" y="30" width="130" height="13" fill="black">
<rect fill="white" x="57" y="30" width="130" height="13"/>
<path d="M66.272 32.6H66.968L63.512 41.024H62.816L59.36 32.6H60.056L63.164 40.28L66.272 32.6ZM71.796 41H71.16V32.6H71.796V41ZM80.5438 37.784L83.5078 41H82.6558L79.7518 37.82H77.4598V41H76.8118V32.6H80.5078C81.3718 32.6 82.0438 32.864 82.5238 33.38C83.0038 33.896 83.2558 34.508 83.2678 35.216C83.2678 35.948 83.0398 36.56 82.5598 37.052C82.0798 37.544 81.4078 37.784 80.5438 37.784ZM77.4598 33.2V37.208H80.4358C81.1318 37.208 81.6598 37.028 82.0198 36.668C82.3678 36.308 82.5478 35.828 82.5598 35.204C82.5598 34.676 82.3918 34.208 82.0318 33.8C81.6718 33.404 81.1558 33.2 80.5078 33.2H77.4598ZM89.6829 41V33.188H86.6469V32.612H93.3669V33.188H90.3309V41H89.6829ZM103.073 32.6H103.709V37.82C103.709 38.348 103.613 38.828 103.433 39.26C103.241 39.692 103.001 40.028 102.701 40.292C102.401 40.556 102.053 40.76 101.669 40.904C101.285 41.048 100.889 41.12 100.493 41.12C100.085 41.12 99.689 41.06 99.305 40.916C98.921 40.772 98.573 40.568 98.273 40.304C97.973 40.04 97.733 39.692 97.553 39.26C97.361 38.828 97.277 38.348 97.277 37.82V32.6H97.913V37.82C97.913 38.252 97.985 38.648 98.129 38.996C98.273 39.356 98.477 39.632 98.717 39.848C98.957 40.064 99.233 40.232 99.545 40.352C99.857 40.472 100.169 40.532 100.493 40.532C100.805 40.532 101.129 40.472 101.441 40.352C101.753 40.232 102.029 40.064 102.269 39.848C102.509 39.632 102.701 39.356 102.845 38.996C102.989 38.648 103.073 38.252 103.073 37.82V32.6ZM115.666 41H114.97L114.046 38.936H109.03L108.118 41H107.422L111.19 32.6H111.898L115.666 41ZM109.282 38.336H113.794L111.538 33.224L109.282 38.336ZM119.809 32.6H120.457V40.388H125.185V41H119.809V32.6ZM141.107 39.428L141.539 39.836C140.699 40.676 139.679 41.096 138.479 41.096C137.123 41.096 136.067 40.688 135.311 39.872C134.543 39.056 134.159 38.048 134.159 36.848C134.147 36.08 134.303 35.372 134.615 34.724C134.927 34.076 135.419 33.548 136.091 33.128C136.763 32.72 137.555 32.504 138.479 32.504C139.679 32.504 140.699 32.924 141.539 33.764L141.095 34.148C140.375 33.44 139.511 33.08 138.479 33.08C137.303 33.08 136.391 33.44 135.743 34.16C135.095 34.88 134.771 35.768 134.783 36.824C134.795 37.868 135.119 38.744 135.767 39.44C136.415 40.148 137.315 40.496 138.479 40.496C139.499 40.496 140.375 40.148 141.107 39.428ZM145.893 32.6H146.541V40.388H151.269V41H145.893V32.6ZM155.943 41H155.307V32.6H155.943V41ZM160.958 32.6H161.234L166.886 39.548V32.6H167.522V41H167.27L161.606 34.064V41H160.958V32.6ZM173.176 41H172.54V32.6H173.176V41ZM184.612 39.428L185.044 39.836C184.204 40.676 183.184 41.096 181.984 41.096C180.628 41.096 179.572 40.688 178.816 39.872C178.048 39.056 177.664 38.048 177.664 36.848C177.652 36.08 177.808 35.372 178.12 34.724C178.432 34.076 178.924 33.548 179.596 33.128C180.268 32.72 181.06 32.504 181.984 32.504C183.184 32.504 184.204 32.924 185.044 33.764L184.6 34.148C183.88 33.44 183.016 33.08 181.984 33.08C180.808 33.08 179.896 33.44 179.248 34.16C178.6 34.88 178.276 35.768 178.288 36.824C178.3 37.868 178.624 38.744 179.272 39.44C179.92 40.148 180.82 40.496 181.984 40.496C183.004 40.496 183.88 40.148 184.612 39.428Z"/>
</mask>
<path d="M66.272 32.6H66.968L63.512 41.024H62.816L59.36 32.6H60.056L63.164 40.28L66.272 32.6ZM71.796 41H71.16V32.6H71.796V41ZM80.5438 37.784L83.5078 41H82.6558L79.7518 37.82H77.4598V41H76.8118V32.6H80.5078C81.3718 32.6 82.0438 32.864 82.5238 33.38C83.0038 33.896 83.2558 34.508 83.2678 35.216C83.2678 35.948 83.0398 36.56 82.5598 37.052C82.0798 37.544 81.4078 37.784 80.5438 37.784ZM77.4598 33.2V37.208H80.4358C81.1318 37.208 81.6598 37.028 82.0198 36.668C82.3678 36.308 82.5478 35.828 82.5598 35.204C82.5598 34.676 82.3918 34.208 82.0318 33.8C81.6718 33.404 81.1558 33.2 80.5078 33.2H77.4598ZM89.6829 41V33.188H86.6469V32.612H93.3669V33.188H90.3309V41H89.6829ZM103.073 32.6H103.709V37.82C103.709 38.348 103.613 38.828 103.433 39.26C103.241 39.692 103.001 40.028 102.701 40.292C102.401 40.556 102.053 40.76 101.669 40.904C101.285 41.048 100.889 41.12 100.493 41.12C100.085 41.12 99.689 41.06 99.305 40.916C98.921 40.772 98.573 40.568 98.273 40.304C97.973 40.04 97.733 39.692 97.553 39.26C97.361 38.828 97.277 38.348 97.277 37.82V32.6H97.913V37.82C97.913 38.252 97.985 38.648 98.129 38.996C98.273 39.356 98.477 39.632 98.717 39.848C98.957 40.064 99.233 40.232 99.545 40.352C99.857 40.472 100.169 40.532 100.493 40.532C100.805 40.532 101.129 40.472 101.441 40.352C101.753 40.232 102.029 40.064 102.269 39.848C102.509 39.632 102.701 39.356 102.845 38.996C102.989 38.648 103.073 38.252 103.073 37.82V32.6ZM115.666 41H114.97L114.046 38.936H109.03L108.118 41H107.422L111.19 32.6H111.898L115.666 41ZM109.282 38.336H113.794L111.538 33.224L109.282 38.336ZM119.809 32.6H120.457V40.388H125.185V41H119.809V32.6ZM141.107 39.428L141.539 39.836C140.699 40.676 139.679 41.096 138.479 41.096C137.123 41.096 136.067 40.688 135.311 39.872C134.543 39.056 134.159 38.048 134.159 36.848C134.147 36.08 134.303 35.372 134.615 34.724C134.927 34.076 135.419 33.548 136.091 33.128C136.763 32.72 137.555 32.504 138.479 32.504C139.679 32.504 140.699 32.924 141.539 33.764L141.095 34.148C140.375 33.44 139.511 33.08 138.479 33.08C137.303 33.08 136.391 33.44 135.743 34.16C135.095 34.88 134.771 35.768 134.783 36.824C134.795 37.868 135.119 38.744 135.767 39.44C136.415 40.148 137.315 40.496 138.479 40.496C139.499 40.496 140.375 40.148 141.107 39.428ZM145.893 32.6H146.541V40.388H151.269V41H145.893V32.6ZM155.943 41H155.307V32.6H155.943V41ZM160.958 32.6H161.234L166.886 39.548V32.6H167.522V41H167.27L161.606 34.064V41H160.958V32.6ZM173.176 41H172.54V32.6H173.176V41ZM184.612 39.428L185.044 39.836C184.204 40.676 183.184 41.096 181.984 41.096C180.628 41.096 179.572 40.688 178.816 39.872C178.048 39.056 177.664 38.048 177.664 36.848C177.652 36.08 177.808 35.372 178.12 34.724C178.432 34.076 178.924 33.548 179.596 33.128C180.268 32.72 181.06 32.504 181.984 32.504C183.184 32.504 184.204 32.924 185.044 33.764L184.6 34.148C183.88 33.44 183.016 33.08 181.984 33.08C180.808 33.08 179.896 33.44 179.248 34.16C178.6 34.88 178.276 35.768 178.288 36.824C178.3 37.868 178.624 38.744 179.272 39.44C179.92 40.148 180.82 40.496 181.984 40.496C183.004 40.496 183.88 40.148 184.612 39.428Z" fill="#77DE8D"/>
<path d="M66.272 32.6V31.6H65.5979L65.345 32.2249L66.272 32.6ZM66.968 32.6L67.8932 32.9796L68.4591 31.6H66.968V32.6ZM63.512 41.024V42.024H64.1826L64.4372 41.4036L63.512 41.024ZM62.816 41.024L61.8908 41.4036L62.1454 42.024H62.816V41.024ZM59.36 32.6V31.6H57.8689L58.4348 32.9796L59.36 32.6ZM60.056 32.6L60.983 32.2249L60.7301 31.6H60.056V32.6ZM63.164 40.28L62.237 40.6551L63.164 42.9457L64.091 40.6551L63.164 40.28ZM66.272 33.6H66.968V31.6H66.272V33.6ZM66.0428 32.2204L62.5868 40.6444L64.4372 41.4036L67.8932 32.9796L66.0428 32.2204ZM63.512 40.024H62.816V42.024H63.512V40.024ZM63.7412 40.6444L60.2852 32.2204L58.4348 32.9796L61.8908 41.4036L63.7412 40.6444ZM59.36 33.6H60.056V31.6H59.36V33.6ZM59.129 32.9751L62.237 40.6551L64.091 39.9049L60.983 32.2249L59.129 32.9751ZM64.091 40.6551L67.199 32.9751L65.345 32.2249L62.237 39.9049L64.091 40.6551ZM71.796 41V42H72.796V41H71.796ZM71.16 41H70.16V42H71.16V41ZM71.16 32.6V31.6H70.16V32.6H71.16ZM71.796 32.6H72.796V31.6H71.796V32.6ZM71.796 40H71.16V42H71.796V40ZM72.16 41V32.6H70.16V41H72.16ZM71.16 33.6H71.796V31.6H71.16V33.6ZM70.796 32.6V41H72.796V32.6H70.796ZM80.5438 37.784V36.784H78.2622L79.8084 38.4617L80.5438 37.784ZM83.5078 41V42H85.7893L84.2431 40.3223L83.5078 41ZM82.6558 41L81.9173 41.6743L82.2147 42H82.6558V41ZM79.7518 37.82L80.4902 37.1457L80.1928 36.82H79.7518V37.82ZM77.4598 37.82V36.82H76.4598V37.82H77.4598ZM77.4598 41V42H78.4598V41H77.4598ZM76.8118 41H75.8118V42H76.8118V41ZM76.8118 32.6V31.6H75.8118V32.6H76.8118ZM82.5238 33.38L83.2559 32.6989L83.2559 32.6989L82.5238 33.38ZM83.2678 35.216H84.2678V35.2075L84.2676 35.1991L83.2678 35.216ZM82.5598 37.052L81.844 36.3537L81.844 36.3537L82.5598 37.052ZM77.4598 33.2V32.2H76.4598V33.2H77.4598ZM77.4598 37.208H76.4598V38.208H77.4598V37.208ZM82.0198 36.668L82.7269 37.3751L82.7329 37.3691L82.7387 37.363L82.0198 36.668ZM82.5598 35.204L83.5596 35.2232L83.5598 35.2136V35.204H82.5598ZM82.0318 33.8L82.7816 33.1384L82.7767 33.1328L82.7717 33.1273L82.0318 33.8ZM79.8084 38.4617L82.7724 41.6777L84.2431 40.3223L81.2791 37.1063L79.8084 38.4617ZM83.5078 40H82.6558V42H83.5078V40ZM83.3942 40.3257L80.4902 37.1457L79.0133 38.4943L81.9173 41.6743L83.3942 40.3257ZM79.7518 36.82H77.4598V38.82H79.7518V36.82ZM76.4598 37.82V41H78.4598V37.82H76.4598ZM77.4598 40H76.8118V42H77.4598V40ZM77.8118 41V32.6H75.8118V41H77.8118ZM76.8118 33.6H80.5078V31.6H76.8118V33.6ZM80.5078 33.6C81.1553 33.6 81.5388 33.7894 81.7916 34.0611L83.2559 32.6989C82.5487 31.9386 81.5882 31.6 80.5078 31.6V33.6ZM81.7916 34.0611C82.1066 34.3998 82.2602 34.7765 82.2679 35.2329L84.2676 35.1991C84.2513 34.2395 83.9009 33.3922 83.2559 32.6989L81.7916 34.0611ZM82.2678 35.216C82.2678 35.7186 82.1209 36.0698 81.844 36.3537L83.2755 37.7503C83.9586 37.0502 84.2678 36.1774 84.2678 35.216H82.2678ZM81.844 36.3537C81.6013 36.6024 81.2179 36.784 80.5438 36.784V38.784C81.5976 38.784 82.5582 38.4856 83.2755 37.7503L81.844 36.3537ZM76.4598 33.2V37.208H78.4598V33.2H76.4598ZM77.4598 38.208H80.4358V36.208H77.4598V38.208ZM80.4358 38.208C81.2973 38.208 82.119 37.983 82.7269 37.3751L81.3126 35.9609C81.2005 36.073 80.9662 36.208 80.4358 36.208V38.208ZM82.7387 37.363C83.2994 36.783 83.5438 36.0411 83.5596 35.2232L81.5599 35.1848C81.5517 35.6149 81.4361 35.833 81.3008 35.973L82.7387 37.363ZM83.5598 35.204C83.5598 34.4403 83.308 33.7349 82.7816 33.1384L81.2819 34.4616C81.4755 34.6811 81.5598 34.9117 81.5598 35.204H83.5598ZM82.7717 33.1273C82.1838 32.4806 81.3749 32.2 80.5078 32.2V34.2C80.9366 34.2 81.1597 34.3274 81.2918 34.4727L82.7717 33.1273ZM80.5078 32.2H77.4598V34.2H80.5078V32.2ZM89.6829 41H88.6829V42H89.6829V41ZM89.6829 33.188H90.6829V32.188H89.6829V33.188ZM86.6469 33.188H85.6469V34.188H86.6469V33.188ZM86.6469 32.612V31.612H85.6469V32.612H86.6469ZM93.3669 32.612H94.3669V31.612H93.3669V32.612ZM93.3669 33.188V34.188H94.3669V33.188H93.3669ZM90.3309 33.188V32.188H89.3309V33.188H90.3309ZM90.3309 41V42H91.3309V41H90.3309ZM90.6829 41V33.188H88.6829V41H90.6829ZM89.6829 32.188H86.6469V34.188H89.6829V32.188ZM87.6469 33.188V32.612H85.6469V33.188H87.6469ZM86.6469 33.612H93.3669V31.612H86.6469V33.612ZM92.3669 32.612V33.188H94.3669V32.612H92.3669ZM93.3669 32.188H90.3309V34.188H93.3669V32.188ZM89.3309 33.188V41H91.3309V33.188H89.3309ZM90.3309 40H89.6829V42H90.3309V40ZM103.073 32.6V31.6H102.073V32.6H103.073ZM103.709 32.6H104.709V31.6H103.709V32.6ZM103.433 39.26L104.347 39.6661L104.352 39.6554L104.356 39.6446L103.433 39.26ZM102.701 40.292L103.362 41.0427L103.362 41.0427L102.701 40.292ZM101.669 40.904L102.02 41.8403L102.02 41.8403L101.669 40.904ZM99.305 40.916L98.9539 41.8523L98.9539 41.8523L99.305 40.916ZM98.273 40.304L97.6124 41.0547L97.6124 41.0547L98.273 40.304ZM97.553 39.26L98.4761 38.8754L98.4716 38.8646L98.4668 38.8539L97.553 39.26ZM97.277 32.6V31.6H96.277V32.6H97.277ZM97.913 32.6H98.913V31.6H97.913V32.6ZM98.129 38.996L99.0575 38.6246L99.053 38.6136L98.129 38.996ZM98.717 39.848L98.048 40.5913L98.048 40.5913L98.717 39.848ZM99.545 40.352L99.186 41.2853L99.186 41.2853L99.545 40.352ZM101.441 40.352L101.8 41.2853L101.8 41.2853L101.441 40.352ZM102.269 39.848L102.938 40.5913L102.938 40.5913L102.269 39.848ZM102.845 38.996L101.921 38.6136L101.917 38.6246L102.845 38.996ZM103.073 33.6H103.709V31.6H103.073V33.6ZM102.709 32.6V37.82H104.709V32.6H102.709ZM102.709 37.82C102.709 38.2243 102.636 38.5727 102.51 38.8754L104.356 39.6446C104.59 39.0833 104.709 38.4717 104.709 37.82H102.709ZM102.519 38.8539C102.377 39.1747 102.216 39.3864 102.04 39.5413L103.362 41.0427C103.786 40.6696 104.105 40.2093 104.347 39.6661L102.519 38.8539ZM102.04 39.5413C101.838 39.7197 101.596 39.8633 101.318 39.9677L102.02 41.8403C102.51 41.6567 102.964 41.3923 103.362 41.0427L102.04 39.5413ZM101.318 39.9677C101.044 40.0704 100.767 40.12 100.493 40.12V42.12C101.011 42.12 101.526 42.0256 102.02 41.8403L101.318 39.9677ZM100.493 40.12C100.185 40.12 99.9105 40.0751 99.6561 39.9797L98.9539 41.8523C99.4675 42.0449 99.9851 42.12 100.493 42.12V40.12ZM99.6561 39.9797C99.3777 39.8753 99.1364 39.7317 98.9336 39.5533L97.6124 41.0547C98.0096 41.4043 98.4643 41.6687 98.9539 41.8523L99.6561 39.9797ZM98.9336 39.5533C98.7658 39.4056 98.6075 39.1909 98.4761 38.8754L96.6299 39.6446C96.8585 40.1931 97.1802 40.6744 97.6124 41.0547L98.9336 39.5533ZM98.4668 38.8539C98.3441 38.5777 98.277 38.2423 98.277 37.82H96.277C96.277 38.4537 96.3779 39.0783 96.6392 39.6661L98.4668 38.8539ZM98.277 37.82V32.6H96.277V37.82H98.277ZM97.277 33.6H97.913V31.6H97.277V33.6ZM96.913 32.6V37.82H98.913V32.6H96.913ZM96.913 37.82C96.913 38.3621 97.0033 38.891 97.205 39.3784L99.053 38.6136C98.9667 38.405 98.913 38.1419 98.913 37.82H96.913ZM97.2005 39.3674C97.4029 39.8733 97.6972 40.2755 98.048 40.5913L99.386 39.1047C99.2568 38.9885 99.1431 38.8387 99.0575 38.6246L97.2005 39.3674ZM98.048 40.5913C98.3821 40.8919 98.764 41.123 99.186 41.2853L99.904 39.4187C99.702 39.341 99.5319 39.2361 99.386 39.1047L98.048 40.5913ZM99.186 41.2853C99.6066 41.4471 100.04 41.532 100.493 41.532V39.532C100.298 39.532 100.107 39.4969 99.904 39.4187L99.186 41.2853ZM100.493 41.532C100.932 41.532 101.377 41.448 101.8 41.2853L101.082 39.4187C100.881 39.496 100.678 39.532 100.493 39.532V41.532ZM101.8 41.2853C102.222 41.123 102.604 40.8919 102.938 40.5913L101.6 39.1047C101.454 39.2361 101.284 39.341 101.082 39.4187L101.8 41.2853ZM102.938 40.5913C103.303 40.2626 103.579 39.8546 103.773 39.3674L101.917 38.6246C101.823 38.8574 101.715 39.0014 101.6 39.1047L102.938 40.5913ZM103.769 39.3784C103.963 38.9088 104.073 38.3829 104.073 37.82H102.073C102.073 38.1211 102.015 38.3872 101.921 38.6136L103.769 39.3784ZM104.073 37.82V32.6H102.073V37.82H104.073ZM115.666 41V42H117.211L116.579 40.5907L115.666 41ZM114.97 41L114.057 41.4086L114.322 42H114.97V41ZM114.046 38.936L114.959 38.5274L114.694 37.936H114.046V38.936ZM109.03 38.936V37.936H108.379L108.115 38.5318L109.03 38.936ZM108.118 41V42H108.77L109.033 41.4042L108.118 41ZM107.422 41L106.51 40.5907L105.878 42H107.422V41ZM111.19 32.6V31.6H110.543L110.278 32.1907L111.19 32.6ZM111.898 32.6L112.811 32.1907L112.546 31.6H111.898V32.6ZM109.282 38.336L108.367 37.9323L107.748 39.336H109.282V38.336ZM113.794 38.336V39.336H115.329L114.709 37.9323L113.794 38.336ZM111.538 33.224L112.453 32.8203L111.538 30.7472L110.623 32.8203L111.538 33.224ZM115.666 40H114.97V42H115.666V40ZM115.883 40.5914L114.959 38.5274L113.133 39.3446L114.057 41.4086L115.883 40.5914ZM114.046 37.936H109.03V39.936H114.046V37.936ZM108.115 38.5318L107.203 40.5958L109.033 41.4042L109.945 39.3402L108.115 38.5318ZM108.118 40H107.422V42H108.118V40ZM108.335 41.4093L112.103 33.0093L110.278 32.1907L106.51 40.5907L108.335 41.4093ZM111.19 33.6H111.898V31.6H111.19V33.6ZM110.986 33.0093L114.754 41.4093L116.579 40.5907L112.811 32.1907L110.986 33.0093ZM109.282 39.336H113.794V37.336H109.282V39.336ZM114.709 37.9323L112.453 32.8203L110.623 33.6277L112.879 38.7397L114.709 37.9323ZM110.623 32.8203L108.367 37.9323L110.197 38.7397L112.453 33.6277L110.623 32.8203ZM119.809 32.6V31.6H118.809V32.6H119.809ZM120.457 32.6H121.457V31.6H120.457V32.6ZM120.457 40.388H119.457V41.388H120.457V40.388ZM125.185 40.388H126.185V39.388H125.185V40.388ZM125.185 41V42H126.185V41H125.185ZM119.809 41H118.809V42H119.809V41ZM119.809 33.6H120.457V31.6H119.809V33.6ZM119.457 32.6V40.388H121.457V32.6H119.457ZM120.457 41.388H125.185V39.388H120.457V41.388ZM124.185 40.388V41H126.185V40.388H124.185ZM125.185 40H119.809V42H125.185V40ZM120.809 41V32.6H118.809V41H120.809ZM141.107 39.428L141.794 38.701L141.093 38.0392L140.406 38.7151L141.107 39.428ZM141.539 39.836L142.246 40.5431L142.974 39.8155L142.226 39.109L141.539 39.836ZM135.311 39.872L136.044 39.1924L136.039 39.1866L135.311 39.872ZM134.159 36.848H135.159V36.8402L135.159 36.8324L134.159 36.848ZM134.615 34.724L135.516 35.1578L135.516 35.1578L134.615 34.724ZM136.091 33.128L135.572 32.2731L135.561 32.28L136.091 33.128ZM141.539 33.764L142.193 34.5204L143.006 33.8171L142.246 33.0569L141.539 33.764ZM141.095 34.148L140.394 34.861L141.051 35.5077L141.749 34.9044L141.095 34.148ZM134.783 36.824L133.783 36.8354L133.783 36.8355L134.783 36.824ZM135.767 39.44L136.505 38.7648L136.499 38.7586L135.767 39.44ZM140.42 40.155L140.852 40.563L142.226 39.109L141.794 38.701L140.42 40.155ZM140.832 39.1289C140.181 39.7792 139.417 40.096 138.479 40.096V42.096C139.941 42.096 141.216 41.5728 142.246 40.5431L140.832 39.1289ZM138.479 40.096C137.336 40.096 136.571 39.7604 136.044 39.1924L134.577 40.5516C135.563 41.6156 136.91 42.096 138.479 42.096V40.096ZM136.039 39.1866C135.459 38.5701 135.159 37.8131 135.159 36.848H133.159C133.159 38.2829 133.627 39.5419 134.583 40.5574L136.039 39.1866ZM135.159 36.8324C135.149 36.2147 135.274 35.6612 135.516 35.1578L133.714 34.2902C133.332 35.0828 133.145 35.9453 133.159 36.8636L135.159 36.8324ZM135.516 35.1578C135.736 34.7006 136.089 34.3085 136.621 33.976L135.561 32.28C134.749 32.7875 134.118 33.4514 133.714 34.2902L135.516 35.1578ZM136.61 33.9828C137.109 33.68 137.717 33.504 138.479 33.504V31.504C137.393 31.504 136.417 31.76 135.572 32.2732L136.61 33.9828ZM138.479 33.504C139.417 33.504 140.181 33.8208 140.832 34.4711L142.246 33.0569C141.216 32.0272 139.941 31.504 138.479 31.504V33.504ZM140.885 33.0076L140.441 33.3916L141.749 34.9044L142.193 34.5204L140.885 33.0076ZM141.796 33.435C140.89 32.544 139.775 32.08 138.479 32.08V34.08C139.247 34.08 139.86 34.336 140.394 34.861L141.796 33.435ZM138.479 32.08C137.085 32.08 135.877 32.5159 135 33.491L136.486 34.829C136.905 34.3641 137.521 34.08 138.479 34.08V32.08ZM135 33.491C134.171 34.4121 133.768 35.5486 133.783 36.8354L135.783 36.8126C135.773 35.9874 136.019 35.3479 136.486 34.829L135 33.491ZM133.783 36.8355C133.797 38.0957 134.196 39.2207 135.035 40.1214L136.499 38.7586C136.041 38.2673 135.792 37.6403 135.783 36.8125L133.783 36.8355ZM135.029 40.1152C135.908 41.0751 137.102 41.496 138.479 41.496V39.496C137.528 39.496 136.922 39.2209 136.505 38.7648L135.029 40.1152ZM138.479 41.496C139.755 41.496 140.884 41.0494 141.808 40.1409L140.406 38.7151C139.865 39.2466 139.243 39.496 138.479 39.496V41.496ZM145.893 32.6V31.6H144.893V32.6H145.893ZM146.541 32.6H147.541V31.6H146.541V32.6ZM146.541 40.388H145.541V41.388H146.541V40.388ZM151.269 40.388H152.269V39.388H151.269V40.388ZM151.269 41V42H152.269V41H151.269ZM145.893 41H144.893V42H145.893V41ZM145.893 33.6H146.541V31.6H145.893V33.6ZM145.541 32.6V40.388H147.541V32.6H145.541ZM146.541 41.388H151.269V39.388H146.541V41.388ZM150.269 40.388V41H152.269V40.388H150.269ZM151.269 40H145.893V42H151.269V40ZM146.893 41V32.6H144.893V41H146.893ZM155.943 41V42H156.943V41H155.943ZM155.307 41H154.307V42H155.307V41ZM155.307 32.6V31.6H154.307V32.6H155.307ZM155.943 32.6H156.943V31.6H155.943V32.6ZM155.943 40H155.307V42H155.943V40ZM156.307 41V32.6H154.307V41H156.307ZM155.307 33.6H155.943V31.6H155.307V33.6ZM154.943 32.6V41H156.943V32.6H154.943ZM160.958 32.6V31.6H159.958V32.6H160.958ZM161.234 32.6L162.01 31.969L161.71 31.6H161.234V32.6ZM166.886 39.548L166.111 40.179L167.886 42.362V39.548H166.886ZM166.886 32.6V31.6H165.886V32.6H166.886ZM167.522 32.6H168.522V31.6H167.522V32.6ZM167.522 41V42H168.522V41H167.522ZM167.27 41L166.496 41.6325L166.796 42H167.27V41ZM161.606 34.064L162.381 33.4315L160.606 31.2584V34.064H161.606ZM161.606 41V42H162.606V41H161.606ZM160.958 41H159.958V42H160.958V41ZM160.958 33.6H161.234V31.6H160.958V33.6ZM160.459 33.231L166.111 40.179L167.662 38.917L162.01 31.969L160.459 33.231ZM167.886 39.548V32.6H165.886V39.548H167.886ZM166.886 33.6H167.522V31.6H166.886V33.6ZM166.522 32.6V41H168.522V32.6H166.522ZM167.522 40H167.27V42H167.522V40ZM168.045 40.3675L162.381 33.4315L160.832 34.6965L166.496 41.6325L168.045 40.3675ZM160.606 34.064V41H162.606V34.064H160.606ZM161.606 40H160.958V42H161.606V40ZM161.958 41V32.6H159.958V41H161.958ZM173.176 41V42H174.176V41H173.176ZM172.54 41H171.54V42H172.54V41ZM172.54 32.6V31.6H171.54V32.6H172.54ZM173.176 32.6H174.176V31.6H173.176V32.6ZM173.176 40H172.54V42H173.176V40ZM173.54 41V32.6H171.54V41H173.54ZM172.54 33.6H173.176V31.6H172.54V33.6ZM172.176 32.6V41H174.176V32.6H172.176ZM184.612 39.428L185.298 38.701L184.597 38.0392L183.91 38.7151L184.612 39.428ZM185.044 39.836L185.751 40.5431L186.478 39.8155L185.73 39.109L185.044 39.836ZM178.816 39.872L179.549 39.1924L179.544 39.1866L178.816 39.872ZM177.664 36.848H178.664V36.8402L178.663 36.8324L177.664 36.848ZM178.12 34.724L179.021 35.1578L179.021 35.1578L178.12 34.724ZM179.596 33.128L179.077 32.2731L179.066 32.28L179.596 33.128ZM185.044 33.764L185.698 34.5204L186.511 33.8171L185.751 33.0569L185.044 33.764ZM184.6 34.148L183.898 34.861L184.556 35.5077L185.254 34.9044L184.6 34.148ZM178.288 36.824L177.288 36.8354L177.288 36.8355L178.288 36.824ZM179.272 39.44L180.009 38.7648L180.003 38.7586L179.272 39.44ZM183.925 40.155L184.357 40.563L185.73 39.109L185.298 38.701L183.925 40.155ZM184.336 39.1289C183.686 39.7792 182.921 40.096 181.984 40.096V42.096C183.446 42.096 184.721 41.5728 185.751 40.5431L184.336 39.1289ZM181.984 40.096C180.84 40.096 180.075 39.7604 179.549 39.1924L178.082 40.5516C179.068 41.6156 180.415 42.096 181.984 42.096V40.096ZM179.544 39.1866C178.963 38.5701 178.664 37.8131 178.664 36.848H176.664C176.664 38.2829 177.132 39.5419 178.087 40.5574L179.544 39.1866ZM178.663 36.8324C178.654 36.2147 178.778 35.6612 179.021 35.1578L177.219 34.2902C176.837 35.0828 176.649 35.9453 176.664 36.8636L178.663 36.8324ZM179.021 35.1578C179.241 34.7006 179.594 34.3085 180.126 33.976L179.066 32.28C178.254 32.7875 177.622 33.4514 177.219 34.2902L179.021 35.1578ZM180.115 33.9828C180.613 33.68 181.222 33.504 181.984 33.504V31.504C180.897 31.504 179.922 31.76 179.077 32.2732L180.115 33.9828ZM181.984 33.504C182.921 33.504 183.686 33.8208 184.336 34.4711L185.751 33.0569C184.721 32.0272 183.446 31.504 181.984 31.504V33.504ZM184.389 33.0076L183.945 33.3916L185.254 34.9044L185.698 34.5204L184.389 33.0076ZM185.301 33.435C184.395 32.544 183.279 32.08 181.984 32.08V34.08C182.752 34.08 183.365 34.336 183.898 34.861L185.301 33.435ZM181.984 32.08C180.59 32.08 179.382 32.5159 178.504 33.491L179.991 34.829C180.409 34.3641 181.025 34.08 181.984 34.08V32.08ZM178.504 33.491C177.675 34.4121 177.273 35.5486 177.288 36.8354L179.288 36.8126C179.278 35.9874 179.524 35.3479 179.991 34.829L178.504 33.491ZM177.288 36.8355C177.302 38.0957 177.701 39.2207 178.54 40.1214L180.003 38.7586C179.546 38.2673 179.297 37.6403 179.288 36.8125L177.288 36.8355ZM178.534 40.1152C179.413 41.0751 180.606 41.496 181.984 41.496V39.496C181.033 39.496 180.427 39.2209 180.009 38.7648L178.534 40.1152ZM181.984 41.496C183.259 41.496 184.389 41.0494 185.313 40.1409L183.91 38.7151C183.37 39.2466 182.748 39.496 181.984 39.496V41.496Z" fill="#77DE8D" mask="url(#path-15-outside-3_643_2)"/>
</svg>
